G04 #@! TF.GenerationSoftware,KiCad,Pcbnew,5.1.5-52549c5~84~ubuntu18.04.1*
G04 #@! TF.CreationDate,2020-03-24T22:40:52-05:00*
G04 #@! TF.ProjectId,lm386-guitaramp,6c6d3338-362d-4677-9569-746172616d70,rev?*
G04 #@! TF.SameCoordinates,Original*
G04 #@! TF.FileFunction,Legend,Top*
G04 #@! TF.FilePolarity,Positive*
%FSLAX46Y46*%
G04 Gerber Fmt 4.6, Leading zero omitted, Abs format (unit mm)*
G04 Created by KiCad (PCBNEW 5.1.5-52549c5~84~ubuntu18.04.1) date 2020-03-24 22:40:52*
%MOMM*%
%LPD*%
G04 APERTURE LIST*
%ADD10C,0.150000*%
%ADD11C,0.120000*%
G04 APERTURE END LIST*
D10*
X206891380Y-135030666D02*
X205891380Y-135030666D01*
X206367571Y-135030666D02*
X206367571Y-134459238D01*
X206891380Y-134459238D02*
X205891380Y-134459238D01*
X206891380Y-133554476D02*
X206367571Y-133554476D01*
X206272333Y-133602095D01*
X206224714Y-133697333D01*
X206224714Y-133887809D01*
X206272333Y-133983047D01*
X206843761Y-133554476D02*
X206891380Y-133649714D01*
X206891380Y-133887809D01*
X206843761Y-133983047D01*
X206748523Y-134030666D01*
X206653285Y-134030666D01*
X206558047Y-133983047D01*
X206510428Y-133887809D01*
X206510428Y-133649714D01*
X206462809Y-133554476D01*
X206843761Y-132649714D02*
X206891380Y-132744952D01*
X206891380Y-132935428D01*
X206843761Y-133030666D01*
X206796142Y-133078285D01*
X206700904Y-133125904D01*
X206415190Y-133125904D01*
X206319952Y-133078285D01*
X206272333Y-133030666D01*
X206224714Y-132935428D01*
X206224714Y-132744952D01*
X206272333Y-132649714D01*
X206891380Y-132221142D02*
X205891380Y-132221142D01*
X206510428Y-132125904D02*
X206891380Y-131840190D01*
X206224714Y-131840190D02*
X206605666Y-132221142D01*
X206843761Y-131459238D02*
X206891380Y-131364000D01*
X206891380Y-131173523D01*
X206843761Y-131078285D01*
X206748523Y-131030666D01*
X206700904Y-131030666D01*
X206605666Y-131078285D01*
X206558047Y-131173523D01*
X206558047Y-131316380D01*
X206510428Y-131411619D01*
X206415190Y-131459238D01*
X206367571Y-131459238D01*
X206272333Y-131411619D01*
X206224714Y-131316380D01*
X206224714Y-131173523D01*
X206272333Y-131078285D01*
X206224714Y-130744952D02*
X206224714Y-130364000D01*
X205891380Y-130602095D02*
X206748523Y-130602095D01*
X206843761Y-130554476D01*
X206891380Y-130459238D01*
X206891380Y-130364000D01*
X206843761Y-129649714D02*
X206891380Y-129744952D01*
X206891380Y-129935428D01*
X206843761Y-130030666D01*
X206748523Y-130078285D01*
X206367571Y-130078285D01*
X206272333Y-130030666D01*
X206224714Y-129935428D01*
X206224714Y-129744952D01*
X206272333Y-129649714D01*
X206367571Y-129602095D01*
X206462809Y-129602095D01*
X206558047Y-130078285D01*
X206891380Y-129173523D02*
X206224714Y-129173523D01*
X206415190Y-129173523D02*
X206319952Y-129125904D01*
X206272333Y-129078285D01*
X206224714Y-128983047D01*
X206224714Y-128887809D01*
X206891380Y-127792571D02*
X205891380Y-127792571D01*
X206367571Y-127792571D02*
X206367571Y-127221142D01*
X206891380Y-127221142D02*
X205891380Y-127221142D01*
X206891380Y-126316380D02*
X206367571Y-126316380D01*
X206272333Y-126364000D01*
X206224714Y-126459238D01*
X206224714Y-126649714D01*
X206272333Y-126744952D01*
X206843761Y-126316380D02*
X206891380Y-126411619D01*
X206891380Y-126649714D01*
X206843761Y-126744952D01*
X206748523Y-126792571D01*
X206653285Y-126792571D01*
X206558047Y-126744952D01*
X206510428Y-126649714D01*
X206510428Y-126411619D01*
X206462809Y-126316380D01*
X206891380Y-125840190D02*
X206224714Y-125840190D01*
X206415190Y-125840190D02*
X206319952Y-125792571D01*
X206272333Y-125744952D01*
X206224714Y-125649714D01*
X206224714Y-125554476D01*
X206891380Y-124792571D02*
X205891380Y-124792571D01*
X206843761Y-124792571D02*
X206891380Y-124887809D01*
X206891380Y-125078285D01*
X206843761Y-125173523D01*
X206796142Y-125221142D01*
X206700904Y-125268761D01*
X206415190Y-125268761D01*
X206319952Y-125221142D01*
X206272333Y-125173523D01*
X206224714Y-125078285D01*
X206224714Y-124887809D01*
X206272333Y-124792571D01*
X206224714Y-124411619D02*
X206891380Y-124221142D01*
X206415190Y-124030666D01*
X206891380Y-123840190D01*
X206224714Y-123649714D01*
X206891380Y-122840190D02*
X206367571Y-122840190D01*
X206272333Y-122887809D01*
X206224714Y-122983047D01*
X206224714Y-123173523D01*
X206272333Y-123268761D01*
X206843761Y-122840190D02*
X206891380Y-122935428D01*
X206891380Y-123173523D01*
X206843761Y-123268761D01*
X206748523Y-123316380D01*
X206653285Y-123316380D01*
X206558047Y-123268761D01*
X206510428Y-123173523D01*
X206510428Y-122935428D01*
X206462809Y-122840190D01*
X206891380Y-122364000D02*
X206224714Y-122364000D01*
X206415190Y-122364000D02*
X206319952Y-122316380D01*
X206272333Y-122268761D01*
X206224714Y-122173523D01*
X206224714Y-122078285D01*
X206843761Y-121364000D02*
X206891380Y-121459238D01*
X206891380Y-121649714D01*
X206843761Y-121744952D01*
X206748523Y-121792571D01*
X206367571Y-121792571D01*
X206272333Y-121744952D01*
X206224714Y-121649714D01*
X206224714Y-121459238D01*
X206272333Y-121364000D01*
X206367571Y-121316380D01*
X206462809Y-121316380D01*
X206558047Y-121792571D01*
X206891380Y-120125904D02*
X205891380Y-120125904D01*
X206367571Y-120125904D02*
X206367571Y-119554476D01*
X206891380Y-119554476D02*
X205891380Y-119554476D01*
X206891380Y-118935428D02*
X206843761Y-119030666D01*
X206796142Y-119078285D01*
X206700904Y-119125904D01*
X206415190Y-119125904D01*
X206319952Y-119078285D01*
X206272333Y-119030666D01*
X206224714Y-118935428D01*
X206224714Y-118792571D01*
X206272333Y-118697333D01*
X206319952Y-118649714D01*
X206415190Y-118602095D01*
X206700904Y-118602095D01*
X206796142Y-118649714D01*
X206843761Y-118697333D01*
X206891380Y-118792571D01*
X206891380Y-118935428D01*
X206224714Y-117744952D02*
X206891380Y-117744952D01*
X206224714Y-118173523D02*
X206748523Y-118173523D01*
X206843761Y-118125904D01*
X206891380Y-118030666D01*
X206891380Y-117887809D01*
X206843761Y-117792571D01*
X206796142Y-117744952D01*
X206843761Y-117316380D02*
X206891380Y-117221142D01*
X206891380Y-117030666D01*
X206843761Y-116935428D01*
X206748523Y-116887809D01*
X206700904Y-116887809D01*
X206605666Y-116935428D01*
X206558047Y-117030666D01*
X206558047Y-117173523D01*
X206510428Y-117268761D01*
X206415190Y-117316380D01*
X206367571Y-117316380D01*
X206272333Y-117268761D01*
X206224714Y-117173523D01*
X206224714Y-117030666D01*
X206272333Y-116935428D01*
X206224714Y-116602095D02*
X206224714Y-116221142D01*
X205891380Y-116459238D02*
X206748523Y-116459238D01*
X206843761Y-116411619D01*
X206891380Y-116316380D01*
X206891380Y-116221142D01*
X206891380Y-115744952D02*
X206843761Y-115840190D01*
X206796142Y-115887809D01*
X206700904Y-115935428D01*
X206415190Y-115935428D01*
X206319952Y-115887809D01*
X206272333Y-115840190D01*
X206224714Y-115744952D01*
X206224714Y-115602095D01*
X206272333Y-115506857D01*
X206319952Y-115459238D01*
X206415190Y-115411619D01*
X206700904Y-115411619D01*
X206796142Y-115459238D01*
X206843761Y-115506857D01*
X206891380Y-115602095D01*
X206891380Y-115744952D01*
X206224714Y-114983047D02*
X206891380Y-114983047D01*
X206319952Y-114983047D02*
X206272333Y-114935428D01*
X206224714Y-114840190D01*
X206224714Y-114697333D01*
X206272333Y-114602095D01*
X206367571Y-114554476D01*
X206891380Y-114554476D01*
X206891380Y-113316380D02*
X206224714Y-113316380D01*
X205891380Y-113316380D02*
X205939000Y-113364000D01*
X205986619Y-113316380D01*
X205939000Y-113268761D01*
X205891380Y-113316380D01*
X205986619Y-113316380D01*
X206224714Y-112840190D02*
X206891380Y-112840190D01*
X206319952Y-112840190D02*
X206272333Y-112792571D01*
X206224714Y-112697333D01*
X206224714Y-112554476D01*
X206272333Y-112459238D01*
X206367571Y-112411619D01*
X206891380Y-112411619D01*
X206796142Y-110602095D02*
X206843761Y-110649714D01*
X206891380Y-110792571D01*
X206891380Y-110887809D01*
X206843761Y-111030666D01*
X206748523Y-111125904D01*
X206653285Y-111173523D01*
X206462809Y-111221142D01*
X206319952Y-111221142D01*
X206129476Y-111173523D01*
X206034238Y-111125904D01*
X205939000Y-111030666D01*
X205891380Y-110887809D01*
X205891380Y-110792571D01*
X205939000Y-110649714D01*
X205986619Y-110602095D01*
X206415190Y-109983047D02*
X206891380Y-109983047D01*
X205891380Y-110316380D02*
X206415190Y-109983047D01*
X205891380Y-109649714D01*
X206367571Y-108983047D02*
X206415190Y-108840190D01*
X206462809Y-108792571D01*
X206558047Y-108744952D01*
X206700904Y-108744952D01*
X206796142Y-108792571D01*
X206843761Y-108840190D01*
X206891380Y-108935428D01*
X206891380Y-109316380D01*
X205891380Y-109316380D01*
X205891380Y-108983047D01*
X205939000Y-108887809D01*
X205986619Y-108840190D01*
X206081857Y-108792571D01*
X206177095Y-108792571D01*
X206272333Y-108840190D01*
X206319952Y-108887809D01*
X206367571Y-108983047D01*
X206367571Y-109316380D01*
X206367571Y-108316380D02*
X206367571Y-107983047D01*
X206891380Y-107840190D02*
X206891380Y-108316380D01*
X205891380Y-108316380D01*
X205891380Y-107840190D01*
X206891380Y-106840190D02*
X206415190Y-107173523D01*
X206891380Y-107411619D02*
X205891380Y-107411619D01*
X205891380Y-107030666D01*
X205939000Y-106935428D01*
X205986619Y-106887809D01*
X206081857Y-106840190D01*
X206224714Y-106840190D01*
X206319952Y-106887809D01*
X206367571Y-106935428D01*
X206415190Y-107030666D01*
X206415190Y-107411619D01*
X206843761Y-106459238D02*
X206891380Y-106316380D01*
X206891380Y-106078285D01*
X206843761Y-105983047D01*
X206796142Y-105935428D01*
X206700904Y-105887809D01*
X206605666Y-105887809D01*
X206510428Y-105935428D01*
X206462809Y-105983047D01*
X206415190Y-106078285D01*
X206367571Y-106268761D01*
X206319952Y-106364000D01*
X206272333Y-106411619D01*
X206177095Y-106459238D01*
X206081857Y-106459238D01*
X205986619Y-106411619D01*
X205939000Y-106364000D01*
X205891380Y-106268761D01*
X205891380Y-106030666D01*
X205939000Y-105887809D01*
X206891380Y-105459238D02*
X205891380Y-105459238D01*
X205891380Y-105078285D01*
X205939000Y-104983047D01*
X205986619Y-104935428D01*
X206081857Y-104887809D01*
X206224714Y-104887809D01*
X206319952Y-104935428D01*
X206367571Y-104983047D01*
X206415190Y-105078285D01*
X206415190Y-105459238D01*
X206605666Y-104506857D02*
X206605666Y-104030666D01*
X206891380Y-104602095D02*
X205891380Y-104268761D01*
X206891380Y-103935428D01*
X206796142Y-103030666D02*
X206843761Y-103078285D01*
X206891380Y-103221142D01*
X206891380Y-103316380D01*
X206843761Y-103459238D01*
X206748523Y-103554476D01*
X206653285Y-103602095D01*
X206462809Y-103649714D01*
X206319952Y-103649714D01*
X206129476Y-103602095D01*
X206034238Y-103554476D01*
X205939000Y-103459238D01*
X205891380Y-103316380D01*
X205891380Y-103221142D01*
X205939000Y-103078285D01*
X205986619Y-103030666D01*
X206367571Y-102602095D02*
X206367571Y-102268761D01*
X206891380Y-102125904D02*
X206891380Y-102602095D01*
X205891380Y-102602095D01*
X205891380Y-102125904D01*
X206796142Y-101697333D02*
X206843761Y-101649714D01*
X206891380Y-101697333D01*
X206843761Y-101744952D01*
X206796142Y-101697333D01*
X206891380Y-101697333D01*
X206510428Y-101697333D02*
X205939000Y-101744952D01*
X205891380Y-101697333D01*
X205939000Y-101649714D01*
X206510428Y-101697333D01*
X205891380Y-101697333D01*
X208541380Y-125125904D02*
X207541380Y-125125904D01*
X208255666Y-124792571D01*
X207541380Y-124459238D01*
X208541380Y-124459238D01*
X208541380Y-123554476D02*
X208017571Y-123554476D01*
X207922333Y-123602095D01*
X207874714Y-123697333D01*
X207874714Y-123887809D01*
X207922333Y-123983047D01*
X208493761Y-123554476D02*
X208541380Y-123649714D01*
X208541380Y-123887809D01*
X208493761Y-123983047D01*
X208398523Y-124030666D01*
X208303285Y-124030666D01*
X208208047Y-123983047D01*
X208160428Y-123887809D01*
X208160428Y-123649714D01*
X208112809Y-123554476D01*
X208541380Y-123078285D02*
X207874714Y-123078285D01*
X208065190Y-123078285D02*
X207969952Y-123030666D01*
X207922333Y-122983047D01*
X207874714Y-122887809D01*
X207874714Y-122792571D01*
X208493761Y-122030666D02*
X208541380Y-122125904D01*
X208541380Y-122316380D01*
X208493761Y-122411619D01*
X208446142Y-122459238D01*
X208350904Y-122506857D01*
X208065190Y-122506857D01*
X207969952Y-122459238D01*
X207922333Y-122411619D01*
X207874714Y-122316380D01*
X207874714Y-122125904D01*
X207922333Y-122030666D01*
X208541380Y-121602095D02*
X207541380Y-121602095D01*
X208541380Y-121173523D02*
X208017571Y-121173523D01*
X207922333Y-121221142D01*
X207874714Y-121316380D01*
X207874714Y-121459238D01*
X207922333Y-121554476D01*
X207969952Y-121602095D01*
X208493761Y-120649714D02*
X208541380Y-120649714D01*
X208636619Y-120697333D01*
X208684238Y-120744952D01*
X207541380Y-119554476D02*
X207541380Y-118935428D01*
X207922333Y-119268761D01*
X207922333Y-119125904D01*
X207969952Y-119030666D01*
X208017571Y-118983047D01*
X208112809Y-118935428D01*
X208350904Y-118935428D01*
X208446142Y-118983047D01*
X208493761Y-119030666D01*
X208541380Y-119125904D01*
X208541380Y-119411619D01*
X208493761Y-119506857D01*
X208446142Y-119554476D01*
X208541380Y-117983047D02*
X208541380Y-118554476D01*
X208541380Y-118268761D02*
X207541380Y-118268761D01*
X207684238Y-118364000D01*
X207779476Y-118459238D01*
X207827095Y-118554476D01*
X208493761Y-117602095D02*
X208541380Y-117506857D01*
X208541380Y-117316380D01*
X208493761Y-117221142D01*
X208398523Y-117173523D01*
X208350904Y-117173523D01*
X208255666Y-117221142D01*
X208208047Y-117316380D01*
X208208047Y-117459238D01*
X208160428Y-117554476D01*
X208065190Y-117602095D01*
X208017571Y-117602095D01*
X207922333Y-117554476D01*
X207874714Y-117459238D01*
X207874714Y-117316380D01*
X207922333Y-117221142D01*
X207874714Y-116887809D02*
X207874714Y-116506857D01*
X207541380Y-116744952D02*
X208398523Y-116744952D01*
X208493761Y-116697333D01*
X208541380Y-116602095D01*
X208541380Y-116506857D01*
X208446142Y-116173523D02*
X208493761Y-116125904D01*
X208541380Y-116173523D01*
X208493761Y-116221142D01*
X208446142Y-116173523D01*
X208541380Y-116173523D01*
X207636619Y-114983047D02*
X207589000Y-114935428D01*
X207541380Y-114840190D01*
X207541380Y-114602095D01*
X207589000Y-114506857D01*
X207636619Y-114459238D01*
X207731857Y-114411619D01*
X207827095Y-114411619D01*
X207969952Y-114459238D01*
X208541380Y-115030666D01*
X208541380Y-114411619D01*
X207541380Y-113792571D02*
X207541380Y-113697333D01*
X207589000Y-113602095D01*
X207636619Y-113554476D01*
X207731857Y-113506857D01*
X207922333Y-113459238D01*
X208160428Y-113459238D01*
X208350904Y-113506857D01*
X208446142Y-113554476D01*
X208493761Y-113602095D01*
X208541380Y-113697333D01*
X208541380Y-113792571D01*
X208493761Y-113887809D01*
X208446142Y-113935428D01*
X208350904Y-113983047D01*
X208160428Y-114030666D01*
X207922333Y-114030666D01*
X207731857Y-113983047D01*
X207636619Y-113935428D01*
X207589000Y-113887809D01*
X207541380Y-113792571D01*
X207636619Y-113078285D02*
X207589000Y-113030666D01*
X207541380Y-112935428D01*
X207541380Y-112697333D01*
X207589000Y-112602095D01*
X207636619Y-112554476D01*
X207731857Y-112506857D01*
X207827095Y-112506857D01*
X207969952Y-112554476D01*
X208541380Y-113125904D01*
X208541380Y-112506857D01*
X207541380Y-111887809D02*
X207541380Y-111792571D01*
X207589000Y-111697333D01*
X207636619Y-111649714D01*
X207731857Y-111602095D01*
X207922333Y-111554476D01*
X208160428Y-111554476D01*
X208350904Y-111602095D01*
X208446142Y-111649714D01*
X208493761Y-111697333D01*
X208541380Y-111792571D01*
X208541380Y-111887809D01*
X208493761Y-111983047D01*
X208446142Y-112030666D01*
X208350904Y-112078285D01*
X208160428Y-112125904D01*
X207922333Y-112125904D01*
X207731857Y-112078285D01*
X207636619Y-112030666D01*
X207589000Y-111983047D01*
X207541380Y-111887809D01*
D11*
X233112000Y-136846000D02*
X233112000Y-139506000D01*
X235712000Y-136846000D02*
X233112000Y-136846000D01*
X235712000Y-139506000D02*
X233112000Y-139506000D01*
X235712000Y-136846000D02*
X235712000Y-139506000D01*
X236982000Y-136846000D02*
X238312000Y-136846000D01*
X238312000Y-136846000D02*
X238312000Y-138176000D01*
X238538000Y-122591000D02*
X238538000Y-123036000D01*
X238538000Y-120296000D02*
X238538000Y-120741000D01*
X232298000Y-122591000D02*
X232298000Y-123036000D01*
X232298000Y-120296000D02*
X232298000Y-120741000D01*
X232298000Y-123036000D02*
X238538000Y-123036000D01*
X232298000Y-120296000D02*
X238538000Y-120296000D01*
X226172000Y-104748000D02*
X219932000Y-104748000D01*
X226172000Y-102008000D02*
X219932000Y-102008000D01*
X226172000Y-104748000D02*
X226172000Y-104303000D01*
X226172000Y-102453000D02*
X226172000Y-102008000D01*
X219932000Y-104748000D02*
X219932000Y-104303000D01*
X219932000Y-102453000D02*
X219932000Y-102008000D01*
X241188000Y-117502000D02*
X247428000Y-117502000D01*
X241188000Y-120242000D02*
X247428000Y-120242000D01*
X241188000Y-117502000D02*
X241188000Y-117947000D01*
X241188000Y-119797000D02*
X241188000Y-120242000D01*
X247428000Y-117502000D02*
X247428000Y-117947000D01*
X247428000Y-119797000D02*
X247428000Y-120242000D01*
X210252000Y-138998000D02*
X212912000Y-138998000D01*
X210252000Y-136398000D02*
X210252000Y-138998000D01*
X212912000Y-136398000D02*
X212912000Y-138998000D01*
X210252000Y-136398000D02*
X212912000Y-136398000D01*
X210252000Y-135128000D02*
X210252000Y-133798000D01*
X210252000Y-133798000D02*
X211582000Y-133798000D01*
X223834000Y-113732000D02*
X223834000Y-115062000D01*
X222504000Y-113732000D02*
X223834000Y-113732000D01*
X221234000Y-113732000D02*
X221234000Y-116392000D01*
X221234000Y-116392000D02*
X218634000Y-116392000D01*
X221234000Y-113732000D02*
X218634000Y-113732000D01*
X218634000Y-113732000D02*
X218634000Y-116392000D01*
X236712000Y-124654000D02*
G75*
G02X234712000Y-124654000I-1000000J0D01*
G01*
X234712000Y-124654000D02*
X233062000Y-124654000D01*
X233062000Y-124654000D02*
X233062000Y-134934000D01*
X233062000Y-134934000D02*
X238362000Y-134934000D01*
X238362000Y-134934000D02*
X238362000Y-124654000D01*
X238362000Y-124654000D02*
X236712000Y-124654000D01*
X230572000Y-124594000D02*
X230572000Y-134994000D01*
X230572000Y-134994000D02*
X240852000Y-134994000D01*
X240852000Y-134994000D02*
X240852000Y-124594000D01*
X240852000Y-124594000D02*
X230572000Y-124594000D01*
X241334000Y-103750000D02*
X241334000Y-108416000D01*
X241334000Y-112325000D02*
X241334000Y-115340000D01*
X228994000Y-103750000D02*
X228994000Y-108416000D01*
X228994000Y-112325000D02*
X228994000Y-115340000D01*
X241334000Y-103750000D02*
X238535000Y-103750000D01*
X236793000Y-103750000D02*
X236034000Y-103750000D01*
X234293000Y-103750000D02*
X233534000Y-103750000D01*
X231794000Y-103750000D02*
X228994000Y-103750000D01*
X241334000Y-115340000D02*
X228994000Y-115340000D01*
X228822000Y-120376000D02*
G75*
G03X228822000Y-120376000I-3270000J0D01*
G01*
X228782000Y-120376000D02*
X222322000Y-120376000D01*
X228782000Y-120416000D02*
X222322000Y-120416000D01*
X228782000Y-120456000D02*
X222322000Y-120456000D01*
X228780000Y-120496000D02*
X222324000Y-120496000D01*
X228779000Y-120536000D02*
X222325000Y-120536000D01*
X228776000Y-120576000D02*
X222328000Y-120576000D01*
X228774000Y-120616000D02*
X226592000Y-120616000D01*
X224512000Y-120616000D02*
X222330000Y-120616000D01*
X228770000Y-120656000D02*
X226592000Y-120656000D01*
X224512000Y-120656000D02*
X222334000Y-120656000D01*
X228767000Y-120696000D02*
X226592000Y-120696000D01*
X224512000Y-120696000D02*
X222337000Y-120696000D01*
X228763000Y-120736000D02*
X226592000Y-120736000D01*
X224512000Y-120736000D02*
X222341000Y-120736000D01*
X228758000Y-120776000D02*
X226592000Y-120776000D01*
X224512000Y-120776000D02*
X222346000Y-120776000D01*
X228753000Y-120816000D02*
X226592000Y-120816000D01*
X224512000Y-120816000D02*
X222351000Y-120816000D01*
X228747000Y-120856000D02*
X226592000Y-120856000D01*
X224512000Y-120856000D02*
X222357000Y-120856000D01*
X228741000Y-120896000D02*
X226592000Y-120896000D01*
X224512000Y-120896000D02*
X222363000Y-120896000D01*
X228734000Y-120936000D02*
X226592000Y-120936000D01*
X224512000Y-120936000D02*
X222370000Y-120936000D01*
X228727000Y-120976000D02*
X226592000Y-120976000D01*
X224512000Y-120976000D02*
X222377000Y-120976000D01*
X228719000Y-121016000D02*
X226592000Y-121016000D01*
X224512000Y-121016000D02*
X222385000Y-121016000D01*
X228711000Y-121056000D02*
X226592000Y-121056000D01*
X224512000Y-121056000D02*
X222393000Y-121056000D01*
X228702000Y-121097000D02*
X226592000Y-121097000D01*
X224512000Y-121097000D02*
X222402000Y-121097000D01*
X228693000Y-121137000D02*
X226592000Y-121137000D01*
X224512000Y-121137000D02*
X222411000Y-121137000D01*
X228683000Y-121177000D02*
X226592000Y-121177000D01*
X224512000Y-121177000D02*
X222421000Y-121177000D01*
X228673000Y-121217000D02*
X226592000Y-121217000D01*
X224512000Y-121217000D02*
X222431000Y-121217000D01*
X228662000Y-121257000D02*
X226592000Y-121257000D01*
X224512000Y-121257000D02*
X222442000Y-121257000D01*
X228650000Y-121297000D02*
X226592000Y-121297000D01*
X224512000Y-121297000D02*
X222454000Y-121297000D01*
X228638000Y-121337000D02*
X226592000Y-121337000D01*
X224512000Y-121337000D02*
X222466000Y-121337000D01*
X228626000Y-121377000D02*
X226592000Y-121377000D01*
X224512000Y-121377000D02*
X222478000Y-121377000D01*
X228613000Y-121417000D02*
X226592000Y-121417000D01*
X224512000Y-121417000D02*
X222491000Y-121417000D01*
X228599000Y-121457000D02*
X226592000Y-121457000D01*
X224512000Y-121457000D02*
X222505000Y-121457000D01*
X228585000Y-121497000D02*
X226592000Y-121497000D01*
X224512000Y-121497000D02*
X222519000Y-121497000D01*
X228570000Y-121537000D02*
X226592000Y-121537000D01*
X224512000Y-121537000D02*
X222534000Y-121537000D01*
X228554000Y-121577000D02*
X226592000Y-121577000D01*
X224512000Y-121577000D02*
X222550000Y-121577000D01*
X228538000Y-121617000D02*
X226592000Y-121617000D01*
X224512000Y-121617000D02*
X222566000Y-121617000D01*
X228522000Y-121657000D02*
X226592000Y-121657000D01*
X224512000Y-121657000D02*
X222582000Y-121657000D01*
X228504000Y-121697000D02*
X226592000Y-121697000D01*
X224512000Y-121697000D02*
X222600000Y-121697000D01*
X228486000Y-121737000D02*
X226592000Y-121737000D01*
X224512000Y-121737000D02*
X222618000Y-121737000D01*
X228468000Y-121777000D02*
X226592000Y-121777000D01*
X224512000Y-121777000D02*
X222636000Y-121777000D01*
X228448000Y-121817000D02*
X226592000Y-121817000D01*
X224512000Y-121817000D02*
X222656000Y-121817000D01*
X228428000Y-121857000D02*
X226592000Y-121857000D01*
X224512000Y-121857000D02*
X222676000Y-121857000D01*
X228408000Y-121897000D02*
X226592000Y-121897000D01*
X224512000Y-121897000D02*
X222696000Y-121897000D01*
X228386000Y-121937000D02*
X226592000Y-121937000D01*
X224512000Y-121937000D02*
X222718000Y-121937000D01*
X228364000Y-121977000D02*
X226592000Y-121977000D01*
X224512000Y-121977000D02*
X222740000Y-121977000D01*
X228342000Y-122017000D02*
X226592000Y-122017000D01*
X224512000Y-122017000D02*
X222762000Y-122017000D01*
X228318000Y-122057000D02*
X226592000Y-122057000D01*
X224512000Y-122057000D02*
X222786000Y-122057000D01*
X228294000Y-122097000D02*
X226592000Y-122097000D01*
X224512000Y-122097000D02*
X222810000Y-122097000D01*
X228268000Y-122137000D02*
X226592000Y-122137000D01*
X224512000Y-122137000D02*
X222836000Y-122137000D01*
X228242000Y-122177000D02*
X226592000Y-122177000D01*
X224512000Y-122177000D02*
X222862000Y-122177000D01*
X228216000Y-122217000D02*
X226592000Y-122217000D01*
X224512000Y-122217000D02*
X222888000Y-122217000D01*
X228188000Y-122257000D02*
X226592000Y-122257000D01*
X224512000Y-122257000D02*
X222916000Y-122257000D01*
X228159000Y-122297000D02*
X226592000Y-122297000D01*
X224512000Y-122297000D02*
X222945000Y-122297000D01*
X228130000Y-122337000D02*
X226592000Y-122337000D01*
X224512000Y-122337000D02*
X222974000Y-122337000D01*
X228100000Y-122377000D02*
X226592000Y-122377000D01*
X224512000Y-122377000D02*
X223004000Y-122377000D01*
X228068000Y-122417000D02*
X226592000Y-122417000D01*
X224512000Y-122417000D02*
X223036000Y-122417000D01*
X228036000Y-122457000D02*
X226592000Y-122457000D01*
X224512000Y-122457000D02*
X223068000Y-122457000D01*
X228002000Y-122497000D02*
X226592000Y-122497000D01*
X224512000Y-122497000D02*
X223102000Y-122497000D01*
X227968000Y-122537000D02*
X226592000Y-122537000D01*
X224512000Y-122537000D02*
X223136000Y-122537000D01*
X227932000Y-122577000D02*
X226592000Y-122577000D01*
X224512000Y-122577000D02*
X223172000Y-122577000D01*
X227895000Y-122617000D02*
X226592000Y-122617000D01*
X224512000Y-122617000D02*
X223209000Y-122617000D01*
X227857000Y-122657000D02*
X226592000Y-122657000D01*
X224512000Y-122657000D02*
X223247000Y-122657000D01*
X227817000Y-122697000D02*
X223287000Y-122697000D01*
X227776000Y-122737000D02*
X223328000Y-122737000D01*
X227734000Y-122777000D02*
X223370000Y-122777000D01*
X227689000Y-122817000D02*
X223415000Y-122817000D01*
X227644000Y-122857000D02*
X223460000Y-122857000D01*
X227596000Y-122897000D02*
X223508000Y-122897000D01*
X227547000Y-122937000D02*
X223557000Y-122937000D01*
X227496000Y-122977000D02*
X223608000Y-122977000D01*
X227442000Y-123017000D02*
X223662000Y-123017000D01*
X227386000Y-123057000D02*
X223718000Y-123057000D01*
X227328000Y-123097000D02*
X223776000Y-123097000D01*
X227266000Y-123137000D02*
X223838000Y-123137000D01*
X227202000Y-123177000D02*
X223902000Y-123177000D01*
X227133000Y-123217000D02*
X223971000Y-123217000D01*
X227061000Y-123257000D02*
X224043000Y-123257000D01*
X226984000Y-123297000D02*
X224120000Y-123297000D01*
X226902000Y-123337000D02*
X224202000Y-123337000D01*
X226814000Y-123377000D02*
X224290000Y-123377000D01*
X226717000Y-123417000D02*
X224387000Y-123417000D01*
X226611000Y-123457000D02*
X224493000Y-123457000D01*
X226492000Y-123497000D02*
X224612000Y-123497000D01*
X226354000Y-123537000D02*
X224750000Y-123537000D01*
X226185000Y-123577000D02*
X224919000Y-123577000D01*
X225954000Y-123617000D02*
X225150000Y-123617000D01*
X227391000Y-116875759D02*
X227391000Y-117505759D01*
X227706000Y-117190759D02*
X227076000Y-117190759D01*
X256443241Y-122550000D02*
X256443241Y-121920000D01*
X256758241Y-122235000D02*
X256128241Y-122235000D01*
X250017000Y-120798000D02*
X250017000Y-119994000D01*
X250057000Y-121029000D02*
X250057000Y-119763000D01*
X250097000Y-121198000D02*
X250097000Y-119594000D01*
X250137000Y-121336000D02*
X250137000Y-119456000D01*
X250177000Y-121455000D02*
X250177000Y-119337000D01*
X250217000Y-121561000D02*
X250217000Y-119231000D01*
X250257000Y-121658000D02*
X250257000Y-119134000D01*
X250297000Y-121746000D02*
X250297000Y-119046000D01*
X250337000Y-121828000D02*
X250337000Y-118964000D01*
X250377000Y-121905000D02*
X250377000Y-118887000D01*
X250417000Y-121977000D02*
X250417000Y-118815000D01*
X250457000Y-122046000D02*
X250457000Y-118746000D01*
X250497000Y-122110000D02*
X250497000Y-118682000D01*
X250537000Y-122172000D02*
X250537000Y-118620000D01*
X250577000Y-122230000D02*
X250577000Y-118562000D01*
X250617000Y-122286000D02*
X250617000Y-118506000D01*
X250657000Y-122340000D02*
X250657000Y-118452000D01*
X250697000Y-122391000D02*
X250697000Y-118401000D01*
X250737000Y-122440000D02*
X250737000Y-118352000D01*
X250777000Y-122488000D02*
X250777000Y-118304000D01*
X250817000Y-122533000D02*
X250817000Y-118259000D01*
X250857000Y-122578000D02*
X250857000Y-118214000D01*
X250897000Y-122620000D02*
X250897000Y-118172000D01*
X250937000Y-122661000D02*
X250937000Y-118131000D01*
X250977000Y-119356000D02*
X250977000Y-118091000D01*
X250977000Y-122701000D02*
X250977000Y-121436000D01*
X251017000Y-119356000D02*
X251017000Y-118053000D01*
X251017000Y-122739000D02*
X251017000Y-121436000D01*
X251057000Y-119356000D02*
X251057000Y-118016000D01*
X251057000Y-122776000D02*
X251057000Y-121436000D01*
X251097000Y-119356000D02*
X251097000Y-117980000D01*
X251097000Y-122812000D02*
X251097000Y-121436000D01*
X251137000Y-119356000D02*
X251137000Y-117946000D01*
X251137000Y-122846000D02*
X251137000Y-121436000D01*
X251177000Y-119356000D02*
X251177000Y-117912000D01*
X251177000Y-122880000D02*
X251177000Y-121436000D01*
X251217000Y-119356000D02*
X251217000Y-117880000D01*
X251217000Y-122912000D02*
X251217000Y-121436000D01*
X251257000Y-119356000D02*
X251257000Y-117848000D01*
X251257000Y-122944000D02*
X251257000Y-121436000D01*
X251297000Y-119356000D02*
X251297000Y-117818000D01*
X251297000Y-122974000D02*
X251297000Y-121436000D01*
X251337000Y-119356000D02*
X251337000Y-117789000D01*
X251337000Y-123003000D02*
X251337000Y-121436000D01*
X251377000Y-119356000D02*
X251377000Y-117760000D01*
X251377000Y-123032000D02*
X251377000Y-121436000D01*
X251417000Y-119356000D02*
X251417000Y-117732000D01*
X251417000Y-123060000D02*
X251417000Y-121436000D01*
X251457000Y-119356000D02*
X251457000Y-117706000D01*
X251457000Y-123086000D02*
X251457000Y-121436000D01*
X251497000Y-119356000D02*
X251497000Y-117680000D01*
X251497000Y-123112000D02*
X251497000Y-121436000D01*
X251537000Y-119356000D02*
X251537000Y-117654000D01*
X251537000Y-123138000D02*
X251537000Y-121436000D01*
X251577000Y-119356000D02*
X251577000Y-117630000D01*
X251577000Y-123162000D02*
X251577000Y-121436000D01*
X251617000Y-119356000D02*
X251617000Y-117606000D01*
X251617000Y-123186000D02*
X251617000Y-121436000D01*
X251657000Y-119356000D02*
X251657000Y-117584000D01*
X251657000Y-123208000D02*
X251657000Y-121436000D01*
X251697000Y-119356000D02*
X251697000Y-117562000D01*
X251697000Y-123230000D02*
X251697000Y-121436000D01*
X251737000Y-119356000D02*
X251737000Y-117540000D01*
X251737000Y-123252000D02*
X251737000Y-121436000D01*
X251777000Y-119356000D02*
X251777000Y-117520000D01*
X251777000Y-123272000D02*
X251777000Y-121436000D01*
X251817000Y-119356000D02*
X251817000Y-117500000D01*
X251817000Y-123292000D02*
X251817000Y-121436000D01*
X251857000Y-119356000D02*
X251857000Y-117480000D01*
X251857000Y-123312000D02*
X251857000Y-121436000D01*
X251897000Y-119356000D02*
X251897000Y-117462000D01*
X251897000Y-123330000D02*
X251897000Y-121436000D01*
X251937000Y-119356000D02*
X251937000Y-117444000D01*
X251937000Y-123348000D02*
X251937000Y-121436000D01*
X251977000Y-119356000D02*
X251977000Y-117426000D01*
X251977000Y-123366000D02*
X251977000Y-121436000D01*
X252017000Y-119356000D02*
X252017000Y-117410000D01*
X252017000Y-123382000D02*
X252017000Y-121436000D01*
X252057000Y-119356000D02*
X252057000Y-117394000D01*
X252057000Y-123398000D02*
X252057000Y-121436000D01*
X252097000Y-119356000D02*
X252097000Y-117378000D01*
X252097000Y-123414000D02*
X252097000Y-121436000D01*
X252137000Y-119356000D02*
X252137000Y-117363000D01*
X252137000Y-123429000D02*
X252137000Y-121436000D01*
X252177000Y-119356000D02*
X252177000Y-117349000D01*
X252177000Y-123443000D02*
X252177000Y-121436000D01*
X252217000Y-119356000D02*
X252217000Y-117335000D01*
X252217000Y-123457000D02*
X252217000Y-121436000D01*
X252257000Y-119356000D02*
X252257000Y-117322000D01*
X252257000Y-123470000D02*
X252257000Y-121436000D01*
X252297000Y-119356000D02*
X252297000Y-117310000D01*
X252297000Y-123482000D02*
X252297000Y-121436000D01*
X252337000Y-119356000D02*
X252337000Y-117298000D01*
X252337000Y-123494000D02*
X252337000Y-121436000D01*
X252377000Y-119356000D02*
X252377000Y-117286000D01*
X252377000Y-123506000D02*
X252377000Y-121436000D01*
X252417000Y-119356000D02*
X252417000Y-117275000D01*
X252417000Y-123517000D02*
X252417000Y-121436000D01*
X252457000Y-119356000D02*
X252457000Y-117265000D01*
X252457000Y-123527000D02*
X252457000Y-121436000D01*
X252497000Y-119356000D02*
X252497000Y-117255000D01*
X252497000Y-123537000D02*
X252497000Y-121436000D01*
X252537000Y-119356000D02*
X252537000Y-117246000D01*
X252537000Y-123546000D02*
X252537000Y-121436000D01*
X252578000Y-119356000D02*
X252578000Y-117237000D01*
X252578000Y-123555000D02*
X252578000Y-121436000D01*
X252618000Y-119356000D02*
X252618000Y-117229000D01*
X252618000Y-123563000D02*
X252618000Y-121436000D01*
X252658000Y-119356000D02*
X252658000Y-117221000D01*
X252658000Y-123571000D02*
X252658000Y-121436000D01*
X252698000Y-119356000D02*
X252698000Y-117214000D01*
X252698000Y-123578000D02*
X252698000Y-121436000D01*
X252738000Y-119356000D02*
X252738000Y-117207000D01*
X252738000Y-123585000D02*
X252738000Y-121436000D01*
X252778000Y-119356000D02*
X252778000Y-117201000D01*
X252778000Y-123591000D02*
X252778000Y-121436000D01*
X252818000Y-119356000D02*
X252818000Y-117195000D01*
X252818000Y-123597000D02*
X252818000Y-121436000D01*
X252858000Y-119356000D02*
X252858000Y-117190000D01*
X252858000Y-123602000D02*
X252858000Y-121436000D01*
X252898000Y-119356000D02*
X252898000Y-117185000D01*
X252898000Y-123607000D02*
X252898000Y-121436000D01*
X252938000Y-119356000D02*
X252938000Y-117181000D01*
X252938000Y-123611000D02*
X252938000Y-121436000D01*
X252978000Y-119356000D02*
X252978000Y-117178000D01*
X252978000Y-123614000D02*
X252978000Y-121436000D01*
X253018000Y-119356000D02*
X253018000Y-117174000D01*
X253018000Y-123618000D02*
X253018000Y-121436000D01*
X253058000Y-123620000D02*
X253058000Y-117172000D01*
X253098000Y-123623000D02*
X253098000Y-117169000D01*
X253138000Y-123624000D02*
X253138000Y-117168000D01*
X253178000Y-123626000D02*
X253178000Y-117166000D01*
X253218000Y-123626000D02*
X253218000Y-117166000D01*
X253258000Y-123626000D02*
X253258000Y-117166000D01*
X256528000Y-120396000D02*
G75*
G03X256528000Y-120396000I-3270000J0D01*
G01*
X243552000Y-137804000D02*
X243552000Y-133138000D01*
X243552000Y-129229000D02*
X243552000Y-126214000D01*
X255892000Y-137804000D02*
X255892000Y-133138000D01*
X255892000Y-129229000D02*
X255892000Y-126214000D01*
X243552000Y-137804000D02*
X246351000Y-137804000D01*
X248093000Y-137804000D02*
X248852000Y-137804000D01*
X250593000Y-137804000D02*
X251352000Y-137804000D01*
X253092000Y-137804000D02*
X255892000Y-137804000D01*
X243552000Y-126214000D02*
X255892000Y-126214000D01*
X227872000Y-139724000D02*
X215532000Y-139724000D01*
X218332000Y-128134000D02*
X215532000Y-128134000D01*
X220831000Y-128134000D02*
X220072000Y-128134000D01*
X223331000Y-128134000D02*
X222572000Y-128134000D01*
X227872000Y-128134000D02*
X225073000Y-128134000D01*
X215532000Y-136709000D02*
X215532000Y-139724000D01*
X215532000Y-128134000D02*
X215532000Y-132800000D01*
X227872000Y-136709000D02*
X227872000Y-139724000D01*
X227872000Y-128134000D02*
X227872000Y-132800000D01*
X215924000Y-103664000D02*
X216254000Y-103664000D01*
X216254000Y-103664000D02*
X216254000Y-110204000D01*
X216254000Y-110204000D02*
X215924000Y-110204000D01*
X213844000Y-103664000D02*
X213514000Y-103664000D01*
X213514000Y-103664000D02*
X213514000Y-110204000D01*
X213514000Y-110204000D02*
X213844000Y-110204000D01*
D10*
X239240571Y-138961714D02*
X239288190Y-138818857D01*
X239335809Y-138771238D01*
X239431047Y-138723619D01*
X239573904Y-138723619D01*
X239669142Y-138771238D01*
X239716761Y-138818857D01*
X239764380Y-138914095D01*
X239764380Y-139295047D01*
X238764380Y-139295047D01*
X238764380Y-138961714D01*
X238812000Y-138866476D01*
X238859619Y-138818857D01*
X238954857Y-138771238D01*
X239050095Y-138771238D01*
X239145333Y-138818857D01*
X239192952Y-138866476D01*
X239240571Y-138961714D01*
X239240571Y-139295047D01*
X238764380Y-138437904D02*
X238764380Y-137866476D01*
X239764380Y-138152190D02*
X238764380Y-138152190D01*
X239764380Y-137009333D02*
X239764380Y-137580761D01*
X239764380Y-137295047D02*
X238764380Y-137295047D01*
X238907238Y-137390285D01*
X239002476Y-137485523D01*
X239050095Y-137580761D01*
X235251333Y-119523142D02*
X235203714Y-119570761D01*
X235060857Y-119618380D01*
X234965619Y-119618380D01*
X234822761Y-119570761D01*
X234727523Y-119475523D01*
X234679904Y-119380285D01*
X234632285Y-119189809D01*
X234632285Y-119046952D01*
X234679904Y-118856476D01*
X234727523Y-118761238D01*
X234822761Y-118666000D01*
X234965619Y-118618380D01*
X235060857Y-118618380D01*
X235203714Y-118666000D01*
X235251333Y-118713619D01*
X236203714Y-119618380D02*
X235632285Y-119618380D01*
X235918000Y-119618380D02*
X235918000Y-118618380D01*
X235822761Y-118761238D01*
X235727523Y-118856476D01*
X235632285Y-118904095D01*
X222885333Y-106235142D02*
X222837714Y-106282761D01*
X222694857Y-106330380D01*
X222599619Y-106330380D01*
X222456761Y-106282761D01*
X222361523Y-106187523D01*
X222313904Y-106092285D01*
X222266285Y-105901809D01*
X222266285Y-105758952D01*
X222313904Y-105568476D01*
X222361523Y-105473238D01*
X222456761Y-105378000D01*
X222599619Y-105330380D01*
X222694857Y-105330380D01*
X222837714Y-105378000D01*
X222885333Y-105425619D01*
X223218666Y-105330380D02*
X223837714Y-105330380D01*
X223504380Y-105711333D01*
X223647238Y-105711333D01*
X223742476Y-105758952D01*
X223790095Y-105806571D01*
X223837714Y-105901809D01*
X223837714Y-106139904D01*
X223790095Y-106235142D01*
X223742476Y-106282761D01*
X223647238Y-106330380D01*
X223361523Y-106330380D01*
X223266285Y-106282761D01*
X223218666Y-106235142D01*
X244141333Y-116729142D02*
X244093714Y-116776761D01*
X243950857Y-116824380D01*
X243855619Y-116824380D01*
X243712761Y-116776761D01*
X243617523Y-116681523D01*
X243569904Y-116586285D01*
X243522285Y-116395809D01*
X243522285Y-116252952D01*
X243569904Y-116062476D01*
X243617523Y-115967238D01*
X243712761Y-115872000D01*
X243855619Y-115824380D01*
X243950857Y-115824380D01*
X244093714Y-115872000D01*
X244141333Y-115919619D01*
X245046095Y-115824380D02*
X244569904Y-115824380D01*
X244522285Y-116300571D01*
X244569904Y-116252952D01*
X244665142Y-116205333D01*
X244903238Y-116205333D01*
X244998476Y-116252952D01*
X245046095Y-116300571D01*
X245093714Y-116395809D01*
X245093714Y-116633904D01*
X245046095Y-116729142D01*
X244998476Y-116776761D01*
X244903238Y-116824380D01*
X244665142Y-116824380D01*
X244569904Y-116776761D01*
X244522285Y-116729142D01*
X211248666Y-132250380D02*
X211248666Y-132964666D01*
X211201047Y-133107523D01*
X211105809Y-133202761D01*
X210962952Y-133250380D01*
X210867714Y-133250380D01*
X212248666Y-133250380D02*
X211677238Y-133250380D01*
X211962952Y-133250380D02*
X211962952Y-132250380D01*
X211867714Y-132393238D01*
X211772476Y-132488476D01*
X211677238Y-132536095D01*
X225286380Y-115704857D02*
X225286380Y-116181047D01*
X224286380Y-116181047D01*
X225238761Y-115419142D02*
X225286380Y-115276285D01*
X225286380Y-115038190D01*
X225238761Y-114942952D01*
X225191142Y-114895333D01*
X225095904Y-114847714D01*
X225000666Y-114847714D01*
X224905428Y-114895333D01*
X224857809Y-114942952D01*
X224810190Y-115038190D01*
X224762571Y-115228666D01*
X224714952Y-115323904D01*
X224667333Y-115371523D01*
X224572095Y-115419142D01*
X224476857Y-115419142D01*
X224381619Y-115371523D01*
X224334000Y-115323904D01*
X224286380Y-115228666D01*
X224286380Y-114990571D01*
X224334000Y-114847714D01*
X225286380Y-113895333D02*
X225286380Y-114466761D01*
X225286380Y-114181047D02*
X224286380Y-114181047D01*
X224429238Y-114276285D01*
X224524476Y-114371523D01*
X224572095Y-114466761D01*
X234950095Y-123106380D02*
X234950095Y-123915904D01*
X234997714Y-124011142D01*
X235045333Y-124058761D01*
X235140571Y-124106380D01*
X235331047Y-124106380D01*
X235426285Y-124058761D01*
X235473904Y-124011142D01*
X235521523Y-123915904D01*
X235521523Y-123106380D01*
X236521523Y-124106380D02*
X235950095Y-124106380D01*
X236235809Y-124106380D02*
X236235809Y-123106380D01*
X236140571Y-123249238D01*
X236045333Y-123344476D01*
X235950095Y-123392095D01*
X233894476Y-116260571D02*
X234037333Y-116308190D01*
X234084952Y-116355809D01*
X234132571Y-116451047D01*
X234132571Y-116593904D01*
X234084952Y-116689142D01*
X234037333Y-116736761D01*
X233942095Y-116784380D01*
X233561142Y-116784380D01*
X233561142Y-115784380D01*
X233894476Y-115784380D01*
X233989714Y-115832000D01*
X234037333Y-115879619D01*
X234084952Y-115974857D01*
X234084952Y-116070095D01*
X234037333Y-116165333D01*
X233989714Y-116212952D01*
X233894476Y-116260571D01*
X233561142Y-116260571D01*
X234513523Y-116498666D02*
X234989714Y-116498666D01*
X234418285Y-116784380D02*
X234751619Y-115784380D01*
X235084952Y-116784380D01*
X235370666Y-116736761D02*
X235513523Y-116784380D01*
X235751619Y-116784380D01*
X235846857Y-116736761D01*
X235894476Y-116689142D01*
X235942095Y-116593904D01*
X235942095Y-116498666D01*
X235894476Y-116403428D01*
X235846857Y-116355809D01*
X235751619Y-116308190D01*
X235561142Y-116260571D01*
X235465904Y-116212952D01*
X235418285Y-116165333D01*
X235370666Y-116070095D01*
X235370666Y-115974857D01*
X235418285Y-115879619D01*
X235465904Y-115832000D01*
X235561142Y-115784380D01*
X235799238Y-115784380D01*
X235942095Y-115832000D01*
X236323047Y-116736761D02*
X236465904Y-116784380D01*
X236704000Y-116784380D01*
X236799238Y-116736761D01*
X236846857Y-116689142D01*
X236894476Y-116593904D01*
X236894476Y-116498666D01*
X236846857Y-116403428D01*
X236799238Y-116355809D01*
X236704000Y-116308190D01*
X236513523Y-116260571D01*
X236418285Y-116212952D01*
X236370666Y-116165333D01*
X236323047Y-116070095D01*
X236323047Y-115974857D01*
X236370666Y-115879619D01*
X236418285Y-115832000D01*
X236513523Y-115784380D01*
X236751619Y-115784380D01*
X236894476Y-115832000D01*
X229465142Y-122340666D02*
X229512761Y-122388285D01*
X229560380Y-122531142D01*
X229560380Y-122626380D01*
X229512761Y-122769238D01*
X229417523Y-122864476D01*
X229322285Y-122912095D01*
X229131809Y-122959714D01*
X228988952Y-122959714D01*
X228798476Y-122912095D01*
X228703238Y-122864476D01*
X228608000Y-122769238D01*
X228560380Y-122626380D01*
X228560380Y-122531142D01*
X228608000Y-122388285D01*
X228655619Y-122340666D01*
X228655619Y-121959714D02*
X228608000Y-121912095D01*
X228560380Y-121816857D01*
X228560380Y-121578761D01*
X228608000Y-121483523D01*
X228655619Y-121435904D01*
X228750857Y-121388285D01*
X228846095Y-121388285D01*
X228988952Y-121435904D01*
X229560380Y-122007333D01*
X229560380Y-121388285D01*
X253091333Y-125153142D02*
X253043714Y-125200761D01*
X252900857Y-125248380D01*
X252805619Y-125248380D01*
X252662761Y-125200761D01*
X252567523Y-125105523D01*
X252519904Y-125010285D01*
X252472285Y-124819809D01*
X252472285Y-124676952D01*
X252519904Y-124486476D01*
X252567523Y-124391238D01*
X252662761Y-124296000D01*
X252805619Y-124248380D01*
X252900857Y-124248380D01*
X253043714Y-124296000D01*
X253091333Y-124343619D01*
X253948476Y-124581714D02*
X253948476Y-125248380D01*
X253710380Y-124200761D02*
X253472285Y-124915047D01*
X254091333Y-124915047D01*
X249007428Y-124468000D02*
X248912190Y-124420380D01*
X248769333Y-124420380D01*
X248626476Y-124468000D01*
X248531238Y-124563238D01*
X248483619Y-124658476D01*
X248436000Y-124848952D01*
X248436000Y-124991809D01*
X248483619Y-125182285D01*
X248531238Y-125277523D01*
X248626476Y-125372761D01*
X248769333Y-125420380D01*
X248864571Y-125420380D01*
X249007428Y-125372761D01*
X249055047Y-125325142D01*
X249055047Y-124991809D01*
X248864571Y-124991809D01*
X249436000Y-125134666D02*
X249912190Y-125134666D01*
X249340761Y-125420380D02*
X249674095Y-124420380D01*
X250007428Y-125420380D01*
X250340761Y-125420380D02*
X250340761Y-124420380D01*
X250816952Y-125420380D02*
X250816952Y-124420380D01*
X251388380Y-125420380D01*
X251388380Y-124420380D01*
X218678476Y-140422380D02*
X219011809Y-141422380D01*
X219345142Y-140422380D01*
X219868952Y-140422380D02*
X220059428Y-140422380D01*
X220154666Y-140470000D01*
X220249904Y-140565238D01*
X220297523Y-140755714D01*
X220297523Y-141089047D01*
X220249904Y-141279523D01*
X220154666Y-141374761D01*
X220059428Y-141422380D01*
X219868952Y-141422380D01*
X219773714Y-141374761D01*
X219678476Y-141279523D01*
X219630857Y-141089047D01*
X219630857Y-140755714D01*
X219678476Y-140565238D01*
X219773714Y-140470000D01*
X219868952Y-140422380D01*
X221202285Y-141422380D02*
X220726095Y-141422380D01*
X220726095Y-140422380D01*
X221535619Y-140422380D02*
X221535619Y-141231904D01*
X221583238Y-141327142D01*
X221630857Y-141374761D01*
X221726095Y-141422380D01*
X221916571Y-141422380D01*
X222011809Y-141374761D01*
X222059428Y-141327142D01*
X222107047Y-141231904D01*
X222107047Y-140422380D01*
X222583238Y-141422380D02*
X222583238Y-140422380D01*
X222916571Y-141136666D01*
X223249904Y-140422380D01*
X223249904Y-141422380D01*
X223726095Y-140898571D02*
X224059428Y-140898571D01*
X224202285Y-141422380D02*
X223726095Y-141422380D01*
X223726095Y-140422380D01*
X224202285Y-140422380D01*
X217706380Y-107100666D02*
X217230190Y-107434000D01*
X217706380Y-107672095D02*
X216706380Y-107672095D01*
X216706380Y-107291142D01*
X216754000Y-107195904D01*
X216801619Y-107148285D01*
X216896857Y-107100666D01*
X217039714Y-107100666D01*
X217134952Y-107148285D01*
X217182571Y-107195904D01*
X217230190Y-107291142D01*
X217230190Y-107672095D01*
X217706380Y-106148285D02*
X217706380Y-106719714D01*
X217706380Y-106434000D02*
X216706380Y-106434000D01*
X216849238Y-106529238D01*
X216944476Y-106624476D01*
X216992095Y-106719714D01*
M02*
