G04 #@! TF.GenerationSoftware,KiCad,Pcbnew,5.1.5-52549c5~84~ubuntu18.04.1*
G04 #@! TF.CreationDate,2020-03-24T22:40:52-05:00*
G04 #@! TF.ProjectId,lm386-guitaramp,6c6d3338-362d-4677-9569-746172616d70,rev?*
G04 #@! TF.SameCoordinates,Original*
G04 #@! TF.FileFunction,Copper,L2,Bot*
G04 #@! TF.FilePolarity,Positive*
%FSLAX46Y46*%
G04 Gerber Fmt 4.6, Leading zero omitted, Abs format (unit mm)*
G04 Created by KiCad (PCBNEW 5.1.5-52549c5~84~ubuntu18.04.1) date 2020-03-24 22:40:52*
%MOMM*%
%LPD*%
G04 APERTURE LIST*
%ADD10R,1.700000X1.700000*%
%ADD11O,1.700000X1.700000*%
%ADD12C,1.600000*%
%ADD13R,1.600000X1.600000*%
%ADD14O,1.600000X1.600000*%
%ADD15C,1.800000*%
%ADD16C,4.000000*%
%ADD17C,0.250000*%
%ADD18C,1.000000*%
%ADD19C,0.254000*%
G04 APERTURE END LIST*
D10*
X236982000Y-138176000D03*
D11*
X234442000Y-138176000D03*
D12*
X237918000Y-121666000D03*
X232918000Y-121666000D03*
X225552000Y-103378000D03*
X220552000Y-103378000D03*
X241808000Y-118872000D03*
X246808000Y-118872000D03*
D10*
X211582000Y-135128000D03*
D11*
X211582000Y-137668000D03*
X219964000Y-115062000D03*
D10*
X222504000Y-115062000D03*
D13*
X231902000Y-125984000D03*
D14*
X239522000Y-133604000D03*
X231902000Y-128524000D03*
X239522000Y-131064000D03*
X231902000Y-131064000D03*
X239522000Y-128524000D03*
X231902000Y-133604000D03*
X239522000Y-125984000D03*
D15*
X237664000Y-102870000D03*
X235164000Y-102870000D03*
X232664000Y-102870000D03*
D16*
X239914000Y-110370000D03*
X230414000Y-110370000D03*
D13*
X225552000Y-119126000D03*
D12*
X225552000Y-121626000D03*
X252008000Y-120396000D03*
D13*
X254508000Y-120396000D03*
D15*
X247222000Y-138684000D03*
X249722000Y-138684000D03*
X252222000Y-138684000D03*
D16*
X244972000Y-131184000D03*
X254472000Y-131184000D03*
X216952000Y-134754000D03*
X226452000Y-134754000D03*
D15*
X219202000Y-127254000D03*
X221702000Y-127254000D03*
X224202000Y-127254000D03*
D12*
X214884000Y-103124000D03*
D14*
X214884000Y-110744000D03*
D17*
X239522000Y-131064000D02*
X239006600Y-132051400D01*
X239006600Y-132051400D02*
X238622700Y-132739400D01*
X238622700Y-132739400D02*
X238412200Y-133143400D01*
X238412200Y-133143400D02*
X238396000Y-133199100D01*
X238396000Y-133199100D02*
X237678600Y-135926000D01*
X237678600Y-135926000D02*
X236982000Y-138176000D01*
X231902000Y-133604000D02*
X231902000Y-132478700D01*
X231902000Y-128524000D02*
X231902000Y-129649300D01*
X232918000Y-121666000D02*
X232924300Y-122714400D01*
X232924300Y-122714400D02*
X233027300Y-125105100D01*
X233027300Y-125105100D02*
X233027300Y-126857200D01*
X233027300Y-126857200D02*
X233025500Y-126866200D01*
X233025500Y-126866200D02*
X233008600Y-126921800D01*
X233008600Y-126921800D02*
X232977300Y-126968800D01*
X232977300Y-126968800D02*
X232459200Y-127685200D01*
X232459200Y-127685200D02*
X231902000Y-128524000D01*
X231902000Y-129649300D02*
X231481600Y-129922500D01*
X231481600Y-129922500D02*
X231392900Y-129984100D01*
X231392900Y-129984100D02*
X231350800Y-130017500D01*
X231350800Y-130017500D02*
X231311300Y-130053100D01*
X231311300Y-130053100D02*
X230832800Y-130541500D01*
X230832800Y-130541500D02*
X230812400Y-130568300D01*
X230812400Y-130568300D02*
X230796900Y-130595200D01*
X230796900Y-130595200D02*
X230784500Y-130625100D01*
X230784500Y-130625100D02*
X230776700Y-130664300D01*
X230776700Y-130664300D02*
X230776700Y-131459100D01*
X230776700Y-131459100D02*
X230785300Y-131502100D01*
X230785300Y-131502100D02*
X230804700Y-131549000D01*
X230804700Y-131549000D02*
X230838500Y-131594300D01*
X230838500Y-131594300D02*
X231060100Y-131823600D01*
X231060100Y-131823600D02*
X231375500Y-132129900D01*
X231375500Y-132129900D02*
X231403300Y-132152100D01*
X231403300Y-132152100D02*
X231902000Y-132478700D01*
D18*
X215646000Y-110744000D02*
X219964000Y-115062000D01*
X214884000Y-110744000D02*
X215646000Y-110744000D01*
X219202000Y-127254000D02*
X213106000Y-127254000D01*
X211582000Y-128778000D02*
X211582000Y-135128000D01*
X213106000Y-127254000D02*
X211582000Y-128778000D01*
D17*
X239522000Y-128524000D02*
X239200900Y-127895900D01*
X239200900Y-127895900D02*
X238639100Y-126885800D01*
X238639100Y-126885800D02*
X238418600Y-126458100D01*
X238418600Y-126458100D02*
X238403800Y-126421200D01*
X238403800Y-126421200D02*
X238395300Y-126365700D01*
X238395300Y-126365700D02*
X238369700Y-126034400D01*
X238369700Y-126034400D02*
X237918000Y-121666000D01*
X239522000Y-133604000D02*
X239989200Y-132683300D01*
X239989200Y-132683300D02*
X240613500Y-131564600D01*
X240613500Y-131564600D02*
X240638900Y-131503400D01*
X240638900Y-131503400D02*
X240647400Y-131460600D01*
X240647400Y-131460600D02*
X241539300Y-121190700D01*
X241539300Y-121190700D02*
X241808000Y-118872000D01*
D18*
X222504000Y-116912000D02*
X222504000Y-115062000D01*
X222504000Y-119709370D02*
X222504000Y-116912000D01*
X224420630Y-121626000D02*
X222504000Y-119709370D01*
X225552000Y-121626000D02*
X224420630Y-121626000D01*
X252222000Y-137411208D02*
X248920000Y-134109208D01*
X252222000Y-138684000D02*
X252222000Y-137411208D01*
X248920000Y-134109208D02*
X248920000Y-129032000D01*
X254508000Y-123444000D02*
X254508000Y-120396000D01*
X248920000Y-129032000D02*
X254508000Y-123444000D01*
X212431999Y-138517999D02*
X218606001Y-138517999D01*
X211582000Y-137668000D02*
X212431999Y-138517999D01*
X224202000Y-132922000D02*
X224202000Y-127254000D01*
X218606001Y-138517999D02*
X224202000Y-132922000D01*
X246808000Y-118872000D02*
X246808000Y-108124000D01*
X246808000Y-108124000D02*
X244348000Y-105664000D01*
X237958000Y-105664000D02*
X235164000Y-102870000D01*
X244348000Y-105664000D02*
X237958000Y-105664000D01*
X233563999Y-103769999D02*
X233563999Y-115940001D01*
X232664000Y-102870000D02*
X233563999Y-103769999D01*
X233563999Y-115940001D02*
X230124000Y-119380000D01*
X231902000Y-124184000D02*
X231902000Y-125984000D01*
X230124000Y-122406000D02*
X231902000Y-124184000D01*
X230124000Y-119380000D02*
X230124000Y-122406000D01*
D19*
G36*
X258420000Y-141580000D02*
G01*
X203860000Y-141580000D01*
X203860000Y-135978000D01*
X210093928Y-135978000D01*
X210106188Y-136102482D01*
X210142498Y-136222180D01*
X210201463Y-136332494D01*
X210280815Y-136429185D01*
X210377506Y-136508537D01*
X210487820Y-136567502D01*
X210560380Y-136589513D01*
X210428525Y-136721368D01*
X210266010Y-136964589D01*
X210154068Y-137234842D01*
X210097000Y-137521740D01*
X210097000Y-137814260D01*
X210154068Y-138101158D01*
X210266010Y-138371411D01*
X210428525Y-138614632D01*
X210635368Y-138821475D01*
X210878589Y-138983990D01*
X211148842Y-139095932D01*
X211435740Y-139153000D01*
X211461868Y-139153000D01*
X211590007Y-139281139D01*
X211625550Y-139324448D01*
X211798376Y-139466283D01*
X211995552Y-139571675D01*
X212159704Y-139621470D01*
X212209499Y-139636576D01*
X212431998Y-139658490D01*
X212487750Y-139652999D01*
X218550250Y-139652999D01*
X218606001Y-139658490D01*
X218661752Y-139652999D01*
X218661753Y-139652999D01*
X218828500Y-139636576D01*
X219042448Y-139571675D01*
X219239624Y-139466283D01*
X219412450Y-139324448D01*
X219447997Y-139281134D01*
X220196240Y-138532891D01*
X233000519Y-138532891D01*
X233097843Y-138807252D01*
X233246822Y-139057355D01*
X233441731Y-139273588D01*
X233675080Y-139447641D01*
X233937901Y-139572825D01*
X234085110Y-139617476D01*
X234315000Y-139496155D01*
X234315000Y-138303000D01*
X233121186Y-138303000D01*
X233000519Y-138532891D01*
X220196240Y-138532891D01*
X220910022Y-137819109D01*
X233000519Y-137819109D01*
X233121186Y-138049000D01*
X234315000Y-138049000D01*
X234315000Y-136855845D01*
X234569000Y-136855845D01*
X234569000Y-138049000D01*
X234589000Y-138049000D01*
X234589000Y-138303000D01*
X234569000Y-138303000D01*
X234569000Y-139496155D01*
X234798890Y-139617476D01*
X234946099Y-139572825D01*
X235208920Y-139447641D01*
X235442269Y-139273588D01*
X235518034Y-139189534D01*
X235542498Y-139270180D01*
X235601463Y-139380494D01*
X235680815Y-139477185D01*
X235777506Y-139556537D01*
X235887820Y-139615502D01*
X236007518Y-139651812D01*
X236132000Y-139664072D01*
X237832000Y-139664072D01*
X237956482Y-139651812D01*
X238076180Y-139615502D01*
X238186494Y-139556537D01*
X238283185Y-139477185D01*
X238362537Y-139380494D01*
X238421502Y-139270180D01*
X238457812Y-139150482D01*
X238470072Y-139026000D01*
X238470072Y-138532816D01*
X245687000Y-138532816D01*
X245687000Y-138835184D01*
X245745989Y-139131743D01*
X245861701Y-139411095D01*
X246029688Y-139662505D01*
X246243495Y-139876312D01*
X246494905Y-140044299D01*
X246774257Y-140160011D01*
X247070816Y-140219000D01*
X247373184Y-140219000D01*
X247669743Y-140160011D01*
X247949095Y-140044299D01*
X248200505Y-139876312D01*
X248414312Y-139662505D01*
X248472000Y-139576169D01*
X248529688Y-139662505D01*
X248743495Y-139876312D01*
X248994905Y-140044299D01*
X249274257Y-140160011D01*
X249570816Y-140219000D01*
X249873184Y-140219000D01*
X250169743Y-140160011D01*
X250449095Y-140044299D01*
X250700505Y-139876312D01*
X250914312Y-139662505D01*
X250972000Y-139576169D01*
X251029688Y-139662505D01*
X251243495Y-139876312D01*
X251494905Y-140044299D01*
X251774257Y-140160011D01*
X252070816Y-140219000D01*
X252373184Y-140219000D01*
X252669743Y-140160011D01*
X252949095Y-140044299D01*
X253200505Y-139876312D01*
X253414312Y-139662505D01*
X253582299Y-139411095D01*
X253698011Y-139131743D01*
X253757000Y-138835184D01*
X253757000Y-138532816D01*
X253698011Y-138236257D01*
X253582299Y-137956905D01*
X253414312Y-137705495D01*
X253357000Y-137648183D01*
X253357000Y-137466951D01*
X253362490Y-137411207D01*
X253357000Y-137355463D01*
X253357000Y-137355456D01*
X253340577Y-137188709D01*
X253275676Y-136974761D01*
X253170284Y-136777585D01*
X253028449Y-136604759D01*
X252985141Y-136569217D01*
X250055000Y-133639077D01*
X250055000Y-130924475D01*
X251837000Y-130924475D01*
X251837000Y-131443525D01*
X251938261Y-131952601D01*
X252136893Y-132432141D01*
X252425262Y-132863715D01*
X252792285Y-133230738D01*
X253223859Y-133519107D01*
X253703399Y-133717739D01*
X254212475Y-133819000D01*
X254731525Y-133819000D01*
X255240601Y-133717739D01*
X255720141Y-133519107D01*
X256151715Y-133230738D01*
X256518738Y-132863715D01*
X256807107Y-132432141D01*
X257005739Y-131952601D01*
X257107000Y-131443525D01*
X257107000Y-130924475D01*
X257005739Y-130415399D01*
X256807107Y-129935859D01*
X256518738Y-129504285D01*
X256151715Y-129137262D01*
X255720141Y-128848893D01*
X255240601Y-128650261D01*
X254731525Y-128549000D01*
X254212475Y-128549000D01*
X253703399Y-128650261D01*
X253223859Y-128848893D01*
X252792285Y-129137262D01*
X252425262Y-129504285D01*
X252136893Y-129935859D01*
X251938261Y-130415399D01*
X251837000Y-130924475D01*
X250055000Y-130924475D01*
X250055000Y-129502131D01*
X255271141Y-124285991D01*
X255314449Y-124250449D01*
X255456284Y-124077623D01*
X255561676Y-123880447D01*
X255626577Y-123666499D01*
X255643000Y-123499752D01*
X255643000Y-123499743D01*
X255648490Y-123444001D01*
X255643000Y-123388259D01*
X255643000Y-121736957D01*
X255662494Y-121726537D01*
X255759185Y-121647185D01*
X255838537Y-121550494D01*
X255897502Y-121440180D01*
X255933812Y-121320482D01*
X255946072Y-121196000D01*
X255946072Y-119596000D01*
X255933812Y-119471518D01*
X255897502Y-119351820D01*
X255838537Y-119241506D01*
X255759185Y-119144815D01*
X255662494Y-119065463D01*
X255552180Y-119006498D01*
X255432482Y-118970188D01*
X255308000Y-118957928D01*
X253708000Y-118957928D01*
X253583518Y-118970188D01*
X253463820Y-119006498D01*
X253353506Y-119065463D01*
X253256815Y-119144815D01*
X253177463Y-119241506D01*
X253118498Y-119351820D01*
X253089339Y-119447943D01*
X252922759Y-119281363D01*
X252687727Y-119124320D01*
X252426574Y-119016147D01*
X252149335Y-118961000D01*
X251866665Y-118961000D01*
X251589426Y-119016147D01*
X251328273Y-119124320D01*
X251093241Y-119281363D01*
X250893363Y-119481241D01*
X250736320Y-119716273D01*
X250628147Y-119977426D01*
X250573000Y-120254665D01*
X250573000Y-120537335D01*
X250628147Y-120814574D01*
X250736320Y-121075727D01*
X250893363Y-121310759D01*
X251093241Y-121510637D01*
X251328273Y-121667680D01*
X251589426Y-121775853D01*
X251866665Y-121831000D01*
X252149335Y-121831000D01*
X252426574Y-121775853D01*
X252687727Y-121667680D01*
X252922759Y-121510637D01*
X253089339Y-121344057D01*
X253118498Y-121440180D01*
X253177463Y-121550494D01*
X253256815Y-121647185D01*
X253353506Y-121726537D01*
X253373001Y-121736957D01*
X253373000Y-122973868D01*
X248156860Y-128190009D01*
X248113552Y-128225551D01*
X247971717Y-128398377D01*
X247937146Y-128463056D01*
X247866324Y-128595554D01*
X247801423Y-128809502D01*
X247779509Y-129032000D01*
X247785001Y-129087761D01*
X247785000Y-134053456D01*
X247779509Y-134109208D01*
X247785000Y-134164959D01*
X247801423Y-134331706D01*
X247866324Y-134545654D01*
X247971716Y-134742831D01*
X248113551Y-134915657D01*
X248156865Y-134951204D01*
X250690992Y-137485331D01*
X250449095Y-137323701D01*
X250169743Y-137207989D01*
X249873184Y-137149000D01*
X249570816Y-137149000D01*
X249274257Y-137207989D01*
X248994905Y-137323701D01*
X248743495Y-137491688D01*
X248529688Y-137705495D01*
X248472000Y-137791831D01*
X248414312Y-137705495D01*
X248200505Y-137491688D01*
X247949095Y-137323701D01*
X247669743Y-137207989D01*
X247373184Y-137149000D01*
X247070816Y-137149000D01*
X246774257Y-137207989D01*
X246494905Y-137323701D01*
X246243495Y-137491688D01*
X246029688Y-137705495D01*
X245861701Y-137956905D01*
X245745989Y-138236257D01*
X245687000Y-138532816D01*
X238470072Y-138532816D01*
X238470072Y-137326000D01*
X238457812Y-137201518D01*
X238421502Y-137081820D01*
X238362537Y-136971506D01*
X238283185Y-136874815D01*
X238201254Y-136807576D01*
X238398405Y-136170786D01*
X238404091Y-136155467D01*
X238409427Y-136135185D01*
X238415643Y-136115107D01*
X238418929Y-136099066D01*
X238755954Y-134818004D01*
X238842273Y-134875680D01*
X239103426Y-134983853D01*
X239380665Y-135039000D01*
X239663335Y-135039000D01*
X239940574Y-134983853D01*
X240201727Y-134875680D01*
X240436759Y-134718637D01*
X240636637Y-134518759D01*
X240793680Y-134283727D01*
X240901853Y-134022574D01*
X240957000Y-133745335D01*
X240957000Y-133462665D01*
X240901853Y-133185426D01*
X240793680Y-132924273D01*
X240756287Y-132868310D01*
X241243936Y-131994480D01*
X241248177Y-131989319D01*
X241280369Y-131929194D01*
X241295345Y-131902358D01*
X241297997Y-131896269D01*
X241301134Y-131890411D01*
X241312916Y-131862022D01*
X241330384Y-131821924D01*
X241344533Y-131795433D01*
X241366260Y-131723731D01*
X241387798Y-131652909D01*
X241391398Y-131616618D01*
X241393661Y-131604511D01*
X241400113Y-131572025D01*
X241400532Y-131567758D01*
X241401319Y-131563548D01*
X241404181Y-131530594D01*
X241411076Y-131460369D01*
X241410652Y-131456079D01*
X241456819Y-130924475D01*
X242337000Y-130924475D01*
X242337000Y-131443525D01*
X242438261Y-131952601D01*
X242636893Y-132432141D01*
X242925262Y-132863715D01*
X243292285Y-133230738D01*
X243723859Y-133519107D01*
X244203399Y-133717739D01*
X244712475Y-133819000D01*
X245231525Y-133819000D01*
X245740601Y-133717739D01*
X246220141Y-133519107D01*
X246651715Y-133230738D01*
X247018738Y-132863715D01*
X247307107Y-132432141D01*
X247505739Y-131952601D01*
X247607000Y-131443525D01*
X247607000Y-130924475D01*
X247505739Y-130415399D01*
X247307107Y-129935859D01*
X247018738Y-129504285D01*
X246651715Y-129137262D01*
X246220141Y-128848893D01*
X245740601Y-128650261D01*
X245231525Y-128549000D01*
X244712475Y-128549000D01*
X244203399Y-128650261D01*
X243723859Y-128848893D01*
X243292285Y-129137262D01*
X242925262Y-129504285D01*
X242636893Y-129935859D01*
X242438261Y-130415399D01*
X242337000Y-130924475D01*
X241456819Y-130924475D01*
X242295506Y-121267331D01*
X242422592Y-120170660D01*
X242487727Y-120143680D01*
X242722759Y-119986637D01*
X242922637Y-119786759D01*
X243079680Y-119551727D01*
X243187853Y-119290574D01*
X243243000Y-119013335D01*
X243243000Y-118730665D01*
X243187853Y-118453426D01*
X243079680Y-118192273D01*
X242922637Y-117957241D01*
X242722759Y-117757363D01*
X242487727Y-117600320D01*
X242226574Y-117492147D01*
X241949335Y-117437000D01*
X241666665Y-117437000D01*
X241389426Y-117492147D01*
X241128273Y-117600320D01*
X240893241Y-117757363D01*
X240693363Y-117957241D01*
X240536320Y-118192273D01*
X240428147Y-118453426D01*
X240373000Y-118730665D01*
X240373000Y-119013335D01*
X240428147Y-119290574D01*
X240536320Y-119551727D01*
X240693363Y-119786759D01*
X240893241Y-119986637D01*
X240912272Y-119999353D01*
X240787392Y-121076982D01*
X240785379Y-121087752D01*
X240783090Y-121114109D01*
X240780055Y-121140299D01*
X240779867Y-121151218D01*
X240455347Y-124887951D01*
X240436759Y-124869363D01*
X240201727Y-124712320D01*
X239940574Y-124604147D01*
X239663335Y-124549000D01*
X239380665Y-124549000D01*
X239103426Y-124604147D01*
X238990690Y-124650844D01*
X238799598Y-122802794D01*
X238832759Y-122780637D01*
X239032637Y-122580759D01*
X239189680Y-122345727D01*
X239297853Y-122084574D01*
X239353000Y-121807335D01*
X239353000Y-121524665D01*
X239297853Y-121247426D01*
X239189680Y-120986273D01*
X239032637Y-120751241D01*
X238832759Y-120551363D01*
X238597727Y-120394320D01*
X238336574Y-120286147D01*
X238059335Y-120231000D01*
X237776665Y-120231000D01*
X237499426Y-120286147D01*
X237238273Y-120394320D01*
X237003241Y-120551363D01*
X236803363Y-120751241D01*
X236646320Y-120986273D01*
X236538147Y-121247426D01*
X236483000Y-121524665D01*
X236483000Y-121807335D01*
X236538147Y-122084574D01*
X236646320Y-122345727D01*
X236803363Y-122580759D01*
X237003241Y-122780637D01*
X237238273Y-122937680D01*
X237287553Y-122958092D01*
X237612718Y-126102768D01*
X237636877Y-126415414D01*
X237638408Y-126443852D01*
X237639753Y-126452632D01*
X237640436Y-126461474D01*
X237645397Y-126489485D01*
X237648817Y-126511814D01*
X237653168Y-126561743D01*
X237670571Y-126621527D01*
X237685985Y-126681858D01*
X237707627Y-126727065D01*
X237712730Y-126739789D01*
X237725982Y-126773176D01*
X237726611Y-126774396D01*
X237727120Y-126775665D01*
X237743642Y-126807430D01*
X237951992Y-127211564D01*
X237956772Y-127222580D01*
X237969079Y-127244707D01*
X237980696Y-127267241D01*
X237987226Y-127277336D01*
X238278822Y-127801617D01*
X238250320Y-127844273D01*
X238142147Y-128105426D01*
X238087000Y-128382665D01*
X238087000Y-128665335D01*
X238142147Y-128942574D01*
X238250320Y-129203727D01*
X238407363Y-129438759D01*
X238607241Y-129638637D01*
X238839759Y-129794000D01*
X238607241Y-129949363D01*
X238407363Y-130149241D01*
X238250320Y-130384273D01*
X238142147Y-130645426D01*
X238087000Y-130922665D01*
X238087000Y-131205335D01*
X238142147Y-131482574D01*
X238250320Y-131743727D01*
X238281735Y-131790743D01*
X237971913Y-132345987D01*
X237965953Y-132355113D01*
X237953723Y-132378586D01*
X237940838Y-132401677D01*
X237936490Y-132411660D01*
X237755286Y-132759433D01*
X237734606Y-132791167D01*
X237706785Y-132860578D01*
X237679112Y-132929429D01*
X237672627Y-132963927D01*
X237670509Y-132969633D01*
X237663508Y-132996243D01*
X237655813Y-133022702D01*
X237654008Y-133032355D01*
X236947770Y-135716827D01*
X236647117Y-136687928D01*
X236132000Y-136687928D01*
X236007518Y-136700188D01*
X235887820Y-136736498D01*
X235777506Y-136795463D01*
X235680815Y-136874815D01*
X235601463Y-136971506D01*
X235542498Y-137081820D01*
X235518034Y-137162466D01*
X235442269Y-137078412D01*
X235208920Y-136904359D01*
X234946099Y-136779175D01*
X234798890Y-136734524D01*
X234569000Y-136855845D01*
X234315000Y-136855845D01*
X234085110Y-136734524D01*
X233937901Y-136779175D01*
X233675080Y-136904359D01*
X233441731Y-137078412D01*
X233246822Y-137294645D01*
X233097843Y-137544748D01*
X233000519Y-137819109D01*
X220910022Y-137819109D01*
X223817000Y-134912133D01*
X223817000Y-135013525D01*
X223918261Y-135522601D01*
X224116893Y-136002141D01*
X224405262Y-136433715D01*
X224772285Y-136800738D01*
X225203859Y-137089107D01*
X225683399Y-137287739D01*
X226192475Y-137389000D01*
X226711525Y-137389000D01*
X227220601Y-137287739D01*
X227700141Y-137089107D01*
X228131715Y-136800738D01*
X228498738Y-136433715D01*
X228787107Y-136002141D01*
X228985739Y-135522601D01*
X229087000Y-135013525D01*
X229087000Y-134494475D01*
X228985739Y-133985399D01*
X228972336Y-133953039D01*
X230510096Y-133953039D01*
X230550754Y-134087087D01*
X230670963Y-134341420D01*
X230838481Y-134567414D01*
X231046869Y-134756385D01*
X231288119Y-134901070D01*
X231552960Y-134995909D01*
X231775000Y-134874624D01*
X231775000Y-133731000D01*
X232029000Y-133731000D01*
X232029000Y-134874624D01*
X232251040Y-134995909D01*
X232515881Y-134901070D01*
X232757131Y-134756385D01*
X232965519Y-134567414D01*
X233133037Y-134341420D01*
X233253246Y-134087087D01*
X233293904Y-133953039D01*
X233171915Y-133731000D01*
X232029000Y-133731000D01*
X231775000Y-133731000D01*
X230632085Y-133731000D01*
X230510096Y-133953039D01*
X228972336Y-133953039D01*
X228787107Y-133505859D01*
X228498738Y-133074285D01*
X228131715Y-132707262D01*
X227700141Y-132418893D01*
X227220601Y-132220261D01*
X226711525Y-132119000D01*
X226192475Y-132119000D01*
X225683399Y-132220261D01*
X225337000Y-132363744D01*
X225337000Y-130922665D01*
X230467000Y-130922665D01*
X230467000Y-131205335D01*
X230522147Y-131482574D01*
X230630320Y-131743727D01*
X230787363Y-131978759D01*
X230987241Y-132178637D01*
X231222273Y-132335680D01*
X231232865Y-132340067D01*
X231046869Y-132451615D01*
X230838481Y-132640586D01*
X230670963Y-132866580D01*
X230550754Y-133120913D01*
X230510096Y-133254961D01*
X230632085Y-133477000D01*
X231775000Y-133477000D01*
X231775000Y-133457000D01*
X232029000Y-133457000D01*
X232029000Y-133477000D01*
X233171915Y-133477000D01*
X233293904Y-133254961D01*
X233253246Y-133120913D01*
X233133037Y-132866580D01*
X232965519Y-132640586D01*
X232757131Y-132451615D01*
X232571135Y-132340067D01*
X232581727Y-132335680D01*
X232816759Y-132178637D01*
X233016637Y-131978759D01*
X233173680Y-131743727D01*
X233281853Y-131482574D01*
X233337000Y-131205335D01*
X233337000Y-130922665D01*
X233281853Y-130645426D01*
X233173680Y-130384273D01*
X233016637Y-130149241D01*
X232816759Y-129949363D01*
X232581727Y-129792320D01*
X232571135Y-129787933D01*
X232757131Y-129676385D01*
X232965519Y-129487414D01*
X233133037Y-129261420D01*
X233253246Y-129007087D01*
X233293904Y-128873039D01*
X233171915Y-128651000D01*
X232029000Y-128651000D01*
X232029000Y-128671000D01*
X231775000Y-128671000D01*
X231775000Y-128651000D01*
X230632085Y-128651000D01*
X230510096Y-128873039D01*
X230550754Y-129007087D01*
X230670963Y-129261420D01*
X230838481Y-129487414D01*
X231046869Y-129676385D01*
X231232865Y-129787933D01*
X231222273Y-129792320D01*
X230987241Y-129949363D01*
X230787363Y-130149241D01*
X230630320Y-130384273D01*
X230522147Y-130645426D01*
X230467000Y-130922665D01*
X225337000Y-130922665D01*
X225337000Y-128289817D01*
X225394312Y-128232505D01*
X225562299Y-127981095D01*
X225678011Y-127701743D01*
X225737000Y-127405184D01*
X225737000Y-127102816D01*
X225678011Y-126806257D01*
X225562299Y-126526905D01*
X225394312Y-126275495D01*
X225180505Y-126061688D01*
X224929095Y-125893701D01*
X224649743Y-125777989D01*
X224353184Y-125719000D01*
X224050816Y-125719000D01*
X223754257Y-125777989D01*
X223474905Y-125893701D01*
X223223495Y-126061688D01*
X223009688Y-126275495D01*
X222952000Y-126361831D01*
X222894312Y-126275495D01*
X222680505Y-126061688D01*
X222429095Y-125893701D01*
X222149743Y-125777989D01*
X221853184Y-125719000D01*
X221550816Y-125719000D01*
X221254257Y-125777989D01*
X220974905Y-125893701D01*
X220723495Y-126061688D01*
X220509688Y-126275495D01*
X220414262Y-126418310D01*
X220266080Y-126369525D01*
X219381605Y-127254000D01*
X220266080Y-128138475D01*
X220414262Y-128089690D01*
X220509688Y-128232505D01*
X220723495Y-128446312D01*
X220974905Y-128614299D01*
X221254257Y-128730011D01*
X221550816Y-128789000D01*
X221853184Y-128789000D01*
X222149743Y-128730011D01*
X222429095Y-128614299D01*
X222680505Y-128446312D01*
X222894312Y-128232505D01*
X222952000Y-128146169D01*
X223009688Y-128232505D01*
X223067001Y-128289818D01*
X223067000Y-132451867D01*
X218135870Y-137382999D01*
X217241694Y-137382999D01*
X217720601Y-137287739D01*
X218200141Y-137089107D01*
X218631715Y-136800738D01*
X218998738Y-136433715D01*
X219287107Y-136002141D01*
X219485739Y-135522601D01*
X219587000Y-135013525D01*
X219587000Y-134494475D01*
X219485739Y-133985399D01*
X219287107Y-133505859D01*
X218998738Y-133074285D01*
X218631715Y-132707262D01*
X218200141Y-132418893D01*
X217720601Y-132220261D01*
X217211525Y-132119000D01*
X216692475Y-132119000D01*
X216183399Y-132220261D01*
X215703859Y-132418893D01*
X215272285Y-132707262D01*
X214905262Y-133074285D01*
X214616893Y-133505859D01*
X214418261Y-133985399D01*
X214317000Y-134494475D01*
X214317000Y-135013525D01*
X214418261Y-135522601D01*
X214616893Y-136002141D01*
X214905262Y-136433715D01*
X215272285Y-136800738D01*
X215703859Y-137089107D01*
X216183399Y-137287739D01*
X216662306Y-137382999D01*
X213039402Y-137382999D01*
X213009932Y-137234842D01*
X212897990Y-136964589D01*
X212735475Y-136721368D01*
X212603620Y-136589513D01*
X212676180Y-136567502D01*
X212786494Y-136508537D01*
X212883185Y-136429185D01*
X212962537Y-136332494D01*
X213021502Y-136222180D01*
X213057812Y-136102482D01*
X213070072Y-135978000D01*
X213067000Y-135413750D01*
X212908250Y-135255000D01*
X211709000Y-135255000D01*
X211709000Y-135275000D01*
X211455000Y-135275000D01*
X211455000Y-135255000D01*
X210255750Y-135255000D01*
X210097000Y-135413750D01*
X210093928Y-135978000D01*
X203860000Y-135978000D01*
X203860000Y-134278000D01*
X210093928Y-134278000D01*
X210097000Y-134842250D01*
X210255750Y-135001000D01*
X211455000Y-135001000D01*
X211455000Y-133801750D01*
X211709000Y-133801750D01*
X211709000Y-135001000D01*
X212908250Y-135001000D01*
X213067000Y-134842250D01*
X213070072Y-134278000D01*
X213057812Y-134153518D01*
X213021502Y-134033820D01*
X212962537Y-133923506D01*
X212883185Y-133826815D01*
X212786494Y-133747463D01*
X212676180Y-133688498D01*
X212556482Y-133652188D01*
X212432000Y-133639928D01*
X211867750Y-133643000D01*
X211709000Y-133801750D01*
X211455000Y-133801750D01*
X211296250Y-133643000D01*
X210732000Y-133639928D01*
X210607518Y-133652188D01*
X210487820Y-133688498D01*
X210377506Y-133747463D01*
X210280815Y-133826815D01*
X210201463Y-133923506D01*
X210142498Y-134033820D01*
X210106188Y-134153518D01*
X210093928Y-134278000D01*
X203860000Y-134278000D01*
X203860000Y-128318080D01*
X218317525Y-128318080D01*
X218401208Y-128572261D01*
X218673775Y-128703158D01*
X218966642Y-128778365D01*
X219268553Y-128794991D01*
X219567907Y-128752397D01*
X219853199Y-128652222D01*
X220002792Y-128572261D01*
X220086475Y-128318080D01*
X219202000Y-127433605D01*
X218317525Y-128318080D01*
X203860000Y-128318080D01*
X203860000Y-127320553D01*
X217661009Y-127320553D01*
X217703603Y-127619907D01*
X217803778Y-127905199D01*
X217883739Y-128054792D01*
X218137920Y-128138475D01*
X219022395Y-127254000D01*
X218137920Y-126369525D01*
X217883739Y-126453208D01*
X217752842Y-126725775D01*
X217677635Y-127018642D01*
X217661009Y-127320553D01*
X203860000Y-127320553D01*
X203860000Y-126189920D01*
X218317525Y-126189920D01*
X219202000Y-127074395D01*
X220086475Y-126189920D01*
X220002792Y-125935739D01*
X219730225Y-125804842D01*
X219437358Y-125729635D01*
X219135447Y-125713009D01*
X218836093Y-125755603D01*
X218550801Y-125855778D01*
X218401208Y-125935739D01*
X218317525Y-126189920D01*
X203860000Y-126189920D01*
X203860000Y-115418891D01*
X218522519Y-115418891D01*
X218619843Y-115693252D01*
X218768822Y-115943355D01*
X218963731Y-116159588D01*
X219197080Y-116333641D01*
X219459901Y-116458825D01*
X219607110Y-116503476D01*
X219837000Y-116382155D01*
X219837000Y-115189000D01*
X218643186Y-115189000D01*
X218522519Y-115418891D01*
X203860000Y-115418891D01*
X203860000Y-114705109D01*
X218522519Y-114705109D01*
X218643186Y-114935000D01*
X219837000Y-114935000D01*
X219837000Y-113741845D01*
X220091000Y-113741845D01*
X220091000Y-114935000D01*
X220111000Y-114935000D01*
X220111000Y-115189000D01*
X220091000Y-115189000D01*
X220091000Y-116382155D01*
X220320890Y-116503476D01*
X220468099Y-116458825D01*
X220730920Y-116333641D01*
X220964269Y-116159588D01*
X221040034Y-116075534D01*
X221064498Y-116156180D01*
X221123463Y-116266494D01*
X221202815Y-116363185D01*
X221299506Y-116442537D01*
X221369000Y-116479683D01*
X221369000Y-116967751D01*
X221369001Y-116967761D01*
X221369000Y-119653618D01*
X221363509Y-119709370D01*
X221369000Y-119765121D01*
X221385423Y-119931868D01*
X221450324Y-120145816D01*
X221555716Y-120342993D01*
X221697551Y-120515819D01*
X221740865Y-120551366D01*
X223578639Y-122389141D01*
X223614181Y-122432449D01*
X223787007Y-122574284D01*
X223984183Y-122679676D01*
X224148335Y-122729471D01*
X224198130Y-122744577D01*
X224420629Y-122766491D01*
X224476381Y-122761000D01*
X224667716Y-122761000D01*
X224872273Y-122897680D01*
X225133426Y-123005853D01*
X225410665Y-123061000D01*
X225693335Y-123061000D01*
X225970574Y-123005853D01*
X226231727Y-122897680D01*
X226466759Y-122740637D01*
X226666637Y-122540759D01*
X226823680Y-122305727D01*
X226931853Y-122044574D01*
X226987000Y-121767335D01*
X226987000Y-121484665D01*
X226931853Y-121207426D01*
X226823680Y-120946273D01*
X226666637Y-120711241D01*
X226500057Y-120544661D01*
X226596180Y-120515502D01*
X226706494Y-120456537D01*
X226803185Y-120377185D01*
X226882537Y-120280494D01*
X226941502Y-120170180D01*
X226977812Y-120050482D01*
X226990072Y-119926000D01*
X226990072Y-118326000D01*
X226977812Y-118201518D01*
X226941502Y-118081820D01*
X226882537Y-117971506D01*
X226803185Y-117874815D01*
X226706494Y-117795463D01*
X226596180Y-117736498D01*
X226476482Y-117700188D01*
X226352000Y-117687928D01*
X224752000Y-117687928D01*
X224627518Y-117700188D01*
X224507820Y-117736498D01*
X224397506Y-117795463D01*
X224300815Y-117874815D01*
X224221463Y-117971506D01*
X224162498Y-118081820D01*
X224126188Y-118201518D01*
X224113928Y-118326000D01*
X224113928Y-119714167D01*
X223639000Y-119239239D01*
X223639000Y-116479683D01*
X223708494Y-116442537D01*
X223805185Y-116363185D01*
X223884537Y-116266494D01*
X223943502Y-116156180D01*
X223979812Y-116036482D01*
X223992072Y-115912000D01*
X223992072Y-114212000D01*
X223979812Y-114087518D01*
X223943502Y-113967820D01*
X223884537Y-113857506D01*
X223805185Y-113760815D01*
X223708494Y-113681463D01*
X223598180Y-113622498D01*
X223478482Y-113586188D01*
X223354000Y-113573928D01*
X221654000Y-113573928D01*
X221529518Y-113586188D01*
X221409820Y-113622498D01*
X221299506Y-113681463D01*
X221202815Y-113760815D01*
X221123463Y-113857506D01*
X221064498Y-113967820D01*
X221040034Y-114048466D01*
X220964269Y-113964412D01*
X220730920Y-113790359D01*
X220468099Y-113665175D01*
X220320890Y-113620524D01*
X220091000Y-113741845D01*
X219837000Y-113741845D01*
X219607110Y-113620524D01*
X219459901Y-113665175D01*
X219197080Y-113790359D01*
X218963731Y-113964412D01*
X218768822Y-114180645D01*
X218619843Y-114430748D01*
X218522519Y-114705109D01*
X203860000Y-114705109D01*
X203860000Y-111093040D01*
X213492091Y-111093040D01*
X213586930Y-111357881D01*
X213731615Y-111599131D01*
X213920586Y-111807519D01*
X214146580Y-111975037D01*
X214400913Y-112095246D01*
X214534961Y-112135904D01*
X214757000Y-112013915D01*
X214757000Y-110871000D01*
X215011000Y-110871000D01*
X215011000Y-112013915D01*
X215233039Y-112135904D01*
X215367087Y-112095246D01*
X215621420Y-111975037D01*
X215847414Y-111807519D01*
X216036385Y-111599131D01*
X216181070Y-111357881D01*
X216275909Y-111093040D01*
X216154624Y-110871000D01*
X215011000Y-110871000D01*
X214757000Y-110871000D01*
X213613376Y-110871000D01*
X213492091Y-111093040D01*
X203860000Y-111093040D01*
X203860000Y-110394960D01*
X213492091Y-110394960D01*
X213613376Y-110617000D01*
X214757000Y-110617000D01*
X214757000Y-109474085D01*
X215011000Y-109474085D01*
X215011000Y-110617000D01*
X216154624Y-110617000D01*
X216275909Y-110394960D01*
X216181070Y-110130119D01*
X216169289Y-110110475D01*
X227779000Y-110110475D01*
X227779000Y-110629525D01*
X227880261Y-111138601D01*
X228078893Y-111618141D01*
X228367262Y-112049715D01*
X228734285Y-112416738D01*
X229165859Y-112705107D01*
X229645399Y-112903739D01*
X230154475Y-113005000D01*
X230673525Y-113005000D01*
X231182601Y-112903739D01*
X231662141Y-112705107D01*
X232093715Y-112416738D01*
X232429000Y-112081453D01*
X232429000Y-115469868D01*
X229360865Y-118538004D01*
X229317551Y-118573551D01*
X229175716Y-118746377D01*
X229092042Y-118902922D01*
X229070324Y-118943554D01*
X229005423Y-119157502D01*
X228983509Y-119380000D01*
X228989000Y-119435752D01*
X228989001Y-122350239D01*
X228983509Y-122406000D01*
X229005423Y-122628498D01*
X229070324Y-122842446D01*
X229070325Y-122842447D01*
X229175717Y-123039623D01*
X229317552Y-123212449D01*
X229360860Y-123247991D01*
X230759773Y-124646906D01*
X230747506Y-124653463D01*
X230650815Y-124732815D01*
X230571463Y-124829506D01*
X230512498Y-124939820D01*
X230476188Y-125059518D01*
X230463928Y-125184000D01*
X230463928Y-126784000D01*
X230476188Y-126908482D01*
X230512498Y-127028180D01*
X230571463Y-127138494D01*
X230650815Y-127235185D01*
X230747506Y-127314537D01*
X230857820Y-127373502D01*
X230977518Y-127409812D01*
X231002080Y-127412231D01*
X230838481Y-127560586D01*
X230670963Y-127786580D01*
X230550754Y-128040913D01*
X230510096Y-128174961D01*
X230632085Y-128397000D01*
X231775000Y-128397000D01*
X231775000Y-128377000D01*
X232029000Y-128377000D01*
X232029000Y-128397000D01*
X233171915Y-128397000D01*
X233293904Y-128174961D01*
X233253246Y-128040913D01*
X233133037Y-127786580D01*
X232965519Y-127560586D01*
X232801920Y-127412231D01*
X232826482Y-127409812D01*
X232946180Y-127373502D01*
X233056494Y-127314537D01*
X233153185Y-127235185D01*
X233232537Y-127138494D01*
X233291502Y-127028180D01*
X233327812Y-126908482D01*
X233340072Y-126784000D01*
X233340072Y-125184000D01*
X233327812Y-125059518D01*
X233291502Y-124939820D01*
X233232537Y-124829506D01*
X233153185Y-124732815D01*
X233056494Y-124653463D01*
X233037000Y-124643043D01*
X233037000Y-124239752D01*
X233042491Y-124184000D01*
X233020577Y-123961501D01*
X232955676Y-123747553D01*
X232850284Y-123550377D01*
X232743989Y-123420856D01*
X232743987Y-123420854D01*
X232708449Y-123377551D01*
X232665146Y-123342013D01*
X232270098Y-122946966D01*
X232431996Y-123023571D01*
X232706184Y-123092300D01*
X232988512Y-123106217D01*
X233268130Y-123064787D01*
X233534292Y-122969603D01*
X233659514Y-122902671D01*
X233731097Y-122658702D01*
X232918000Y-121845605D01*
X232903858Y-121859748D01*
X232724253Y-121680143D01*
X232738395Y-121666000D01*
X233097605Y-121666000D01*
X233910702Y-122479097D01*
X234154671Y-122407514D01*
X234275571Y-122152004D01*
X234344300Y-121877816D01*
X234358217Y-121595488D01*
X234316787Y-121315870D01*
X234221603Y-121049708D01*
X234154671Y-120924486D01*
X233910702Y-120852903D01*
X233097605Y-121666000D01*
X232738395Y-121666000D01*
X231925298Y-120852903D01*
X231681329Y-120924486D01*
X231560429Y-121179996D01*
X231491700Y-121454184D01*
X231477783Y-121736512D01*
X231519213Y-122016130D01*
X231614397Y-122282292D01*
X231624701Y-122301569D01*
X231259000Y-121935869D01*
X231259000Y-120673298D01*
X232104903Y-120673298D01*
X232918000Y-121486395D01*
X233731097Y-120673298D01*
X233659514Y-120429329D01*
X233404004Y-120308429D01*
X233129816Y-120239700D01*
X232847488Y-120225783D01*
X232567870Y-120267213D01*
X232301708Y-120362397D01*
X232176486Y-120429329D01*
X232104903Y-120673298D01*
X231259000Y-120673298D01*
X231259000Y-119850131D01*
X234327140Y-116781992D01*
X234370448Y-116746450D01*
X234512283Y-116573624D01*
X234617675Y-116376448D01*
X234682576Y-116162500D01*
X234698999Y-115995753D01*
X234698999Y-115995744D01*
X234704489Y-115940002D01*
X234698999Y-115884260D01*
X234698999Y-110110475D01*
X237279000Y-110110475D01*
X237279000Y-110629525D01*
X237380261Y-111138601D01*
X237578893Y-111618141D01*
X237867262Y-112049715D01*
X238234285Y-112416738D01*
X238665859Y-112705107D01*
X239145399Y-112903739D01*
X239654475Y-113005000D01*
X240173525Y-113005000D01*
X240682601Y-112903739D01*
X241162141Y-112705107D01*
X241593715Y-112416738D01*
X241960738Y-112049715D01*
X242249107Y-111618141D01*
X242447739Y-111138601D01*
X242549000Y-110629525D01*
X242549000Y-110110475D01*
X242447739Y-109601399D01*
X242249107Y-109121859D01*
X241960738Y-108690285D01*
X241593715Y-108323262D01*
X241162141Y-108034893D01*
X240682601Y-107836261D01*
X240173525Y-107735000D01*
X239654475Y-107735000D01*
X239145399Y-107836261D01*
X238665859Y-108034893D01*
X238234285Y-108323262D01*
X237867262Y-108690285D01*
X237578893Y-109121859D01*
X237380261Y-109601399D01*
X237279000Y-110110475D01*
X234698999Y-110110475D01*
X234698999Y-104338862D01*
X234716257Y-104346011D01*
X235012816Y-104405000D01*
X235093868Y-104405000D01*
X237116013Y-106427146D01*
X237151551Y-106470449D01*
X237194854Y-106505987D01*
X237194856Y-106505989D01*
X237324377Y-106612284D01*
X237521553Y-106717676D01*
X237735501Y-106782577D01*
X237958000Y-106804491D01*
X238013752Y-106799000D01*
X243877869Y-106799000D01*
X245673001Y-108594133D01*
X245673000Y-117987716D01*
X245536320Y-118192273D01*
X245428147Y-118453426D01*
X245373000Y-118730665D01*
X245373000Y-119013335D01*
X245428147Y-119290574D01*
X245536320Y-119551727D01*
X245693363Y-119786759D01*
X245893241Y-119986637D01*
X246128273Y-120143680D01*
X246389426Y-120251853D01*
X246666665Y-120307000D01*
X246949335Y-120307000D01*
X247226574Y-120251853D01*
X247487727Y-120143680D01*
X247722759Y-119986637D01*
X247922637Y-119786759D01*
X248079680Y-119551727D01*
X248187853Y-119290574D01*
X248243000Y-119013335D01*
X248243000Y-118730665D01*
X248187853Y-118453426D01*
X248079680Y-118192273D01*
X247943000Y-117987716D01*
X247943000Y-108179741D01*
X247948490Y-108123999D01*
X247943000Y-108068257D01*
X247943000Y-108068248D01*
X247926577Y-107901501D01*
X247861676Y-107687553D01*
X247756284Y-107490377D01*
X247614449Y-107317551D01*
X247571141Y-107282009D01*
X245189996Y-104900865D01*
X245154449Y-104857551D01*
X244981623Y-104715716D01*
X244784447Y-104610324D01*
X244570499Y-104545423D01*
X244403752Y-104529000D01*
X244403751Y-104529000D01*
X244348000Y-104523509D01*
X244292249Y-104529000D01*
X238428133Y-104529000D01*
X238206071Y-104306939D01*
X238391095Y-104230299D01*
X238642505Y-104062312D01*
X238856312Y-103848505D01*
X239024299Y-103597095D01*
X239140011Y-103317743D01*
X239199000Y-103021184D01*
X239199000Y-102718816D01*
X239140011Y-102422257D01*
X239024299Y-102142905D01*
X238856312Y-101891495D01*
X238642505Y-101677688D01*
X238391095Y-101509701D01*
X238111743Y-101393989D01*
X237815184Y-101335000D01*
X237512816Y-101335000D01*
X237216257Y-101393989D01*
X236936905Y-101509701D01*
X236685495Y-101677688D01*
X236471688Y-101891495D01*
X236414000Y-101977831D01*
X236356312Y-101891495D01*
X236142505Y-101677688D01*
X235891095Y-101509701D01*
X235611743Y-101393989D01*
X235315184Y-101335000D01*
X235012816Y-101335000D01*
X234716257Y-101393989D01*
X234436905Y-101509701D01*
X234185495Y-101677688D01*
X233971688Y-101891495D01*
X233914000Y-101977831D01*
X233856312Y-101891495D01*
X233642505Y-101677688D01*
X233391095Y-101509701D01*
X233111743Y-101393989D01*
X232815184Y-101335000D01*
X232512816Y-101335000D01*
X232216257Y-101393989D01*
X231936905Y-101509701D01*
X231685495Y-101677688D01*
X231471688Y-101891495D01*
X231303701Y-102142905D01*
X231187989Y-102422257D01*
X231129000Y-102718816D01*
X231129000Y-103021184D01*
X231187989Y-103317743D01*
X231303701Y-103597095D01*
X231471688Y-103848505D01*
X231685495Y-104062312D01*
X231936905Y-104230299D01*
X232216257Y-104346011D01*
X232428999Y-104388328D01*
X232428999Y-108658546D01*
X232093715Y-108323262D01*
X231662141Y-108034893D01*
X231182601Y-107836261D01*
X230673525Y-107735000D01*
X230154475Y-107735000D01*
X229645399Y-107836261D01*
X229165859Y-108034893D01*
X228734285Y-108323262D01*
X228367262Y-108690285D01*
X228078893Y-109121859D01*
X227880261Y-109601399D01*
X227779000Y-110110475D01*
X216169289Y-110110475D01*
X216036385Y-109888869D01*
X215847414Y-109680481D01*
X215621420Y-109512963D01*
X215367087Y-109392754D01*
X215233039Y-109352096D01*
X215011000Y-109474085D01*
X214757000Y-109474085D01*
X214534961Y-109352096D01*
X214400913Y-109392754D01*
X214146580Y-109512963D01*
X213920586Y-109680481D01*
X213731615Y-109888869D01*
X213586930Y-110130119D01*
X213492091Y-110394960D01*
X203860000Y-110394960D01*
X203860000Y-102982665D01*
X213449000Y-102982665D01*
X213449000Y-103265335D01*
X213504147Y-103542574D01*
X213612320Y-103803727D01*
X213769363Y-104038759D01*
X213969241Y-104238637D01*
X214204273Y-104395680D01*
X214465426Y-104503853D01*
X214742665Y-104559000D01*
X215025335Y-104559000D01*
X215302574Y-104503853D01*
X215563727Y-104395680D01*
X215798759Y-104238637D01*
X215998637Y-104038759D01*
X216155680Y-103803727D01*
X216263853Y-103542574D01*
X216319000Y-103265335D01*
X216319000Y-103236665D01*
X219117000Y-103236665D01*
X219117000Y-103519335D01*
X219172147Y-103796574D01*
X219280320Y-104057727D01*
X219437363Y-104292759D01*
X219637241Y-104492637D01*
X219872273Y-104649680D01*
X220133426Y-104757853D01*
X220410665Y-104813000D01*
X220693335Y-104813000D01*
X220970574Y-104757853D01*
X221231727Y-104649680D01*
X221466759Y-104492637D01*
X221666637Y-104292759D01*
X221823680Y-104057727D01*
X221931853Y-103796574D01*
X221987000Y-103519335D01*
X221987000Y-103236665D01*
X224117000Y-103236665D01*
X224117000Y-103519335D01*
X224172147Y-103796574D01*
X224280320Y-104057727D01*
X224437363Y-104292759D01*
X224637241Y-104492637D01*
X224872273Y-104649680D01*
X225133426Y-104757853D01*
X225410665Y-104813000D01*
X225693335Y-104813000D01*
X225970574Y-104757853D01*
X226231727Y-104649680D01*
X226466759Y-104492637D01*
X226666637Y-104292759D01*
X226823680Y-104057727D01*
X226931853Y-103796574D01*
X226987000Y-103519335D01*
X226987000Y-103236665D01*
X226931853Y-102959426D01*
X226823680Y-102698273D01*
X226666637Y-102463241D01*
X226466759Y-102263363D01*
X226231727Y-102106320D01*
X225970574Y-101998147D01*
X225693335Y-101943000D01*
X225410665Y-101943000D01*
X225133426Y-101998147D01*
X224872273Y-102106320D01*
X224637241Y-102263363D01*
X224437363Y-102463241D01*
X224280320Y-102698273D01*
X224172147Y-102959426D01*
X224117000Y-103236665D01*
X221987000Y-103236665D01*
X221931853Y-102959426D01*
X221823680Y-102698273D01*
X221666637Y-102463241D01*
X221466759Y-102263363D01*
X221231727Y-102106320D01*
X220970574Y-101998147D01*
X220693335Y-101943000D01*
X220410665Y-101943000D01*
X220133426Y-101998147D01*
X219872273Y-102106320D01*
X219637241Y-102263363D01*
X219437363Y-102463241D01*
X219280320Y-102698273D01*
X219172147Y-102959426D01*
X219117000Y-103236665D01*
X216319000Y-103236665D01*
X216319000Y-102982665D01*
X216263853Y-102705426D01*
X216155680Y-102444273D01*
X215998637Y-102209241D01*
X215798759Y-102009363D01*
X215563727Y-101852320D01*
X215302574Y-101744147D01*
X215025335Y-101689000D01*
X214742665Y-101689000D01*
X214465426Y-101744147D01*
X214204273Y-101852320D01*
X213969241Y-102009363D01*
X213769363Y-102209241D01*
X213612320Y-102444273D01*
X213504147Y-102705426D01*
X213449000Y-102982665D01*
X203860000Y-102982665D01*
X203860000Y-97180000D01*
X258420001Y-97180000D01*
X258420000Y-141580000D01*
G37*
X258420000Y-141580000D02*
X203860000Y-141580000D01*
X203860000Y-135978000D01*
X210093928Y-135978000D01*
X210106188Y-136102482D01*
X210142498Y-136222180D01*
X210201463Y-136332494D01*
X210280815Y-136429185D01*
X210377506Y-136508537D01*
X210487820Y-136567502D01*
X210560380Y-136589513D01*
X210428525Y-136721368D01*
X210266010Y-136964589D01*
X210154068Y-137234842D01*
X210097000Y-137521740D01*
X210097000Y-137814260D01*
X210154068Y-138101158D01*
X210266010Y-138371411D01*
X210428525Y-138614632D01*
X210635368Y-138821475D01*
X210878589Y-138983990D01*
X211148842Y-139095932D01*
X211435740Y-139153000D01*
X211461868Y-139153000D01*
X211590007Y-139281139D01*
X211625550Y-139324448D01*
X211798376Y-139466283D01*
X211995552Y-139571675D01*
X212159704Y-139621470D01*
X212209499Y-139636576D01*
X212431998Y-139658490D01*
X212487750Y-139652999D01*
X218550250Y-139652999D01*
X218606001Y-139658490D01*
X218661752Y-139652999D01*
X218661753Y-139652999D01*
X218828500Y-139636576D01*
X219042448Y-139571675D01*
X219239624Y-139466283D01*
X219412450Y-139324448D01*
X219447997Y-139281134D01*
X220196240Y-138532891D01*
X233000519Y-138532891D01*
X233097843Y-138807252D01*
X233246822Y-139057355D01*
X233441731Y-139273588D01*
X233675080Y-139447641D01*
X233937901Y-139572825D01*
X234085110Y-139617476D01*
X234315000Y-139496155D01*
X234315000Y-138303000D01*
X233121186Y-138303000D01*
X233000519Y-138532891D01*
X220196240Y-138532891D01*
X220910022Y-137819109D01*
X233000519Y-137819109D01*
X233121186Y-138049000D01*
X234315000Y-138049000D01*
X234315000Y-136855845D01*
X234569000Y-136855845D01*
X234569000Y-138049000D01*
X234589000Y-138049000D01*
X234589000Y-138303000D01*
X234569000Y-138303000D01*
X234569000Y-139496155D01*
X234798890Y-139617476D01*
X234946099Y-139572825D01*
X235208920Y-139447641D01*
X235442269Y-139273588D01*
X235518034Y-139189534D01*
X235542498Y-139270180D01*
X235601463Y-139380494D01*
X235680815Y-139477185D01*
X235777506Y-139556537D01*
X235887820Y-139615502D01*
X236007518Y-139651812D01*
X236132000Y-139664072D01*
X237832000Y-139664072D01*
X237956482Y-139651812D01*
X238076180Y-139615502D01*
X238186494Y-139556537D01*
X238283185Y-139477185D01*
X238362537Y-139380494D01*
X238421502Y-139270180D01*
X238457812Y-139150482D01*
X238470072Y-139026000D01*
X238470072Y-138532816D01*
X245687000Y-138532816D01*
X245687000Y-138835184D01*
X245745989Y-139131743D01*
X245861701Y-139411095D01*
X246029688Y-139662505D01*
X246243495Y-139876312D01*
X246494905Y-140044299D01*
X246774257Y-140160011D01*
X247070816Y-140219000D01*
X247373184Y-140219000D01*
X247669743Y-140160011D01*
X247949095Y-140044299D01*
X248200505Y-139876312D01*
X248414312Y-139662505D01*
X248472000Y-139576169D01*
X248529688Y-139662505D01*
X248743495Y-139876312D01*
X248994905Y-140044299D01*
X249274257Y-140160011D01*
X249570816Y-140219000D01*
X249873184Y-140219000D01*
X250169743Y-140160011D01*
X250449095Y-140044299D01*
X250700505Y-139876312D01*
X250914312Y-139662505D01*
X250972000Y-139576169D01*
X251029688Y-139662505D01*
X251243495Y-139876312D01*
X251494905Y-140044299D01*
X251774257Y-140160011D01*
X252070816Y-140219000D01*
X252373184Y-140219000D01*
X252669743Y-140160011D01*
X252949095Y-140044299D01*
X253200505Y-139876312D01*
X253414312Y-139662505D01*
X253582299Y-139411095D01*
X253698011Y-139131743D01*
X253757000Y-138835184D01*
X253757000Y-138532816D01*
X253698011Y-138236257D01*
X253582299Y-137956905D01*
X253414312Y-137705495D01*
X253357000Y-137648183D01*
X253357000Y-137466951D01*
X253362490Y-137411207D01*
X253357000Y-137355463D01*
X253357000Y-137355456D01*
X253340577Y-137188709D01*
X253275676Y-136974761D01*
X253170284Y-136777585D01*
X253028449Y-136604759D01*
X252985141Y-136569217D01*
X250055000Y-133639077D01*
X250055000Y-130924475D01*
X251837000Y-130924475D01*
X251837000Y-131443525D01*
X251938261Y-131952601D01*
X252136893Y-132432141D01*
X252425262Y-132863715D01*
X252792285Y-133230738D01*
X253223859Y-133519107D01*
X253703399Y-133717739D01*
X254212475Y-133819000D01*
X254731525Y-133819000D01*
X255240601Y-133717739D01*
X255720141Y-133519107D01*
X256151715Y-133230738D01*
X256518738Y-132863715D01*
X256807107Y-132432141D01*
X257005739Y-131952601D01*
X257107000Y-131443525D01*
X257107000Y-130924475D01*
X257005739Y-130415399D01*
X256807107Y-129935859D01*
X256518738Y-129504285D01*
X256151715Y-129137262D01*
X255720141Y-128848893D01*
X255240601Y-128650261D01*
X254731525Y-128549000D01*
X254212475Y-128549000D01*
X253703399Y-128650261D01*
X253223859Y-128848893D01*
X252792285Y-129137262D01*
X252425262Y-129504285D01*
X252136893Y-129935859D01*
X251938261Y-130415399D01*
X251837000Y-130924475D01*
X250055000Y-130924475D01*
X250055000Y-129502131D01*
X255271141Y-124285991D01*
X255314449Y-124250449D01*
X255456284Y-124077623D01*
X255561676Y-123880447D01*
X255626577Y-123666499D01*
X255643000Y-123499752D01*
X255643000Y-123499743D01*
X255648490Y-123444001D01*
X255643000Y-123388259D01*
X255643000Y-121736957D01*
X255662494Y-121726537D01*
X255759185Y-121647185D01*
X255838537Y-121550494D01*
X255897502Y-121440180D01*
X255933812Y-121320482D01*
X255946072Y-121196000D01*
X255946072Y-119596000D01*
X255933812Y-119471518D01*
X255897502Y-119351820D01*
X255838537Y-119241506D01*
X255759185Y-119144815D01*
X255662494Y-119065463D01*
X255552180Y-119006498D01*
X255432482Y-118970188D01*
X255308000Y-118957928D01*
X253708000Y-118957928D01*
X253583518Y-118970188D01*
X253463820Y-119006498D01*
X253353506Y-119065463D01*
X253256815Y-119144815D01*
X253177463Y-119241506D01*
X253118498Y-119351820D01*
X253089339Y-119447943D01*
X252922759Y-119281363D01*
X252687727Y-119124320D01*
X252426574Y-119016147D01*
X252149335Y-118961000D01*
X251866665Y-118961000D01*
X251589426Y-119016147D01*
X251328273Y-119124320D01*
X251093241Y-119281363D01*
X250893363Y-119481241D01*
X250736320Y-119716273D01*
X250628147Y-119977426D01*
X250573000Y-120254665D01*
X250573000Y-120537335D01*
X250628147Y-120814574D01*
X250736320Y-121075727D01*
X250893363Y-121310759D01*
X251093241Y-121510637D01*
X251328273Y-121667680D01*
X251589426Y-121775853D01*
X251866665Y-121831000D01*
X252149335Y-121831000D01*
X252426574Y-121775853D01*
X252687727Y-121667680D01*
X252922759Y-121510637D01*
X253089339Y-121344057D01*
X253118498Y-121440180D01*
X253177463Y-121550494D01*
X253256815Y-121647185D01*
X253353506Y-121726537D01*
X253373001Y-121736957D01*
X253373000Y-122973868D01*
X248156860Y-128190009D01*
X248113552Y-128225551D01*
X247971717Y-128398377D01*
X247937146Y-128463056D01*
X247866324Y-128595554D01*
X247801423Y-128809502D01*
X247779509Y-129032000D01*
X247785001Y-129087761D01*
X247785000Y-134053456D01*
X247779509Y-134109208D01*
X247785000Y-134164959D01*
X247801423Y-134331706D01*
X247866324Y-134545654D01*
X247971716Y-134742831D01*
X248113551Y-134915657D01*
X248156865Y-134951204D01*
X250690992Y-137485331D01*
X250449095Y-137323701D01*
X250169743Y-137207989D01*
X249873184Y-137149000D01*
X249570816Y-137149000D01*
X249274257Y-137207989D01*
X248994905Y-137323701D01*
X248743495Y-137491688D01*
X248529688Y-137705495D01*
X248472000Y-137791831D01*
X248414312Y-137705495D01*
X248200505Y-137491688D01*
X247949095Y-137323701D01*
X247669743Y-137207989D01*
X247373184Y-137149000D01*
X247070816Y-137149000D01*
X246774257Y-137207989D01*
X246494905Y-137323701D01*
X246243495Y-137491688D01*
X246029688Y-137705495D01*
X245861701Y-137956905D01*
X245745989Y-138236257D01*
X245687000Y-138532816D01*
X238470072Y-138532816D01*
X238470072Y-137326000D01*
X238457812Y-137201518D01*
X238421502Y-137081820D01*
X238362537Y-136971506D01*
X238283185Y-136874815D01*
X238201254Y-136807576D01*
X238398405Y-136170786D01*
X238404091Y-136155467D01*
X238409427Y-136135185D01*
X238415643Y-136115107D01*
X238418929Y-136099066D01*
X238755954Y-134818004D01*
X238842273Y-134875680D01*
X239103426Y-134983853D01*
X239380665Y-135039000D01*
X239663335Y-135039000D01*
X239940574Y-134983853D01*
X240201727Y-134875680D01*
X240436759Y-134718637D01*
X240636637Y-134518759D01*
X240793680Y-134283727D01*
X240901853Y-134022574D01*
X240957000Y-133745335D01*
X240957000Y-133462665D01*
X240901853Y-133185426D01*
X240793680Y-132924273D01*
X240756287Y-132868310D01*
X241243936Y-131994480D01*
X241248177Y-131989319D01*
X241280369Y-131929194D01*
X241295345Y-131902358D01*
X241297997Y-131896269D01*
X241301134Y-131890411D01*
X241312916Y-131862022D01*
X241330384Y-131821924D01*
X241344533Y-131795433D01*
X241366260Y-131723731D01*
X241387798Y-131652909D01*
X241391398Y-131616618D01*
X241393661Y-131604511D01*
X241400113Y-131572025D01*
X241400532Y-131567758D01*
X241401319Y-131563548D01*
X241404181Y-131530594D01*
X241411076Y-131460369D01*
X241410652Y-131456079D01*
X241456819Y-130924475D01*
X242337000Y-130924475D01*
X242337000Y-131443525D01*
X242438261Y-131952601D01*
X242636893Y-132432141D01*
X242925262Y-132863715D01*
X243292285Y-133230738D01*
X243723859Y-133519107D01*
X244203399Y-133717739D01*
X244712475Y-133819000D01*
X245231525Y-133819000D01*
X245740601Y-133717739D01*
X246220141Y-133519107D01*
X246651715Y-133230738D01*
X247018738Y-132863715D01*
X247307107Y-132432141D01*
X247505739Y-131952601D01*
X247607000Y-131443525D01*
X247607000Y-130924475D01*
X247505739Y-130415399D01*
X247307107Y-129935859D01*
X247018738Y-129504285D01*
X246651715Y-129137262D01*
X246220141Y-128848893D01*
X245740601Y-128650261D01*
X245231525Y-128549000D01*
X244712475Y-128549000D01*
X244203399Y-128650261D01*
X243723859Y-128848893D01*
X243292285Y-129137262D01*
X242925262Y-129504285D01*
X242636893Y-129935859D01*
X242438261Y-130415399D01*
X242337000Y-130924475D01*
X241456819Y-130924475D01*
X242295506Y-121267331D01*
X242422592Y-120170660D01*
X242487727Y-120143680D01*
X242722759Y-119986637D01*
X242922637Y-119786759D01*
X243079680Y-119551727D01*
X243187853Y-119290574D01*
X243243000Y-119013335D01*
X243243000Y-118730665D01*
X243187853Y-118453426D01*
X243079680Y-118192273D01*
X242922637Y-117957241D01*
X242722759Y-117757363D01*
X242487727Y-117600320D01*
X242226574Y-117492147D01*
X241949335Y-117437000D01*
X241666665Y-117437000D01*
X241389426Y-117492147D01*
X241128273Y-117600320D01*
X240893241Y-117757363D01*
X240693363Y-117957241D01*
X240536320Y-118192273D01*
X240428147Y-118453426D01*
X240373000Y-118730665D01*
X240373000Y-119013335D01*
X240428147Y-119290574D01*
X240536320Y-119551727D01*
X240693363Y-119786759D01*
X240893241Y-119986637D01*
X240912272Y-119999353D01*
X240787392Y-121076982D01*
X240785379Y-121087752D01*
X240783090Y-121114109D01*
X240780055Y-121140299D01*
X240779867Y-121151218D01*
X240455347Y-124887951D01*
X240436759Y-124869363D01*
X240201727Y-124712320D01*
X239940574Y-124604147D01*
X239663335Y-124549000D01*
X239380665Y-124549000D01*
X239103426Y-124604147D01*
X238990690Y-124650844D01*
X238799598Y-122802794D01*
X238832759Y-122780637D01*
X239032637Y-122580759D01*
X239189680Y-122345727D01*
X239297853Y-122084574D01*
X239353000Y-121807335D01*
X239353000Y-121524665D01*
X239297853Y-121247426D01*
X239189680Y-120986273D01*
X239032637Y-120751241D01*
X238832759Y-120551363D01*
X238597727Y-120394320D01*
X238336574Y-120286147D01*
X238059335Y-120231000D01*
X237776665Y-120231000D01*
X237499426Y-120286147D01*
X237238273Y-120394320D01*
X237003241Y-120551363D01*
X236803363Y-120751241D01*
X236646320Y-120986273D01*
X236538147Y-121247426D01*
X236483000Y-121524665D01*
X236483000Y-121807335D01*
X236538147Y-122084574D01*
X236646320Y-122345727D01*
X236803363Y-122580759D01*
X237003241Y-122780637D01*
X237238273Y-122937680D01*
X237287553Y-122958092D01*
X237612718Y-126102768D01*
X237636877Y-126415414D01*
X237638408Y-126443852D01*
X237639753Y-126452632D01*
X237640436Y-126461474D01*
X237645397Y-126489485D01*
X237648817Y-126511814D01*
X237653168Y-126561743D01*
X237670571Y-126621527D01*
X237685985Y-126681858D01*
X237707627Y-126727065D01*
X237712730Y-126739789D01*
X237725982Y-126773176D01*
X237726611Y-126774396D01*
X237727120Y-126775665D01*
X237743642Y-126807430D01*
X237951992Y-127211564D01*
X237956772Y-127222580D01*
X237969079Y-127244707D01*
X237980696Y-127267241D01*
X237987226Y-127277336D01*
X238278822Y-127801617D01*
X238250320Y-127844273D01*
X238142147Y-128105426D01*
X238087000Y-128382665D01*
X238087000Y-128665335D01*
X238142147Y-128942574D01*
X238250320Y-129203727D01*
X238407363Y-129438759D01*
X238607241Y-129638637D01*
X238839759Y-129794000D01*
X238607241Y-129949363D01*
X238407363Y-130149241D01*
X238250320Y-130384273D01*
X238142147Y-130645426D01*
X238087000Y-130922665D01*
X238087000Y-131205335D01*
X238142147Y-131482574D01*
X238250320Y-131743727D01*
X238281735Y-131790743D01*
X237971913Y-132345987D01*
X237965953Y-132355113D01*
X237953723Y-132378586D01*
X237940838Y-132401677D01*
X237936490Y-132411660D01*
X237755286Y-132759433D01*
X237734606Y-132791167D01*
X237706785Y-132860578D01*
X237679112Y-132929429D01*
X237672627Y-132963927D01*
X237670509Y-132969633D01*
X237663508Y-132996243D01*
X237655813Y-133022702D01*
X237654008Y-133032355D01*
X236947770Y-135716827D01*
X236647117Y-136687928D01*
X236132000Y-136687928D01*
X236007518Y-136700188D01*
X235887820Y-136736498D01*
X235777506Y-136795463D01*
X235680815Y-136874815D01*
X235601463Y-136971506D01*
X235542498Y-137081820D01*
X235518034Y-137162466D01*
X235442269Y-137078412D01*
X235208920Y-136904359D01*
X234946099Y-136779175D01*
X234798890Y-136734524D01*
X234569000Y-136855845D01*
X234315000Y-136855845D01*
X234085110Y-136734524D01*
X233937901Y-136779175D01*
X233675080Y-136904359D01*
X233441731Y-137078412D01*
X233246822Y-137294645D01*
X233097843Y-137544748D01*
X233000519Y-137819109D01*
X220910022Y-137819109D01*
X223817000Y-134912133D01*
X223817000Y-135013525D01*
X223918261Y-135522601D01*
X224116893Y-136002141D01*
X224405262Y-136433715D01*
X224772285Y-136800738D01*
X225203859Y-137089107D01*
X225683399Y-137287739D01*
X226192475Y-137389000D01*
X226711525Y-137389000D01*
X227220601Y-137287739D01*
X227700141Y-137089107D01*
X228131715Y-136800738D01*
X228498738Y-136433715D01*
X228787107Y-136002141D01*
X228985739Y-135522601D01*
X229087000Y-135013525D01*
X229087000Y-134494475D01*
X228985739Y-133985399D01*
X228972336Y-133953039D01*
X230510096Y-133953039D01*
X230550754Y-134087087D01*
X230670963Y-134341420D01*
X230838481Y-134567414D01*
X231046869Y-134756385D01*
X231288119Y-134901070D01*
X231552960Y-134995909D01*
X231775000Y-134874624D01*
X231775000Y-133731000D01*
X232029000Y-133731000D01*
X232029000Y-134874624D01*
X232251040Y-134995909D01*
X232515881Y-134901070D01*
X232757131Y-134756385D01*
X232965519Y-134567414D01*
X233133037Y-134341420D01*
X233253246Y-134087087D01*
X233293904Y-133953039D01*
X233171915Y-133731000D01*
X232029000Y-133731000D01*
X231775000Y-133731000D01*
X230632085Y-133731000D01*
X230510096Y-133953039D01*
X228972336Y-133953039D01*
X228787107Y-133505859D01*
X228498738Y-133074285D01*
X228131715Y-132707262D01*
X227700141Y-132418893D01*
X227220601Y-132220261D01*
X226711525Y-132119000D01*
X226192475Y-132119000D01*
X225683399Y-132220261D01*
X225337000Y-132363744D01*
X225337000Y-130922665D01*
X230467000Y-130922665D01*
X230467000Y-131205335D01*
X230522147Y-131482574D01*
X230630320Y-131743727D01*
X230787363Y-131978759D01*
X230987241Y-132178637D01*
X231222273Y-132335680D01*
X231232865Y-132340067D01*
X231046869Y-132451615D01*
X230838481Y-132640586D01*
X230670963Y-132866580D01*
X230550754Y-133120913D01*
X230510096Y-133254961D01*
X230632085Y-133477000D01*
X231775000Y-133477000D01*
X231775000Y-133457000D01*
X232029000Y-133457000D01*
X232029000Y-133477000D01*
X233171915Y-133477000D01*
X233293904Y-133254961D01*
X233253246Y-133120913D01*
X233133037Y-132866580D01*
X232965519Y-132640586D01*
X232757131Y-132451615D01*
X232571135Y-132340067D01*
X232581727Y-132335680D01*
X232816759Y-132178637D01*
X233016637Y-131978759D01*
X233173680Y-131743727D01*
X233281853Y-131482574D01*
X233337000Y-131205335D01*
X233337000Y-130922665D01*
X233281853Y-130645426D01*
X233173680Y-130384273D01*
X233016637Y-130149241D01*
X232816759Y-129949363D01*
X232581727Y-129792320D01*
X232571135Y-129787933D01*
X232757131Y-129676385D01*
X232965519Y-129487414D01*
X233133037Y-129261420D01*
X233253246Y-129007087D01*
X233293904Y-128873039D01*
X233171915Y-128651000D01*
X232029000Y-128651000D01*
X232029000Y-128671000D01*
X231775000Y-128671000D01*
X231775000Y-128651000D01*
X230632085Y-128651000D01*
X230510096Y-128873039D01*
X230550754Y-129007087D01*
X230670963Y-129261420D01*
X230838481Y-129487414D01*
X231046869Y-129676385D01*
X231232865Y-129787933D01*
X231222273Y-129792320D01*
X230987241Y-129949363D01*
X230787363Y-130149241D01*
X230630320Y-130384273D01*
X230522147Y-130645426D01*
X230467000Y-130922665D01*
X225337000Y-130922665D01*
X225337000Y-128289817D01*
X225394312Y-128232505D01*
X225562299Y-127981095D01*
X225678011Y-127701743D01*
X225737000Y-127405184D01*
X225737000Y-127102816D01*
X225678011Y-126806257D01*
X225562299Y-126526905D01*
X225394312Y-126275495D01*
X225180505Y-126061688D01*
X224929095Y-125893701D01*
X224649743Y-125777989D01*
X224353184Y-125719000D01*
X224050816Y-125719000D01*
X223754257Y-125777989D01*
X223474905Y-125893701D01*
X223223495Y-126061688D01*
X223009688Y-126275495D01*
X222952000Y-126361831D01*
X222894312Y-126275495D01*
X222680505Y-126061688D01*
X222429095Y-125893701D01*
X222149743Y-125777989D01*
X221853184Y-125719000D01*
X221550816Y-125719000D01*
X221254257Y-125777989D01*
X220974905Y-125893701D01*
X220723495Y-126061688D01*
X220509688Y-126275495D01*
X220414262Y-126418310D01*
X220266080Y-126369525D01*
X219381605Y-127254000D01*
X220266080Y-128138475D01*
X220414262Y-128089690D01*
X220509688Y-128232505D01*
X220723495Y-128446312D01*
X220974905Y-128614299D01*
X221254257Y-128730011D01*
X221550816Y-128789000D01*
X221853184Y-128789000D01*
X222149743Y-128730011D01*
X222429095Y-128614299D01*
X222680505Y-128446312D01*
X222894312Y-128232505D01*
X222952000Y-128146169D01*
X223009688Y-128232505D01*
X223067001Y-128289818D01*
X223067000Y-132451867D01*
X218135870Y-137382999D01*
X217241694Y-137382999D01*
X217720601Y-137287739D01*
X218200141Y-137089107D01*
X218631715Y-136800738D01*
X218998738Y-136433715D01*
X219287107Y-136002141D01*
X219485739Y-135522601D01*
X219587000Y-135013525D01*
X219587000Y-134494475D01*
X219485739Y-133985399D01*
X219287107Y-133505859D01*
X218998738Y-133074285D01*
X218631715Y-132707262D01*
X218200141Y-132418893D01*
X217720601Y-132220261D01*
X217211525Y-132119000D01*
X216692475Y-132119000D01*
X216183399Y-132220261D01*
X215703859Y-132418893D01*
X215272285Y-132707262D01*
X214905262Y-133074285D01*
X214616893Y-133505859D01*
X214418261Y-133985399D01*
X214317000Y-134494475D01*
X214317000Y-135013525D01*
X214418261Y-135522601D01*
X214616893Y-136002141D01*
X214905262Y-136433715D01*
X215272285Y-136800738D01*
X215703859Y-137089107D01*
X216183399Y-137287739D01*
X216662306Y-137382999D01*
X213039402Y-137382999D01*
X213009932Y-137234842D01*
X212897990Y-136964589D01*
X212735475Y-136721368D01*
X212603620Y-136589513D01*
X212676180Y-136567502D01*
X212786494Y-136508537D01*
X212883185Y-136429185D01*
X212962537Y-136332494D01*
X213021502Y-136222180D01*
X213057812Y-136102482D01*
X213070072Y-135978000D01*
X213067000Y-135413750D01*
X212908250Y-135255000D01*
X211709000Y-135255000D01*
X211709000Y-135275000D01*
X211455000Y-135275000D01*
X211455000Y-135255000D01*
X210255750Y-135255000D01*
X210097000Y-135413750D01*
X210093928Y-135978000D01*
X203860000Y-135978000D01*
X203860000Y-134278000D01*
X210093928Y-134278000D01*
X210097000Y-134842250D01*
X210255750Y-135001000D01*
X211455000Y-135001000D01*
X211455000Y-133801750D01*
X211709000Y-133801750D01*
X211709000Y-135001000D01*
X212908250Y-135001000D01*
X213067000Y-134842250D01*
X213070072Y-134278000D01*
X213057812Y-134153518D01*
X213021502Y-134033820D01*
X212962537Y-133923506D01*
X212883185Y-133826815D01*
X212786494Y-133747463D01*
X212676180Y-133688498D01*
X212556482Y-133652188D01*
X212432000Y-133639928D01*
X211867750Y-133643000D01*
X211709000Y-133801750D01*
X211455000Y-133801750D01*
X211296250Y-133643000D01*
X210732000Y-133639928D01*
X210607518Y-133652188D01*
X210487820Y-133688498D01*
X210377506Y-133747463D01*
X210280815Y-133826815D01*
X210201463Y-133923506D01*
X210142498Y-134033820D01*
X210106188Y-134153518D01*
X210093928Y-134278000D01*
X203860000Y-134278000D01*
X203860000Y-128318080D01*
X218317525Y-128318080D01*
X218401208Y-128572261D01*
X218673775Y-128703158D01*
X218966642Y-128778365D01*
X219268553Y-128794991D01*
X219567907Y-128752397D01*
X219853199Y-128652222D01*
X220002792Y-128572261D01*
X220086475Y-128318080D01*
X219202000Y-127433605D01*
X218317525Y-128318080D01*
X203860000Y-128318080D01*
X203860000Y-127320553D01*
X217661009Y-127320553D01*
X217703603Y-127619907D01*
X217803778Y-127905199D01*
X217883739Y-128054792D01*
X218137920Y-128138475D01*
X219022395Y-127254000D01*
X218137920Y-126369525D01*
X217883739Y-126453208D01*
X217752842Y-126725775D01*
X217677635Y-127018642D01*
X217661009Y-127320553D01*
X203860000Y-127320553D01*
X203860000Y-126189920D01*
X218317525Y-126189920D01*
X219202000Y-127074395D01*
X220086475Y-126189920D01*
X220002792Y-125935739D01*
X219730225Y-125804842D01*
X219437358Y-125729635D01*
X219135447Y-125713009D01*
X218836093Y-125755603D01*
X218550801Y-125855778D01*
X218401208Y-125935739D01*
X218317525Y-126189920D01*
X203860000Y-126189920D01*
X203860000Y-115418891D01*
X218522519Y-115418891D01*
X218619843Y-115693252D01*
X218768822Y-115943355D01*
X218963731Y-116159588D01*
X219197080Y-116333641D01*
X219459901Y-116458825D01*
X219607110Y-116503476D01*
X219837000Y-116382155D01*
X219837000Y-115189000D01*
X218643186Y-115189000D01*
X218522519Y-115418891D01*
X203860000Y-115418891D01*
X203860000Y-114705109D01*
X218522519Y-114705109D01*
X218643186Y-114935000D01*
X219837000Y-114935000D01*
X219837000Y-113741845D01*
X220091000Y-113741845D01*
X220091000Y-114935000D01*
X220111000Y-114935000D01*
X220111000Y-115189000D01*
X220091000Y-115189000D01*
X220091000Y-116382155D01*
X220320890Y-116503476D01*
X220468099Y-116458825D01*
X220730920Y-116333641D01*
X220964269Y-116159588D01*
X221040034Y-116075534D01*
X221064498Y-116156180D01*
X221123463Y-116266494D01*
X221202815Y-116363185D01*
X221299506Y-116442537D01*
X221369000Y-116479683D01*
X221369000Y-116967751D01*
X221369001Y-116967761D01*
X221369000Y-119653618D01*
X221363509Y-119709370D01*
X221369000Y-119765121D01*
X221385423Y-119931868D01*
X221450324Y-120145816D01*
X221555716Y-120342993D01*
X221697551Y-120515819D01*
X221740865Y-120551366D01*
X223578639Y-122389141D01*
X223614181Y-122432449D01*
X223787007Y-122574284D01*
X223984183Y-122679676D01*
X224148335Y-122729471D01*
X224198130Y-122744577D01*
X224420629Y-122766491D01*
X224476381Y-122761000D01*
X224667716Y-122761000D01*
X224872273Y-122897680D01*
X225133426Y-123005853D01*
X225410665Y-123061000D01*
X225693335Y-123061000D01*
X225970574Y-123005853D01*
X226231727Y-122897680D01*
X226466759Y-122740637D01*
X226666637Y-122540759D01*
X226823680Y-122305727D01*
X226931853Y-122044574D01*
X226987000Y-121767335D01*
X226987000Y-121484665D01*
X226931853Y-121207426D01*
X226823680Y-120946273D01*
X226666637Y-120711241D01*
X226500057Y-120544661D01*
X226596180Y-120515502D01*
X226706494Y-120456537D01*
X226803185Y-120377185D01*
X226882537Y-120280494D01*
X226941502Y-120170180D01*
X226977812Y-120050482D01*
X226990072Y-119926000D01*
X226990072Y-118326000D01*
X226977812Y-118201518D01*
X226941502Y-118081820D01*
X226882537Y-117971506D01*
X226803185Y-117874815D01*
X226706494Y-117795463D01*
X226596180Y-117736498D01*
X226476482Y-117700188D01*
X226352000Y-117687928D01*
X224752000Y-117687928D01*
X224627518Y-117700188D01*
X224507820Y-117736498D01*
X224397506Y-117795463D01*
X224300815Y-117874815D01*
X224221463Y-117971506D01*
X224162498Y-118081820D01*
X224126188Y-118201518D01*
X224113928Y-118326000D01*
X224113928Y-119714167D01*
X223639000Y-119239239D01*
X223639000Y-116479683D01*
X223708494Y-116442537D01*
X223805185Y-116363185D01*
X223884537Y-116266494D01*
X223943502Y-116156180D01*
X223979812Y-116036482D01*
X223992072Y-115912000D01*
X223992072Y-114212000D01*
X223979812Y-114087518D01*
X223943502Y-113967820D01*
X223884537Y-113857506D01*
X223805185Y-113760815D01*
X223708494Y-113681463D01*
X223598180Y-113622498D01*
X223478482Y-113586188D01*
X223354000Y-113573928D01*
X221654000Y-113573928D01*
X221529518Y-113586188D01*
X221409820Y-113622498D01*
X221299506Y-113681463D01*
X221202815Y-113760815D01*
X221123463Y-113857506D01*
X221064498Y-113967820D01*
X221040034Y-114048466D01*
X220964269Y-113964412D01*
X220730920Y-113790359D01*
X220468099Y-113665175D01*
X220320890Y-113620524D01*
X220091000Y-113741845D01*
X219837000Y-113741845D01*
X219607110Y-113620524D01*
X219459901Y-113665175D01*
X219197080Y-113790359D01*
X218963731Y-113964412D01*
X218768822Y-114180645D01*
X218619843Y-114430748D01*
X218522519Y-114705109D01*
X203860000Y-114705109D01*
X203860000Y-111093040D01*
X213492091Y-111093040D01*
X213586930Y-111357881D01*
X213731615Y-111599131D01*
X213920586Y-111807519D01*
X214146580Y-111975037D01*
X214400913Y-112095246D01*
X214534961Y-112135904D01*
X214757000Y-112013915D01*
X214757000Y-110871000D01*
X215011000Y-110871000D01*
X215011000Y-112013915D01*
X215233039Y-112135904D01*
X215367087Y-112095246D01*
X215621420Y-111975037D01*
X215847414Y-111807519D01*
X216036385Y-111599131D01*
X216181070Y-111357881D01*
X216275909Y-111093040D01*
X216154624Y-110871000D01*
X215011000Y-110871000D01*
X214757000Y-110871000D01*
X213613376Y-110871000D01*
X213492091Y-111093040D01*
X203860000Y-111093040D01*
X203860000Y-110394960D01*
X213492091Y-110394960D01*
X213613376Y-110617000D01*
X214757000Y-110617000D01*
X214757000Y-109474085D01*
X215011000Y-109474085D01*
X215011000Y-110617000D01*
X216154624Y-110617000D01*
X216275909Y-110394960D01*
X216181070Y-110130119D01*
X216169289Y-110110475D01*
X227779000Y-110110475D01*
X227779000Y-110629525D01*
X227880261Y-111138601D01*
X228078893Y-111618141D01*
X228367262Y-112049715D01*
X228734285Y-112416738D01*
X229165859Y-112705107D01*
X229645399Y-112903739D01*
X230154475Y-113005000D01*
X230673525Y-113005000D01*
X231182601Y-112903739D01*
X231662141Y-112705107D01*
X232093715Y-112416738D01*
X232429000Y-112081453D01*
X232429000Y-115469868D01*
X229360865Y-118538004D01*
X229317551Y-118573551D01*
X229175716Y-118746377D01*
X229092042Y-118902922D01*
X229070324Y-118943554D01*
X229005423Y-119157502D01*
X228983509Y-119380000D01*
X228989000Y-119435752D01*
X228989001Y-122350239D01*
X228983509Y-122406000D01*
X229005423Y-122628498D01*
X229070324Y-122842446D01*
X229070325Y-122842447D01*
X229175717Y-123039623D01*
X229317552Y-123212449D01*
X229360860Y-123247991D01*
X230759773Y-124646906D01*
X230747506Y-124653463D01*
X230650815Y-124732815D01*
X230571463Y-124829506D01*
X230512498Y-124939820D01*
X230476188Y-125059518D01*
X230463928Y-125184000D01*
X230463928Y-126784000D01*
X230476188Y-126908482D01*
X230512498Y-127028180D01*
X230571463Y-127138494D01*
X230650815Y-127235185D01*
X230747506Y-127314537D01*
X230857820Y-127373502D01*
X230977518Y-127409812D01*
X231002080Y-127412231D01*
X230838481Y-127560586D01*
X230670963Y-127786580D01*
X230550754Y-128040913D01*
X230510096Y-128174961D01*
X230632085Y-128397000D01*
X231775000Y-128397000D01*
X231775000Y-128377000D01*
X232029000Y-128377000D01*
X232029000Y-128397000D01*
X233171915Y-128397000D01*
X233293904Y-128174961D01*
X233253246Y-128040913D01*
X233133037Y-127786580D01*
X232965519Y-127560586D01*
X232801920Y-127412231D01*
X232826482Y-127409812D01*
X232946180Y-127373502D01*
X233056494Y-127314537D01*
X233153185Y-127235185D01*
X233232537Y-127138494D01*
X233291502Y-127028180D01*
X233327812Y-126908482D01*
X233340072Y-126784000D01*
X233340072Y-125184000D01*
X233327812Y-125059518D01*
X233291502Y-124939820D01*
X233232537Y-124829506D01*
X233153185Y-124732815D01*
X233056494Y-124653463D01*
X233037000Y-124643043D01*
X233037000Y-124239752D01*
X233042491Y-124184000D01*
X233020577Y-123961501D01*
X232955676Y-123747553D01*
X232850284Y-123550377D01*
X232743989Y-123420856D01*
X232743987Y-123420854D01*
X232708449Y-123377551D01*
X232665146Y-123342013D01*
X232270098Y-122946966D01*
X232431996Y-123023571D01*
X232706184Y-123092300D01*
X232988512Y-123106217D01*
X233268130Y-123064787D01*
X233534292Y-122969603D01*
X233659514Y-122902671D01*
X233731097Y-122658702D01*
X232918000Y-121845605D01*
X232903858Y-121859748D01*
X232724253Y-121680143D01*
X232738395Y-121666000D01*
X233097605Y-121666000D01*
X233910702Y-122479097D01*
X234154671Y-122407514D01*
X234275571Y-122152004D01*
X234344300Y-121877816D01*
X234358217Y-121595488D01*
X234316787Y-121315870D01*
X234221603Y-121049708D01*
X234154671Y-120924486D01*
X233910702Y-120852903D01*
X233097605Y-121666000D01*
X232738395Y-121666000D01*
X231925298Y-120852903D01*
X231681329Y-120924486D01*
X231560429Y-121179996D01*
X231491700Y-121454184D01*
X231477783Y-121736512D01*
X231519213Y-122016130D01*
X231614397Y-122282292D01*
X231624701Y-122301569D01*
X231259000Y-121935869D01*
X231259000Y-120673298D01*
X232104903Y-120673298D01*
X232918000Y-121486395D01*
X233731097Y-120673298D01*
X233659514Y-120429329D01*
X233404004Y-120308429D01*
X233129816Y-120239700D01*
X232847488Y-120225783D01*
X232567870Y-120267213D01*
X232301708Y-120362397D01*
X232176486Y-120429329D01*
X232104903Y-120673298D01*
X231259000Y-120673298D01*
X231259000Y-119850131D01*
X234327140Y-116781992D01*
X234370448Y-116746450D01*
X234512283Y-116573624D01*
X234617675Y-116376448D01*
X234682576Y-116162500D01*
X234698999Y-115995753D01*
X234698999Y-115995744D01*
X234704489Y-115940002D01*
X234698999Y-115884260D01*
X234698999Y-110110475D01*
X237279000Y-110110475D01*
X237279000Y-110629525D01*
X237380261Y-111138601D01*
X237578893Y-111618141D01*
X237867262Y-112049715D01*
X238234285Y-112416738D01*
X238665859Y-112705107D01*
X239145399Y-112903739D01*
X239654475Y-113005000D01*
X240173525Y-113005000D01*
X240682601Y-112903739D01*
X241162141Y-112705107D01*
X241593715Y-112416738D01*
X241960738Y-112049715D01*
X242249107Y-111618141D01*
X242447739Y-111138601D01*
X242549000Y-110629525D01*
X242549000Y-110110475D01*
X242447739Y-109601399D01*
X242249107Y-109121859D01*
X241960738Y-108690285D01*
X241593715Y-108323262D01*
X241162141Y-108034893D01*
X240682601Y-107836261D01*
X240173525Y-107735000D01*
X239654475Y-107735000D01*
X239145399Y-107836261D01*
X238665859Y-108034893D01*
X238234285Y-108323262D01*
X237867262Y-108690285D01*
X237578893Y-109121859D01*
X237380261Y-109601399D01*
X237279000Y-110110475D01*
X234698999Y-110110475D01*
X234698999Y-104338862D01*
X234716257Y-104346011D01*
X235012816Y-104405000D01*
X235093868Y-104405000D01*
X237116013Y-106427146D01*
X237151551Y-106470449D01*
X237194854Y-106505987D01*
X237194856Y-106505989D01*
X237324377Y-106612284D01*
X237521553Y-106717676D01*
X237735501Y-106782577D01*
X237958000Y-106804491D01*
X238013752Y-106799000D01*
X243877869Y-106799000D01*
X245673001Y-108594133D01*
X245673000Y-117987716D01*
X245536320Y-118192273D01*
X245428147Y-118453426D01*
X245373000Y-118730665D01*
X245373000Y-119013335D01*
X245428147Y-119290574D01*
X245536320Y-119551727D01*
X245693363Y-119786759D01*
X245893241Y-119986637D01*
X246128273Y-120143680D01*
X246389426Y-120251853D01*
X246666665Y-120307000D01*
X246949335Y-120307000D01*
X247226574Y-120251853D01*
X247487727Y-120143680D01*
X247722759Y-119986637D01*
X247922637Y-119786759D01*
X248079680Y-119551727D01*
X248187853Y-119290574D01*
X248243000Y-119013335D01*
X248243000Y-118730665D01*
X248187853Y-118453426D01*
X248079680Y-118192273D01*
X247943000Y-117987716D01*
X247943000Y-108179741D01*
X247948490Y-108123999D01*
X247943000Y-108068257D01*
X247943000Y-108068248D01*
X247926577Y-107901501D01*
X247861676Y-107687553D01*
X247756284Y-107490377D01*
X247614449Y-107317551D01*
X247571141Y-107282009D01*
X245189996Y-104900865D01*
X245154449Y-104857551D01*
X244981623Y-104715716D01*
X244784447Y-104610324D01*
X244570499Y-104545423D01*
X244403752Y-104529000D01*
X244403751Y-104529000D01*
X244348000Y-104523509D01*
X244292249Y-104529000D01*
X238428133Y-104529000D01*
X238206071Y-104306939D01*
X238391095Y-104230299D01*
X238642505Y-104062312D01*
X238856312Y-103848505D01*
X239024299Y-103597095D01*
X239140011Y-103317743D01*
X239199000Y-103021184D01*
X239199000Y-102718816D01*
X239140011Y-102422257D01*
X239024299Y-102142905D01*
X238856312Y-101891495D01*
X238642505Y-101677688D01*
X238391095Y-101509701D01*
X238111743Y-101393989D01*
X237815184Y-101335000D01*
X237512816Y-101335000D01*
X237216257Y-101393989D01*
X236936905Y-101509701D01*
X236685495Y-101677688D01*
X236471688Y-101891495D01*
X236414000Y-101977831D01*
X236356312Y-101891495D01*
X236142505Y-101677688D01*
X235891095Y-101509701D01*
X235611743Y-101393989D01*
X235315184Y-101335000D01*
X235012816Y-101335000D01*
X234716257Y-101393989D01*
X234436905Y-101509701D01*
X234185495Y-101677688D01*
X233971688Y-101891495D01*
X233914000Y-101977831D01*
X233856312Y-101891495D01*
X233642505Y-101677688D01*
X233391095Y-101509701D01*
X233111743Y-101393989D01*
X232815184Y-101335000D01*
X232512816Y-101335000D01*
X232216257Y-101393989D01*
X231936905Y-101509701D01*
X231685495Y-101677688D01*
X231471688Y-101891495D01*
X231303701Y-102142905D01*
X231187989Y-102422257D01*
X231129000Y-102718816D01*
X231129000Y-103021184D01*
X231187989Y-103317743D01*
X231303701Y-103597095D01*
X231471688Y-103848505D01*
X231685495Y-104062312D01*
X231936905Y-104230299D01*
X232216257Y-104346011D01*
X232428999Y-104388328D01*
X232428999Y-108658546D01*
X232093715Y-108323262D01*
X231662141Y-108034893D01*
X231182601Y-107836261D01*
X230673525Y-107735000D01*
X230154475Y-107735000D01*
X229645399Y-107836261D01*
X229165859Y-108034893D01*
X228734285Y-108323262D01*
X228367262Y-108690285D01*
X228078893Y-109121859D01*
X227880261Y-109601399D01*
X227779000Y-110110475D01*
X216169289Y-110110475D01*
X216036385Y-109888869D01*
X215847414Y-109680481D01*
X215621420Y-109512963D01*
X215367087Y-109392754D01*
X215233039Y-109352096D01*
X215011000Y-109474085D01*
X214757000Y-109474085D01*
X214534961Y-109352096D01*
X214400913Y-109392754D01*
X214146580Y-109512963D01*
X213920586Y-109680481D01*
X213731615Y-109888869D01*
X213586930Y-110130119D01*
X213492091Y-110394960D01*
X203860000Y-110394960D01*
X203860000Y-102982665D01*
X213449000Y-102982665D01*
X213449000Y-103265335D01*
X213504147Y-103542574D01*
X213612320Y-103803727D01*
X213769363Y-104038759D01*
X213969241Y-104238637D01*
X214204273Y-104395680D01*
X214465426Y-104503853D01*
X214742665Y-104559000D01*
X215025335Y-104559000D01*
X215302574Y-104503853D01*
X215563727Y-104395680D01*
X215798759Y-104238637D01*
X215998637Y-104038759D01*
X216155680Y-103803727D01*
X216263853Y-103542574D01*
X216319000Y-103265335D01*
X216319000Y-103236665D01*
X219117000Y-103236665D01*
X219117000Y-103519335D01*
X219172147Y-103796574D01*
X219280320Y-104057727D01*
X219437363Y-104292759D01*
X219637241Y-104492637D01*
X219872273Y-104649680D01*
X220133426Y-104757853D01*
X220410665Y-104813000D01*
X220693335Y-104813000D01*
X220970574Y-104757853D01*
X221231727Y-104649680D01*
X221466759Y-104492637D01*
X221666637Y-104292759D01*
X221823680Y-104057727D01*
X221931853Y-103796574D01*
X221987000Y-103519335D01*
X221987000Y-103236665D01*
X224117000Y-103236665D01*
X224117000Y-103519335D01*
X224172147Y-103796574D01*
X224280320Y-104057727D01*
X224437363Y-104292759D01*
X224637241Y-104492637D01*
X224872273Y-104649680D01*
X225133426Y-104757853D01*
X225410665Y-104813000D01*
X225693335Y-104813000D01*
X225970574Y-104757853D01*
X226231727Y-104649680D01*
X226466759Y-104492637D01*
X226666637Y-104292759D01*
X226823680Y-104057727D01*
X226931853Y-103796574D01*
X226987000Y-103519335D01*
X226987000Y-103236665D01*
X226931853Y-102959426D01*
X226823680Y-102698273D01*
X226666637Y-102463241D01*
X226466759Y-102263363D01*
X226231727Y-102106320D01*
X225970574Y-101998147D01*
X225693335Y-101943000D01*
X225410665Y-101943000D01*
X225133426Y-101998147D01*
X224872273Y-102106320D01*
X224637241Y-102263363D01*
X224437363Y-102463241D01*
X224280320Y-102698273D01*
X224172147Y-102959426D01*
X224117000Y-103236665D01*
X221987000Y-103236665D01*
X221931853Y-102959426D01*
X221823680Y-102698273D01*
X221666637Y-102463241D01*
X221466759Y-102263363D01*
X221231727Y-102106320D01*
X220970574Y-101998147D01*
X220693335Y-101943000D01*
X220410665Y-101943000D01*
X220133426Y-101998147D01*
X219872273Y-102106320D01*
X219637241Y-102263363D01*
X219437363Y-102463241D01*
X219280320Y-102698273D01*
X219172147Y-102959426D01*
X219117000Y-103236665D01*
X216319000Y-103236665D01*
X216319000Y-102982665D01*
X216263853Y-102705426D01*
X216155680Y-102444273D01*
X215998637Y-102209241D01*
X215798759Y-102009363D01*
X215563727Y-101852320D01*
X215302574Y-101744147D01*
X215025335Y-101689000D01*
X214742665Y-101689000D01*
X214465426Y-101744147D01*
X214204273Y-101852320D01*
X213969241Y-102009363D01*
X213769363Y-102209241D01*
X213612320Y-102444273D01*
X213504147Y-102705426D01*
X213449000Y-102982665D01*
X203860000Y-102982665D01*
X203860000Y-97180000D01*
X258420001Y-97180000D01*
X258420000Y-141580000D01*
M02*
