M48
; DRILL file {KiCad 5.1.5-52549c5~84~ubuntu18.04.1} date Tue 24 Mar 2020 10:40:59 PM CDT
; FORMAT={-:-/ absolute / inch / decimal}
; #@! TF.CreationDate,2020-03-24T22:40:59-05:00
; #@! TF.GenerationSoftware,Kicad,Pcbnew,5.1.5-52549c5~84~ubuntu18.04.1
; #@! TF.FileFunction,Plated,1,2,PTH
FMAT,2
INCH
T1C0.0315
T2C0.0394
%
G90
G05
T1
X9.43Y-5.16
X9.43Y-5.26
X9.7169Y-4.68
X9.3669Y-4.79
X10.02Y-4.74
X8.46Y-4.06
X8.46Y-4.36
X9.13Y-4.96
X9.13Y-5.06
X9.13Y-5.16
X9.13Y-5.26
X9.43Y-4.96
X9.43Y-5.06
X8.88Y-4.69
X8.88Y-4.7884
X9.52Y-4.68
X9.17Y-4.79
X9.9216Y-4.74
X8.6831Y-4.07
X8.88Y-4.07
T2
X9.7331Y-5.46
X9.8316Y-5.46
X9.93Y-5.46
X9.16Y-4.05
X9.2584Y-4.05
X9.3569Y-4.05
X8.33Y-5.32
X8.33Y-5.42
X9.23Y-5.44
X9.33Y-5.44
X8.63Y-5.01
X8.7284Y-5.01
X8.8269Y-5.01
X8.66Y-4.53
X8.76Y-4.53
T0
M30
