G04 #@! TF.GenerationSoftware,KiCad,Pcbnew,5.1.5-52549c5~84~ubuntu18.04.1*
G04 #@! TF.CreationDate,2020-03-24T22:40:52-05:00*
G04 #@! TF.ProjectId,lm386-guitaramp,6c6d3338-362d-4677-9569-746172616d70,rev?*
G04 #@! TF.SameCoordinates,Original*
G04 #@! TF.FileFunction,Soldermask,Top*
G04 #@! TF.FilePolarity,Negative*
%FSLAX46Y46*%
G04 Gerber Fmt 4.6, Leading zero omitted, Abs format (unit mm)*
G04 Created by KiCad (PCBNEW 5.1.5-52549c5~84~ubuntu18.04.1) date 2020-03-24 22:40:52*
%MOMM*%
%LPD*%
G04 APERTURE LIST*
%ADD10C,0.100000*%
G04 APERTURE END LIST*
D10*
G36*
X247499395Y-137769546D02*
G01*
X247672466Y-137841234D01*
X247672467Y-137841235D01*
X247828227Y-137945310D01*
X247960690Y-138077773D01*
X247967028Y-138087259D01*
X248064766Y-138233534D01*
X248136454Y-138406605D01*
X248173000Y-138590333D01*
X248173000Y-138777667D01*
X248136454Y-138961395D01*
X248064766Y-139134466D01*
X248064765Y-139134467D01*
X247960690Y-139290227D01*
X247828227Y-139422690D01*
X247749818Y-139475081D01*
X247672466Y-139526766D01*
X247499395Y-139598454D01*
X247315667Y-139635000D01*
X247128333Y-139635000D01*
X246944605Y-139598454D01*
X246771534Y-139526766D01*
X246694182Y-139475081D01*
X246615773Y-139422690D01*
X246483310Y-139290227D01*
X246379235Y-139134467D01*
X246379234Y-139134466D01*
X246307546Y-138961395D01*
X246271000Y-138777667D01*
X246271000Y-138590333D01*
X246307546Y-138406605D01*
X246379234Y-138233534D01*
X246476972Y-138087259D01*
X246483310Y-138077773D01*
X246615773Y-137945310D01*
X246771533Y-137841235D01*
X246771534Y-137841234D01*
X246944605Y-137769546D01*
X247128333Y-137733000D01*
X247315667Y-137733000D01*
X247499395Y-137769546D01*
G37*
G36*
X249999395Y-137769546D02*
G01*
X250172466Y-137841234D01*
X250172467Y-137841235D01*
X250328227Y-137945310D01*
X250460690Y-138077773D01*
X250467028Y-138087259D01*
X250564766Y-138233534D01*
X250636454Y-138406605D01*
X250673000Y-138590333D01*
X250673000Y-138777667D01*
X250636454Y-138961395D01*
X250564766Y-139134466D01*
X250564765Y-139134467D01*
X250460690Y-139290227D01*
X250328227Y-139422690D01*
X250249818Y-139475081D01*
X250172466Y-139526766D01*
X249999395Y-139598454D01*
X249815667Y-139635000D01*
X249628333Y-139635000D01*
X249444605Y-139598454D01*
X249271534Y-139526766D01*
X249194182Y-139475081D01*
X249115773Y-139422690D01*
X248983310Y-139290227D01*
X248879235Y-139134467D01*
X248879234Y-139134466D01*
X248807546Y-138961395D01*
X248771000Y-138777667D01*
X248771000Y-138590333D01*
X248807546Y-138406605D01*
X248879234Y-138233534D01*
X248976972Y-138087259D01*
X248983310Y-138077773D01*
X249115773Y-137945310D01*
X249271533Y-137841235D01*
X249271534Y-137841234D01*
X249444605Y-137769546D01*
X249628333Y-137733000D01*
X249815667Y-137733000D01*
X249999395Y-137769546D01*
G37*
G36*
X252499395Y-137769546D02*
G01*
X252672466Y-137841234D01*
X252672467Y-137841235D01*
X252828227Y-137945310D01*
X252960690Y-138077773D01*
X252967028Y-138087259D01*
X253064766Y-138233534D01*
X253136454Y-138406605D01*
X253173000Y-138590333D01*
X253173000Y-138777667D01*
X253136454Y-138961395D01*
X253064766Y-139134466D01*
X253064765Y-139134467D01*
X252960690Y-139290227D01*
X252828227Y-139422690D01*
X252749818Y-139475081D01*
X252672466Y-139526766D01*
X252499395Y-139598454D01*
X252315667Y-139635000D01*
X252128333Y-139635000D01*
X251944605Y-139598454D01*
X251771534Y-139526766D01*
X251694182Y-139475081D01*
X251615773Y-139422690D01*
X251483310Y-139290227D01*
X251379235Y-139134467D01*
X251379234Y-139134466D01*
X251307546Y-138961395D01*
X251271000Y-138777667D01*
X251271000Y-138590333D01*
X251307546Y-138406605D01*
X251379234Y-138233534D01*
X251476972Y-138087259D01*
X251483310Y-138077773D01*
X251615773Y-137945310D01*
X251771533Y-137841235D01*
X251771534Y-137841234D01*
X251944605Y-137769546D01*
X252128333Y-137733000D01*
X252315667Y-137733000D01*
X252499395Y-137769546D01*
G37*
G36*
X237883000Y-139077000D02*
G01*
X236081000Y-139077000D01*
X236081000Y-137275000D01*
X237883000Y-137275000D01*
X237883000Y-139077000D01*
G37*
G36*
X234555512Y-137279927D02*
G01*
X234704812Y-137309624D01*
X234868784Y-137377544D01*
X235016354Y-137476147D01*
X235141853Y-137601646D01*
X235240456Y-137749216D01*
X235308376Y-137913188D01*
X235343000Y-138087259D01*
X235343000Y-138264741D01*
X235308376Y-138438812D01*
X235240456Y-138602784D01*
X235141853Y-138750354D01*
X235016354Y-138875853D01*
X234868784Y-138974456D01*
X234704812Y-139042376D01*
X234555512Y-139072073D01*
X234530742Y-139077000D01*
X234353258Y-139077000D01*
X234328488Y-139072073D01*
X234179188Y-139042376D01*
X234015216Y-138974456D01*
X233867646Y-138875853D01*
X233742147Y-138750354D01*
X233643544Y-138602784D01*
X233575624Y-138438812D01*
X233541000Y-138264741D01*
X233541000Y-138087259D01*
X233575624Y-137913188D01*
X233643544Y-137749216D01*
X233742147Y-137601646D01*
X233867646Y-137476147D01*
X234015216Y-137377544D01*
X234179188Y-137309624D01*
X234328488Y-137279927D01*
X234353258Y-137275000D01*
X234530742Y-137275000D01*
X234555512Y-137279927D01*
G37*
G36*
X211695512Y-136771927D02*
G01*
X211844812Y-136801624D01*
X212008784Y-136869544D01*
X212156354Y-136968147D01*
X212281853Y-137093646D01*
X212380456Y-137241216D01*
X212448376Y-137405188D01*
X212483000Y-137579259D01*
X212483000Y-137756741D01*
X212448376Y-137930812D01*
X212380456Y-138094784D01*
X212281853Y-138242354D01*
X212156354Y-138367853D01*
X212008784Y-138466456D01*
X211844812Y-138534376D01*
X211695512Y-138564073D01*
X211670742Y-138569000D01*
X211493258Y-138569000D01*
X211468488Y-138564073D01*
X211319188Y-138534376D01*
X211155216Y-138466456D01*
X211007646Y-138367853D01*
X210882147Y-138242354D01*
X210783544Y-138094784D01*
X210715624Y-137930812D01*
X210681000Y-137756741D01*
X210681000Y-137579259D01*
X210715624Y-137405188D01*
X210783544Y-137241216D01*
X210882147Y-137093646D01*
X211007646Y-136968147D01*
X211155216Y-136869544D01*
X211319188Y-136801624D01*
X211468488Y-136771927D01*
X211493258Y-136767000D01*
X211670742Y-136767000D01*
X211695512Y-136771927D01*
G37*
G36*
X227050254Y-132781818D02*
G01*
X227423511Y-132936426D01*
X227423513Y-132936427D01*
X227759436Y-133160884D01*
X228045116Y-133446564D01*
X228206316Y-133687816D01*
X228269574Y-133782489D01*
X228424182Y-134155746D01*
X228503000Y-134551993D01*
X228503000Y-134956007D01*
X228424182Y-135352254D01*
X228269574Y-135725511D01*
X228269573Y-135725513D01*
X228045116Y-136061436D01*
X227759436Y-136347116D01*
X227423513Y-136571573D01*
X227423512Y-136571574D01*
X227423511Y-136571574D01*
X227050254Y-136726182D01*
X226654007Y-136805000D01*
X226249993Y-136805000D01*
X225853746Y-136726182D01*
X225480489Y-136571574D01*
X225480488Y-136571574D01*
X225480487Y-136571573D01*
X225144564Y-136347116D01*
X224858884Y-136061436D01*
X224634427Y-135725513D01*
X224634426Y-135725511D01*
X224479818Y-135352254D01*
X224401000Y-134956007D01*
X224401000Y-134551993D01*
X224479818Y-134155746D01*
X224634426Y-133782489D01*
X224697685Y-133687816D01*
X224858884Y-133446564D01*
X225144564Y-133160884D01*
X225480487Y-132936427D01*
X225480489Y-132936426D01*
X225853746Y-132781818D01*
X226249993Y-132703000D01*
X226654007Y-132703000D01*
X227050254Y-132781818D01*
G37*
G36*
X217550254Y-132781818D02*
G01*
X217923511Y-132936426D01*
X217923513Y-132936427D01*
X218259436Y-133160884D01*
X218545116Y-133446564D01*
X218706316Y-133687816D01*
X218769574Y-133782489D01*
X218924182Y-134155746D01*
X219003000Y-134551993D01*
X219003000Y-134956007D01*
X218924182Y-135352254D01*
X218769574Y-135725511D01*
X218769573Y-135725513D01*
X218545116Y-136061436D01*
X218259436Y-136347116D01*
X217923513Y-136571573D01*
X217923512Y-136571574D01*
X217923511Y-136571574D01*
X217550254Y-136726182D01*
X217154007Y-136805000D01*
X216749993Y-136805000D01*
X216353746Y-136726182D01*
X215980489Y-136571574D01*
X215980488Y-136571574D01*
X215980487Y-136571573D01*
X215644564Y-136347116D01*
X215358884Y-136061436D01*
X215134427Y-135725513D01*
X215134426Y-135725511D01*
X214979818Y-135352254D01*
X214901000Y-134956007D01*
X214901000Y-134551993D01*
X214979818Y-134155746D01*
X215134426Y-133782489D01*
X215197685Y-133687816D01*
X215358884Y-133446564D01*
X215644564Y-133160884D01*
X215980487Y-132936427D01*
X215980489Y-132936426D01*
X216353746Y-132781818D01*
X216749993Y-132703000D01*
X217154007Y-132703000D01*
X217550254Y-132781818D01*
G37*
G36*
X212483000Y-136029000D02*
G01*
X210681000Y-136029000D01*
X210681000Y-134227000D01*
X212483000Y-134227000D01*
X212483000Y-136029000D01*
G37*
G36*
X239770228Y-132785703D02*
G01*
X239925100Y-132849853D01*
X240064481Y-132942985D01*
X240183015Y-133061519D01*
X240276147Y-133200900D01*
X240340297Y-133355772D01*
X240373000Y-133520184D01*
X240373000Y-133687816D01*
X240340297Y-133852228D01*
X240276147Y-134007100D01*
X240183015Y-134146481D01*
X240064481Y-134265015D01*
X239925100Y-134358147D01*
X239770228Y-134422297D01*
X239605816Y-134455000D01*
X239438184Y-134455000D01*
X239273772Y-134422297D01*
X239118900Y-134358147D01*
X238979519Y-134265015D01*
X238860985Y-134146481D01*
X238767853Y-134007100D01*
X238703703Y-133852228D01*
X238671000Y-133687816D01*
X238671000Y-133520184D01*
X238703703Y-133355772D01*
X238767853Y-133200900D01*
X238860985Y-133061519D01*
X238979519Y-132942985D01*
X239118900Y-132849853D01*
X239273772Y-132785703D01*
X239438184Y-132753000D01*
X239605816Y-132753000D01*
X239770228Y-132785703D01*
G37*
G36*
X232150228Y-132785703D02*
G01*
X232305100Y-132849853D01*
X232444481Y-132942985D01*
X232563015Y-133061519D01*
X232656147Y-133200900D01*
X232720297Y-133355772D01*
X232753000Y-133520184D01*
X232753000Y-133687816D01*
X232720297Y-133852228D01*
X232656147Y-134007100D01*
X232563015Y-134146481D01*
X232444481Y-134265015D01*
X232305100Y-134358147D01*
X232150228Y-134422297D01*
X231985816Y-134455000D01*
X231818184Y-134455000D01*
X231653772Y-134422297D01*
X231498900Y-134358147D01*
X231359519Y-134265015D01*
X231240985Y-134146481D01*
X231147853Y-134007100D01*
X231083703Y-133852228D01*
X231051000Y-133687816D01*
X231051000Y-133520184D01*
X231083703Y-133355772D01*
X231147853Y-133200900D01*
X231240985Y-133061519D01*
X231359519Y-132942985D01*
X231498900Y-132849853D01*
X231653772Y-132785703D01*
X231818184Y-132753000D01*
X231985816Y-132753000D01*
X232150228Y-132785703D01*
G37*
G36*
X245570254Y-129211818D02*
G01*
X245885258Y-129342297D01*
X245943513Y-129366427D01*
X245956343Y-129375000D01*
X246279436Y-129590884D01*
X246565116Y-129876564D01*
X246789574Y-130212489D01*
X246944182Y-130585746D01*
X247023000Y-130981993D01*
X247023000Y-131386007D01*
X246944182Y-131782254D01*
X246789574Y-132155511D01*
X246789573Y-132155513D01*
X246565116Y-132491436D01*
X246279436Y-132777116D01*
X245943513Y-133001573D01*
X245943512Y-133001574D01*
X245943511Y-133001574D01*
X245570254Y-133156182D01*
X245174007Y-133235000D01*
X244769993Y-133235000D01*
X244373746Y-133156182D01*
X244000489Y-133001574D01*
X244000488Y-133001574D01*
X244000487Y-133001573D01*
X243664564Y-132777116D01*
X243378884Y-132491436D01*
X243154427Y-132155513D01*
X243154426Y-132155511D01*
X242999818Y-131782254D01*
X242921000Y-131386007D01*
X242921000Y-130981993D01*
X242999818Y-130585746D01*
X243154426Y-130212489D01*
X243378884Y-129876564D01*
X243664564Y-129590884D01*
X243987657Y-129375000D01*
X244000487Y-129366427D01*
X244058742Y-129342297D01*
X244373746Y-129211818D01*
X244769993Y-129133000D01*
X245174007Y-129133000D01*
X245570254Y-129211818D01*
G37*
G36*
X255070254Y-129211818D02*
G01*
X255385258Y-129342297D01*
X255443513Y-129366427D01*
X255456343Y-129375000D01*
X255779436Y-129590884D01*
X256065116Y-129876564D01*
X256289574Y-130212489D01*
X256444182Y-130585746D01*
X256523000Y-130981993D01*
X256523000Y-131386007D01*
X256444182Y-131782254D01*
X256289574Y-132155511D01*
X256289573Y-132155513D01*
X256065116Y-132491436D01*
X255779436Y-132777116D01*
X255443513Y-133001573D01*
X255443512Y-133001574D01*
X255443511Y-133001574D01*
X255070254Y-133156182D01*
X254674007Y-133235000D01*
X254269993Y-133235000D01*
X253873746Y-133156182D01*
X253500489Y-133001574D01*
X253500488Y-133001574D01*
X253500487Y-133001573D01*
X253164564Y-132777116D01*
X252878884Y-132491436D01*
X252654427Y-132155513D01*
X252654426Y-132155511D01*
X252499818Y-131782254D01*
X252421000Y-131386007D01*
X252421000Y-130981993D01*
X252499818Y-130585746D01*
X252654426Y-130212489D01*
X252878884Y-129876564D01*
X253164564Y-129590884D01*
X253487657Y-129375000D01*
X253500487Y-129366427D01*
X253558742Y-129342297D01*
X253873746Y-129211818D01*
X254269993Y-129133000D01*
X254674007Y-129133000D01*
X255070254Y-129211818D01*
G37*
G36*
X232150228Y-130245703D02*
G01*
X232305100Y-130309853D01*
X232444481Y-130402985D01*
X232563015Y-130521519D01*
X232656147Y-130660900D01*
X232720297Y-130815772D01*
X232753000Y-130980184D01*
X232753000Y-131147816D01*
X232720297Y-131312228D01*
X232656147Y-131467100D01*
X232563015Y-131606481D01*
X232444481Y-131725015D01*
X232305100Y-131818147D01*
X232150228Y-131882297D01*
X231985816Y-131915000D01*
X231818184Y-131915000D01*
X231653772Y-131882297D01*
X231498900Y-131818147D01*
X231359519Y-131725015D01*
X231240985Y-131606481D01*
X231147853Y-131467100D01*
X231083703Y-131312228D01*
X231051000Y-131147816D01*
X231051000Y-130980184D01*
X231083703Y-130815772D01*
X231147853Y-130660900D01*
X231240985Y-130521519D01*
X231359519Y-130402985D01*
X231498900Y-130309853D01*
X231653772Y-130245703D01*
X231818184Y-130213000D01*
X231985816Y-130213000D01*
X232150228Y-130245703D01*
G37*
G36*
X239770228Y-130245703D02*
G01*
X239925100Y-130309853D01*
X240064481Y-130402985D01*
X240183015Y-130521519D01*
X240276147Y-130660900D01*
X240340297Y-130815772D01*
X240373000Y-130980184D01*
X240373000Y-131147816D01*
X240340297Y-131312228D01*
X240276147Y-131467100D01*
X240183015Y-131606481D01*
X240064481Y-131725015D01*
X239925100Y-131818147D01*
X239770228Y-131882297D01*
X239605816Y-131915000D01*
X239438184Y-131915000D01*
X239273772Y-131882297D01*
X239118900Y-131818147D01*
X238979519Y-131725015D01*
X238860985Y-131606481D01*
X238767853Y-131467100D01*
X238703703Y-131312228D01*
X238671000Y-131147816D01*
X238671000Y-130980184D01*
X238703703Y-130815772D01*
X238767853Y-130660900D01*
X238860985Y-130521519D01*
X238979519Y-130402985D01*
X239118900Y-130309853D01*
X239273772Y-130245703D01*
X239438184Y-130213000D01*
X239605816Y-130213000D01*
X239770228Y-130245703D01*
G37*
G36*
X232150228Y-127705703D02*
G01*
X232305100Y-127769853D01*
X232444481Y-127862985D01*
X232563015Y-127981519D01*
X232656147Y-128120900D01*
X232720297Y-128275772D01*
X232753000Y-128440184D01*
X232753000Y-128607816D01*
X232720297Y-128772228D01*
X232656147Y-128927100D01*
X232563015Y-129066481D01*
X232444481Y-129185015D01*
X232305100Y-129278147D01*
X232150228Y-129342297D01*
X231985816Y-129375000D01*
X231818184Y-129375000D01*
X231653772Y-129342297D01*
X231498900Y-129278147D01*
X231359519Y-129185015D01*
X231240985Y-129066481D01*
X231147853Y-128927100D01*
X231083703Y-128772228D01*
X231051000Y-128607816D01*
X231051000Y-128440184D01*
X231083703Y-128275772D01*
X231147853Y-128120900D01*
X231240985Y-127981519D01*
X231359519Y-127862985D01*
X231498900Y-127769853D01*
X231653772Y-127705703D01*
X231818184Y-127673000D01*
X231985816Y-127673000D01*
X232150228Y-127705703D01*
G37*
G36*
X239770228Y-127705703D02*
G01*
X239925100Y-127769853D01*
X240064481Y-127862985D01*
X240183015Y-127981519D01*
X240276147Y-128120900D01*
X240340297Y-128275772D01*
X240373000Y-128440184D01*
X240373000Y-128607816D01*
X240340297Y-128772228D01*
X240276147Y-128927100D01*
X240183015Y-129066481D01*
X240064481Y-129185015D01*
X239925100Y-129278147D01*
X239770228Y-129342297D01*
X239605816Y-129375000D01*
X239438184Y-129375000D01*
X239273772Y-129342297D01*
X239118900Y-129278147D01*
X238979519Y-129185015D01*
X238860985Y-129066481D01*
X238767853Y-128927100D01*
X238703703Y-128772228D01*
X238671000Y-128607816D01*
X238671000Y-128440184D01*
X238703703Y-128275772D01*
X238767853Y-128120900D01*
X238860985Y-127981519D01*
X238979519Y-127862985D01*
X239118900Y-127769853D01*
X239273772Y-127705703D01*
X239438184Y-127673000D01*
X239605816Y-127673000D01*
X239770228Y-127705703D01*
G37*
G36*
X221979395Y-126339546D02*
G01*
X222152466Y-126411234D01*
X222152467Y-126411235D01*
X222308227Y-126515310D01*
X222440690Y-126647773D01*
X222440691Y-126647775D01*
X222544766Y-126803534D01*
X222616454Y-126976605D01*
X222653000Y-127160333D01*
X222653000Y-127347667D01*
X222616454Y-127531395D01*
X222544766Y-127704466D01*
X222544765Y-127704467D01*
X222440690Y-127860227D01*
X222308227Y-127992690D01*
X222229818Y-128045081D01*
X222152466Y-128096766D01*
X221979395Y-128168454D01*
X221795667Y-128205000D01*
X221608333Y-128205000D01*
X221424605Y-128168454D01*
X221251534Y-128096766D01*
X221174182Y-128045081D01*
X221095773Y-127992690D01*
X220963310Y-127860227D01*
X220859235Y-127704467D01*
X220859234Y-127704466D01*
X220787546Y-127531395D01*
X220751000Y-127347667D01*
X220751000Y-127160333D01*
X220787546Y-126976605D01*
X220859234Y-126803534D01*
X220963309Y-126647775D01*
X220963310Y-126647773D01*
X221095773Y-126515310D01*
X221251533Y-126411235D01*
X221251534Y-126411234D01*
X221424605Y-126339546D01*
X221608333Y-126303000D01*
X221795667Y-126303000D01*
X221979395Y-126339546D01*
G37*
G36*
X224479395Y-126339546D02*
G01*
X224652466Y-126411234D01*
X224652467Y-126411235D01*
X224808227Y-126515310D01*
X224940690Y-126647773D01*
X224940691Y-126647775D01*
X225044766Y-126803534D01*
X225116454Y-126976605D01*
X225153000Y-127160333D01*
X225153000Y-127347667D01*
X225116454Y-127531395D01*
X225044766Y-127704466D01*
X225044765Y-127704467D01*
X224940690Y-127860227D01*
X224808227Y-127992690D01*
X224729818Y-128045081D01*
X224652466Y-128096766D01*
X224479395Y-128168454D01*
X224295667Y-128205000D01*
X224108333Y-128205000D01*
X223924605Y-128168454D01*
X223751534Y-128096766D01*
X223674182Y-128045081D01*
X223595773Y-127992690D01*
X223463310Y-127860227D01*
X223359235Y-127704467D01*
X223359234Y-127704466D01*
X223287546Y-127531395D01*
X223251000Y-127347667D01*
X223251000Y-127160333D01*
X223287546Y-126976605D01*
X223359234Y-126803534D01*
X223463309Y-126647775D01*
X223463310Y-126647773D01*
X223595773Y-126515310D01*
X223751533Y-126411235D01*
X223751534Y-126411234D01*
X223924605Y-126339546D01*
X224108333Y-126303000D01*
X224295667Y-126303000D01*
X224479395Y-126339546D01*
G37*
G36*
X219479395Y-126339546D02*
G01*
X219652466Y-126411234D01*
X219652467Y-126411235D01*
X219808227Y-126515310D01*
X219940690Y-126647773D01*
X219940691Y-126647775D01*
X220044766Y-126803534D01*
X220116454Y-126976605D01*
X220153000Y-127160333D01*
X220153000Y-127347667D01*
X220116454Y-127531395D01*
X220044766Y-127704466D01*
X220044765Y-127704467D01*
X219940690Y-127860227D01*
X219808227Y-127992690D01*
X219729818Y-128045081D01*
X219652466Y-128096766D01*
X219479395Y-128168454D01*
X219295667Y-128205000D01*
X219108333Y-128205000D01*
X218924605Y-128168454D01*
X218751534Y-128096766D01*
X218674182Y-128045081D01*
X218595773Y-127992690D01*
X218463310Y-127860227D01*
X218359235Y-127704467D01*
X218359234Y-127704466D01*
X218287546Y-127531395D01*
X218251000Y-127347667D01*
X218251000Y-127160333D01*
X218287546Y-126976605D01*
X218359234Y-126803534D01*
X218463309Y-126647775D01*
X218463310Y-126647773D01*
X218595773Y-126515310D01*
X218751533Y-126411235D01*
X218751534Y-126411234D01*
X218924605Y-126339546D01*
X219108333Y-126303000D01*
X219295667Y-126303000D01*
X219479395Y-126339546D01*
G37*
G36*
X239770228Y-125165703D02*
G01*
X239925100Y-125229853D01*
X240064481Y-125322985D01*
X240183015Y-125441519D01*
X240276147Y-125580900D01*
X240340297Y-125735772D01*
X240373000Y-125900184D01*
X240373000Y-126067816D01*
X240340297Y-126232228D01*
X240276147Y-126387100D01*
X240183015Y-126526481D01*
X240064481Y-126645015D01*
X239925100Y-126738147D01*
X239770228Y-126802297D01*
X239605816Y-126835000D01*
X239438184Y-126835000D01*
X239273772Y-126802297D01*
X239118900Y-126738147D01*
X238979519Y-126645015D01*
X238860985Y-126526481D01*
X238767853Y-126387100D01*
X238703703Y-126232228D01*
X238671000Y-126067816D01*
X238671000Y-125900184D01*
X238703703Y-125735772D01*
X238767853Y-125580900D01*
X238860985Y-125441519D01*
X238979519Y-125322985D01*
X239118900Y-125229853D01*
X239273772Y-125165703D01*
X239438184Y-125133000D01*
X239605816Y-125133000D01*
X239770228Y-125165703D01*
G37*
G36*
X232753000Y-126835000D02*
G01*
X231051000Y-126835000D01*
X231051000Y-125133000D01*
X232753000Y-125133000D01*
X232753000Y-126835000D01*
G37*
G36*
X238166228Y-120847703D02*
G01*
X238321100Y-120911853D01*
X238460481Y-121004985D01*
X238579015Y-121123519D01*
X238672147Y-121262900D01*
X238736297Y-121417772D01*
X238769000Y-121582184D01*
X238769000Y-121749816D01*
X238736297Y-121914228D01*
X238672147Y-122069100D01*
X238579015Y-122208481D01*
X238460481Y-122327015D01*
X238321100Y-122420147D01*
X238166228Y-122484297D01*
X238001816Y-122517000D01*
X237834184Y-122517000D01*
X237669772Y-122484297D01*
X237514900Y-122420147D01*
X237375519Y-122327015D01*
X237256985Y-122208481D01*
X237163853Y-122069100D01*
X237099703Y-121914228D01*
X237067000Y-121749816D01*
X237067000Y-121582184D01*
X237099703Y-121417772D01*
X237163853Y-121262900D01*
X237256985Y-121123519D01*
X237375519Y-121004985D01*
X237514900Y-120911853D01*
X237669772Y-120847703D01*
X237834184Y-120815000D01*
X238001816Y-120815000D01*
X238166228Y-120847703D01*
G37*
G36*
X233166228Y-120847703D02*
G01*
X233321100Y-120911853D01*
X233460481Y-121004985D01*
X233579015Y-121123519D01*
X233672147Y-121262900D01*
X233736297Y-121417772D01*
X233769000Y-121582184D01*
X233769000Y-121749816D01*
X233736297Y-121914228D01*
X233672147Y-122069100D01*
X233579015Y-122208481D01*
X233460481Y-122327015D01*
X233321100Y-122420147D01*
X233166228Y-122484297D01*
X233001816Y-122517000D01*
X232834184Y-122517000D01*
X232669772Y-122484297D01*
X232514900Y-122420147D01*
X232375519Y-122327015D01*
X232256985Y-122208481D01*
X232163853Y-122069100D01*
X232099703Y-121914228D01*
X232067000Y-121749816D01*
X232067000Y-121582184D01*
X232099703Y-121417772D01*
X232163853Y-121262900D01*
X232256985Y-121123519D01*
X232375519Y-121004985D01*
X232514900Y-120911853D01*
X232669772Y-120847703D01*
X232834184Y-120815000D01*
X233001816Y-120815000D01*
X233166228Y-120847703D01*
G37*
G36*
X225800228Y-120807703D02*
G01*
X225955100Y-120871853D01*
X226094481Y-120964985D01*
X226213015Y-121083519D01*
X226306147Y-121222900D01*
X226370297Y-121377772D01*
X226403000Y-121542184D01*
X226403000Y-121709816D01*
X226370297Y-121874228D01*
X226306147Y-122029100D01*
X226213015Y-122168481D01*
X226094481Y-122287015D01*
X225955100Y-122380147D01*
X225800228Y-122444297D01*
X225635816Y-122477000D01*
X225468184Y-122477000D01*
X225303772Y-122444297D01*
X225148900Y-122380147D01*
X225009519Y-122287015D01*
X224890985Y-122168481D01*
X224797853Y-122029100D01*
X224733703Y-121874228D01*
X224701000Y-121709816D01*
X224701000Y-121542184D01*
X224733703Y-121377772D01*
X224797853Y-121222900D01*
X224890985Y-121083519D01*
X225009519Y-120964985D01*
X225148900Y-120871853D01*
X225303772Y-120807703D01*
X225468184Y-120775000D01*
X225635816Y-120775000D01*
X225800228Y-120807703D01*
G37*
G36*
X252256228Y-119577703D02*
G01*
X252411100Y-119641853D01*
X252550481Y-119734985D01*
X252669015Y-119853519D01*
X252762147Y-119992900D01*
X252826297Y-120147772D01*
X252859000Y-120312184D01*
X252859000Y-120479816D01*
X252826297Y-120644228D01*
X252762147Y-120799100D01*
X252669015Y-120938481D01*
X252550481Y-121057015D01*
X252411100Y-121150147D01*
X252256228Y-121214297D01*
X252091816Y-121247000D01*
X251924184Y-121247000D01*
X251759772Y-121214297D01*
X251604900Y-121150147D01*
X251465519Y-121057015D01*
X251346985Y-120938481D01*
X251253853Y-120799100D01*
X251189703Y-120644228D01*
X251157000Y-120479816D01*
X251157000Y-120312184D01*
X251189703Y-120147772D01*
X251253853Y-119992900D01*
X251346985Y-119853519D01*
X251465519Y-119734985D01*
X251604900Y-119641853D01*
X251759772Y-119577703D01*
X251924184Y-119545000D01*
X252091816Y-119545000D01*
X252256228Y-119577703D01*
G37*
G36*
X255359000Y-121247000D02*
G01*
X253657000Y-121247000D01*
X253657000Y-119545000D01*
X255359000Y-119545000D01*
X255359000Y-121247000D01*
G37*
G36*
X226403000Y-119977000D02*
G01*
X224701000Y-119977000D01*
X224701000Y-118275000D01*
X226403000Y-118275000D01*
X226403000Y-119977000D01*
G37*
G36*
X242056228Y-118053703D02*
G01*
X242211100Y-118117853D01*
X242350481Y-118210985D01*
X242469015Y-118329519D01*
X242562147Y-118468900D01*
X242626297Y-118623772D01*
X242659000Y-118788184D01*
X242659000Y-118955816D01*
X242626297Y-119120228D01*
X242562147Y-119275100D01*
X242469015Y-119414481D01*
X242350481Y-119533015D01*
X242211100Y-119626147D01*
X242056228Y-119690297D01*
X241891816Y-119723000D01*
X241724184Y-119723000D01*
X241559772Y-119690297D01*
X241404900Y-119626147D01*
X241265519Y-119533015D01*
X241146985Y-119414481D01*
X241053853Y-119275100D01*
X240989703Y-119120228D01*
X240957000Y-118955816D01*
X240957000Y-118788184D01*
X240989703Y-118623772D01*
X241053853Y-118468900D01*
X241146985Y-118329519D01*
X241265519Y-118210985D01*
X241404900Y-118117853D01*
X241559772Y-118053703D01*
X241724184Y-118021000D01*
X241891816Y-118021000D01*
X242056228Y-118053703D01*
G37*
G36*
X247056228Y-118053703D02*
G01*
X247211100Y-118117853D01*
X247350481Y-118210985D01*
X247469015Y-118329519D01*
X247562147Y-118468900D01*
X247626297Y-118623772D01*
X247659000Y-118788184D01*
X247659000Y-118955816D01*
X247626297Y-119120228D01*
X247562147Y-119275100D01*
X247469015Y-119414481D01*
X247350481Y-119533015D01*
X247211100Y-119626147D01*
X247056228Y-119690297D01*
X246891816Y-119723000D01*
X246724184Y-119723000D01*
X246559772Y-119690297D01*
X246404900Y-119626147D01*
X246265519Y-119533015D01*
X246146985Y-119414481D01*
X246053853Y-119275100D01*
X245989703Y-119120228D01*
X245957000Y-118955816D01*
X245957000Y-118788184D01*
X245989703Y-118623772D01*
X246053853Y-118468900D01*
X246146985Y-118329519D01*
X246265519Y-118210985D01*
X246404900Y-118117853D01*
X246559772Y-118053703D01*
X246724184Y-118021000D01*
X246891816Y-118021000D01*
X247056228Y-118053703D01*
G37*
G36*
X220077512Y-114165927D02*
G01*
X220226812Y-114195624D01*
X220390784Y-114263544D01*
X220538354Y-114362147D01*
X220663853Y-114487646D01*
X220762456Y-114635216D01*
X220830376Y-114799188D01*
X220865000Y-114973259D01*
X220865000Y-115150741D01*
X220830376Y-115324812D01*
X220762456Y-115488784D01*
X220663853Y-115636354D01*
X220538354Y-115761853D01*
X220390784Y-115860456D01*
X220226812Y-115928376D01*
X220077512Y-115958073D01*
X220052742Y-115963000D01*
X219875258Y-115963000D01*
X219850488Y-115958073D01*
X219701188Y-115928376D01*
X219537216Y-115860456D01*
X219389646Y-115761853D01*
X219264147Y-115636354D01*
X219165544Y-115488784D01*
X219097624Y-115324812D01*
X219063000Y-115150741D01*
X219063000Y-114973259D01*
X219097624Y-114799188D01*
X219165544Y-114635216D01*
X219264147Y-114487646D01*
X219389646Y-114362147D01*
X219537216Y-114263544D01*
X219701188Y-114195624D01*
X219850488Y-114165927D01*
X219875258Y-114161000D01*
X220052742Y-114161000D01*
X220077512Y-114165927D01*
G37*
G36*
X223405000Y-115963000D02*
G01*
X221603000Y-115963000D01*
X221603000Y-114161000D01*
X223405000Y-114161000D01*
X223405000Y-115963000D01*
G37*
G36*
X240512254Y-108397818D02*
G01*
X240885511Y-108552426D01*
X240885513Y-108552427D01*
X241221436Y-108776884D01*
X241507116Y-109062564D01*
X241731574Y-109398489D01*
X241886182Y-109771746D01*
X241965000Y-110167993D01*
X241965000Y-110572007D01*
X241886182Y-110968254D01*
X241754368Y-111286481D01*
X241731573Y-111341513D01*
X241507116Y-111677436D01*
X241221436Y-111963116D01*
X240885513Y-112187573D01*
X240885512Y-112187574D01*
X240885511Y-112187574D01*
X240512254Y-112342182D01*
X240116007Y-112421000D01*
X239711993Y-112421000D01*
X239315746Y-112342182D01*
X238942489Y-112187574D01*
X238942488Y-112187574D01*
X238942487Y-112187573D01*
X238606564Y-111963116D01*
X238320884Y-111677436D01*
X238096427Y-111341513D01*
X238073632Y-111286481D01*
X237941818Y-110968254D01*
X237863000Y-110572007D01*
X237863000Y-110167993D01*
X237941818Y-109771746D01*
X238096426Y-109398489D01*
X238320884Y-109062564D01*
X238606564Y-108776884D01*
X238942487Y-108552427D01*
X238942489Y-108552426D01*
X239315746Y-108397818D01*
X239711993Y-108319000D01*
X240116007Y-108319000D01*
X240512254Y-108397818D01*
G37*
G36*
X231012254Y-108397818D02*
G01*
X231385511Y-108552426D01*
X231385513Y-108552427D01*
X231721436Y-108776884D01*
X232007116Y-109062564D01*
X232231574Y-109398489D01*
X232386182Y-109771746D01*
X232465000Y-110167993D01*
X232465000Y-110572007D01*
X232386182Y-110968254D01*
X232254368Y-111286481D01*
X232231573Y-111341513D01*
X232007116Y-111677436D01*
X231721436Y-111963116D01*
X231385513Y-112187573D01*
X231385512Y-112187574D01*
X231385511Y-112187574D01*
X231012254Y-112342182D01*
X230616007Y-112421000D01*
X230211993Y-112421000D01*
X229815746Y-112342182D01*
X229442489Y-112187574D01*
X229442488Y-112187574D01*
X229442487Y-112187573D01*
X229106564Y-111963116D01*
X228820884Y-111677436D01*
X228596427Y-111341513D01*
X228573632Y-111286481D01*
X228441818Y-110968254D01*
X228363000Y-110572007D01*
X228363000Y-110167993D01*
X228441818Y-109771746D01*
X228596426Y-109398489D01*
X228820884Y-109062564D01*
X229106564Y-108776884D01*
X229442487Y-108552427D01*
X229442489Y-108552426D01*
X229815746Y-108397818D01*
X230211993Y-108319000D01*
X230616007Y-108319000D01*
X231012254Y-108397818D01*
G37*
G36*
X215132228Y-109925703D02*
G01*
X215287100Y-109989853D01*
X215426481Y-110082985D01*
X215545015Y-110201519D01*
X215638147Y-110340900D01*
X215702297Y-110495772D01*
X215735000Y-110660184D01*
X215735000Y-110827816D01*
X215702297Y-110992228D01*
X215638147Y-111147100D01*
X215545015Y-111286481D01*
X215426481Y-111405015D01*
X215287100Y-111498147D01*
X215132228Y-111562297D01*
X214967816Y-111595000D01*
X214800184Y-111595000D01*
X214635772Y-111562297D01*
X214480900Y-111498147D01*
X214341519Y-111405015D01*
X214222985Y-111286481D01*
X214129853Y-111147100D01*
X214065703Y-110992228D01*
X214033000Y-110827816D01*
X214033000Y-110660184D01*
X214065703Y-110495772D01*
X214129853Y-110340900D01*
X214222985Y-110201519D01*
X214341519Y-110082985D01*
X214480900Y-109989853D01*
X214635772Y-109925703D01*
X214800184Y-109893000D01*
X214967816Y-109893000D01*
X215132228Y-109925703D01*
G37*
G36*
X220800228Y-102559703D02*
G01*
X220955100Y-102623853D01*
X221094481Y-102716985D01*
X221213015Y-102835519D01*
X221306147Y-102974900D01*
X221370297Y-103129772D01*
X221403000Y-103294184D01*
X221403000Y-103461816D01*
X221370297Y-103626228D01*
X221306147Y-103781100D01*
X221213015Y-103920481D01*
X221094481Y-104039015D01*
X220955100Y-104132147D01*
X220800228Y-104196297D01*
X220635816Y-104229000D01*
X220468184Y-104229000D01*
X220303772Y-104196297D01*
X220148900Y-104132147D01*
X220009519Y-104039015D01*
X219890985Y-103920481D01*
X219797853Y-103781100D01*
X219733703Y-103626228D01*
X219701000Y-103461816D01*
X219701000Y-103294184D01*
X219733703Y-103129772D01*
X219797853Y-102974900D01*
X219890985Y-102835519D01*
X220009519Y-102716985D01*
X220148900Y-102623853D01*
X220303772Y-102559703D01*
X220468184Y-102527000D01*
X220635816Y-102527000D01*
X220800228Y-102559703D01*
G37*
G36*
X225800228Y-102559703D02*
G01*
X225955100Y-102623853D01*
X226094481Y-102716985D01*
X226213015Y-102835519D01*
X226306147Y-102974900D01*
X226370297Y-103129772D01*
X226403000Y-103294184D01*
X226403000Y-103461816D01*
X226370297Y-103626228D01*
X226306147Y-103781100D01*
X226213015Y-103920481D01*
X226094481Y-104039015D01*
X225955100Y-104132147D01*
X225800228Y-104196297D01*
X225635816Y-104229000D01*
X225468184Y-104229000D01*
X225303772Y-104196297D01*
X225148900Y-104132147D01*
X225009519Y-104039015D01*
X224890985Y-103920481D01*
X224797853Y-103781100D01*
X224733703Y-103626228D01*
X224701000Y-103461816D01*
X224701000Y-103294184D01*
X224733703Y-103129772D01*
X224797853Y-102974900D01*
X224890985Y-102835519D01*
X225009519Y-102716985D01*
X225148900Y-102623853D01*
X225303772Y-102559703D01*
X225468184Y-102527000D01*
X225635816Y-102527000D01*
X225800228Y-102559703D01*
G37*
G36*
X215132228Y-102305703D02*
G01*
X215287100Y-102369853D01*
X215426481Y-102462985D01*
X215545015Y-102581519D01*
X215638147Y-102720900D01*
X215702297Y-102875772D01*
X215735000Y-103040184D01*
X215735000Y-103207816D01*
X215702297Y-103372228D01*
X215638147Y-103527100D01*
X215545015Y-103666481D01*
X215426481Y-103785015D01*
X215287100Y-103878147D01*
X215132228Y-103942297D01*
X214967816Y-103975000D01*
X214800184Y-103975000D01*
X214635772Y-103942297D01*
X214480900Y-103878147D01*
X214341519Y-103785015D01*
X214222985Y-103666481D01*
X214129853Y-103527100D01*
X214065703Y-103372228D01*
X214033000Y-103207816D01*
X214033000Y-103040184D01*
X214065703Y-102875772D01*
X214129853Y-102720900D01*
X214222985Y-102581519D01*
X214341519Y-102462985D01*
X214480900Y-102369853D01*
X214635772Y-102305703D01*
X214800184Y-102273000D01*
X214967816Y-102273000D01*
X215132228Y-102305703D01*
G37*
G36*
X232941395Y-101955546D02*
G01*
X233114466Y-102027234D01*
X233114467Y-102027235D01*
X233270227Y-102131310D01*
X233402690Y-102263773D01*
X233430708Y-102305705D01*
X233506766Y-102419534D01*
X233578454Y-102592605D01*
X233615000Y-102776333D01*
X233615000Y-102963667D01*
X233578454Y-103147395D01*
X233506766Y-103320466D01*
X233506765Y-103320467D01*
X233402690Y-103476227D01*
X233270227Y-103608690D01*
X233243979Y-103626228D01*
X233114466Y-103712766D01*
X232941395Y-103784454D01*
X232757667Y-103821000D01*
X232570333Y-103821000D01*
X232386605Y-103784454D01*
X232213534Y-103712766D01*
X232084021Y-103626228D01*
X232057773Y-103608690D01*
X231925310Y-103476227D01*
X231821235Y-103320467D01*
X231821234Y-103320466D01*
X231749546Y-103147395D01*
X231713000Y-102963667D01*
X231713000Y-102776333D01*
X231749546Y-102592605D01*
X231821234Y-102419534D01*
X231897292Y-102305705D01*
X231925310Y-102263773D01*
X232057773Y-102131310D01*
X232213533Y-102027235D01*
X232213534Y-102027234D01*
X232386605Y-101955546D01*
X232570333Y-101919000D01*
X232757667Y-101919000D01*
X232941395Y-101955546D01*
G37*
G36*
X235441395Y-101955546D02*
G01*
X235614466Y-102027234D01*
X235614467Y-102027235D01*
X235770227Y-102131310D01*
X235902690Y-102263773D01*
X235930708Y-102305705D01*
X236006766Y-102419534D01*
X236078454Y-102592605D01*
X236115000Y-102776333D01*
X236115000Y-102963667D01*
X236078454Y-103147395D01*
X236006766Y-103320466D01*
X236006765Y-103320467D01*
X235902690Y-103476227D01*
X235770227Y-103608690D01*
X235743979Y-103626228D01*
X235614466Y-103712766D01*
X235441395Y-103784454D01*
X235257667Y-103821000D01*
X235070333Y-103821000D01*
X234886605Y-103784454D01*
X234713534Y-103712766D01*
X234584021Y-103626228D01*
X234557773Y-103608690D01*
X234425310Y-103476227D01*
X234321235Y-103320467D01*
X234321234Y-103320466D01*
X234249546Y-103147395D01*
X234213000Y-102963667D01*
X234213000Y-102776333D01*
X234249546Y-102592605D01*
X234321234Y-102419534D01*
X234397292Y-102305705D01*
X234425310Y-102263773D01*
X234557773Y-102131310D01*
X234713533Y-102027235D01*
X234713534Y-102027234D01*
X234886605Y-101955546D01*
X235070333Y-101919000D01*
X235257667Y-101919000D01*
X235441395Y-101955546D01*
G37*
G36*
X237941395Y-101955546D02*
G01*
X238114466Y-102027234D01*
X238114467Y-102027235D01*
X238270227Y-102131310D01*
X238402690Y-102263773D01*
X238430708Y-102305705D01*
X238506766Y-102419534D01*
X238578454Y-102592605D01*
X238615000Y-102776333D01*
X238615000Y-102963667D01*
X238578454Y-103147395D01*
X238506766Y-103320466D01*
X238506765Y-103320467D01*
X238402690Y-103476227D01*
X238270227Y-103608690D01*
X238243979Y-103626228D01*
X238114466Y-103712766D01*
X237941395Y-103784454D01*
X237757667Y-103821000D01*
X237570333Y-103821000D01*
X237386605Y-103784454D01*
X237213534Y-103712766D01*
X237084021Y-103626228D01*
X237057773Y-103608690D01*
X236925310Y-103476227D01*
X236821235Y-103320467D01*
X236821234Y-103320466D01*
X236749546Y-103147395D01*
X236713000Y-102963667D01*
X236713000Y-102776333D01*
X236749546Y-102592605D01*
X236821234Y-102419534D01*
X236897292Y-102305705D01*
X236925310Y-102263773D01*
X237057773Y-102131310D01*
X237213533Y-102027235D01*
X237213534Y-102027234D01*
X237386605Y-101955546D01*
X237570333Y-101919000D01*
X237757667Y-101919000D01*
X237941395Y-101955546D01*
G37*
M02*
