M48
; DRILL file {KiCad 5.1.5-52549c5~84~ubuntu18.04.1} date Tue 24 Mar 2020 11:28:15 PM CDT
; FORMAT={-:-/ absolute / inch / decimal}
; #@! TF.CreationDate,2020-03-24T23:28:15-05:00
; #@! TF.GenerationSoftware,Kicad,Pcbnew,5.1.5-52549c5~84~ubuntu18.04.1
; #@! TF.FileFunction,Plated,1,2,PTH
FMAT,2
INCH
T1C0.0315
T2C0.0394
%
G90
G05
T1
X6.8116Y-3.8
X6.91Y-3.8
X5.62Y-3.66
X5.62Y-3.96
X6.86Y-3.4516
X6.86Y-3.55
X5.99Y-3.56
X5.99Y-3.66
X5.99Y-3.76
X5.99Y-3.86
X6.29Y-3.56
X6.29Y-3.66
X6.29Y-3.76
X6.29Y-3.86
X6.45Y-3.86
X6.6469Y-3.86
X5.61Y-3.29
X5.8069Y-3.29
X5.6031Y-3.49
X5.8Y-3.49
T2
X5.4331Y-4.52
X5.5316Y-4.52
X5.63Y-4.52
X5.32Y-3.58
X5.42Y-3.58
X6.0131Y-4.52
X6.1116Y-4.52
X6.21Y-4.52
X6.6331Y-4.52
X6.7316Y-4.52
X6.83Y-4.52
X5.32Y-3.77
X5.32Y-3.87
X5.99Y-3.37
X6.09Y-3.37
T0
M30
