G04 #@! TF.GenerationSoftware,KiCad,Pcbnew,5.1.5-52549c5~84~ubuntu18.04.1*
G04 #@! TF.CreationDate,2020-03-24T23:28:12-05:00*
G04 #@! TF.ProjectId,pass-01,70617373-2d30-4312-9e6b-696361645f70,rev?*
G04 #@! TF.SameCoordinates,Original*
G04 #@! TF.FileFunction,Copper,L2,Bot*
G04 #@! TF.FilePolarity,Positive*
%FSLAX46Y46*%
G04 Gerber Fmt 4.6, Leading zero omitted, Abs format (unit mm)*
G04 Created by KiCad (PCBNEW 5.1.5-52549c5~84~ubuntu18.04.1) date 2020-03-24 23:28:12*
%MOMM*%
%LPD*%
G04 APERTURE LIST*
%ADD10R,1.700000X1.700000*%
%ADD11O,1.700000X1.700000*%
%ADD12C,1.600000*%
%ADD13R,1.600000X1.600000*%
%ADD14O,1.600000X1.600000*%
%ADD15C,1.800000*%
%ADD16C,4.000000*%
%ADD17C,0.500000*%
%ADD18C,0.254000*%
G04 APERTURE END LIST*
D10*
X154686000Y-85598000D03*
D11*
X152146000Y-85598000D03*
D12*
X147494000Y-83566000D03*
X142494000Y-83566000D03*
X147320000Y-88646000D03*
X142320000Y-88646000D03*
X163830000Y-98044000D03*
X168830000Y-98044000D03*
D10*
X135128000Y-95758000D03*
D11*
X135128000Y-98298000D03*
X135128000Y-90932000D03*
D10*
X137668000Y-90932000D03*
D13*
X152146000Y-90424000D03*
D14*
X159766000Y-98044000D03*
X152146000Y-92964000D03*
X159766000Y-95504000D03*
X152146000Y-95504000D03*
X159766000Y-92964000D03*
X152146000Y-98044000D03*
X159766000Y-90424000D03*
D15*
X168482000Y-114808000D03*
X170982000Y-114808000D03*
X173482000Y-114808000D03*
D16*
X166232000Y-107308000D03*
X175732000Y-107308000D03*
D13*
X174244000Y-90170000D03*
D12*
X174244000Y-87670000D03*
X173014000Y-96520000D03*
D13*
X175514000Y-96520000D03*
D15*
X152734000Y-114808000D03*
X155234000Y-114808000D03*
X157734000Y-114808000D03*
D16*
X150484000Y-107308000D03*
X159984000Y-107308000D03*
X145252000Y-107308000D03*
X135752000Y-107308000D03*
D15*
X143002000Y-114808000D03*
X140502000Y-114808000D03*
X138002000Y-114808000D03*
D12*
X142748000Y-92964000D03*
D14*
X142748000Y-100584000D03*
D17*
X159258000Y-85598000D02*
X154686000Y-85598000D01*
X159766000Y-95504000D02*
X163068000Y-92202000D01*
X163068000Y-89408000D02*
X159258000Y-85598000D01*
X163068000Y-92202000D02*
X163068000Y-89408000D01*
X141694001Y-84365999D02*
X135128000Y-90932000D01*
X142494000Y-83566000D02*
X141694001Y-84365999D01*
X135128000Y-90932000D02*
X135128000Y-95758000D01*
X147494000Y-83566000D02*
X151558000Y-87630000D01*
X151558000Y-87630000D02*
X153162000Y-87630000D01*
X157696001Y-92164001D02*
X153162000Y-87630000D01*
X158966001Y-92164001D02*
X157696001Y-92164001D01*
X159766000Y-92964000D02*
X158966001Y-92164001D01*
X155448000Y-93726000D02*
X159766000Y-98044000D01*
X155448000Y-91315998D02*
X155448000Y-93726000D01*
X152778002Y-88646000D02*
X155448000Y-91315998D01*
X147320000Y-88646000D02*
X152778002Y-88646000D01*
X171704000Y-90170000D02*
X174244000Y-90170000D01*
X163830000Y-98044000D02*
X171704000Y-90170000D01*
X142748000Y-89074000D02*
X142320000Y-88646000D01*
X142748000Y-92964000D02*
X142748000Y-89074000D01*
X165608000Y-98044000D02*
X165608000Y-99568000D01*
X168910000Y-94742000D02*
X165608000Y-98044000D01*
X175514000Y-95220000D02*
X175036000Y-94742000D01*
X175514000Y-96520000D02*
X175514000Y-95220000D01*
X175036000Y-94742000D02*
X168910000Y-94742000D01*
X165608000Y-99568000D02*
X161290000Y-99568000D01*
X161290000Y-99568000D02*
X157480000Y-103378000D01*
X157480000Y-113281208D02*
X157480000Y-103378000D01*
X157734000Y-113535208D02*
X157480000Y-113281208D01*
X157734000Y-114808000D02*
X157734000Y-113535208D01*
X138901999Y-113908001D02*
X138002000Y-114808000D01*
X138901999Y-106831997D02*
X138901999Y-113908001D01*
X135128000Y-103057998D02*
X138901999Y-106831997D01*
X135128000Y-98298000D02*
X135128000Y-103057998D01*
X170982000Y-100196000D02*
X168830000Y-98044000D01*
X170982000Y-114808000D02*
X170982000Y-100196000D01*
X154334001Y-113908001D02*
X154334001Y-92612001D01*
X154334001Y-92612001D02*
X152146000Y-90424000D01*
X155234000Y-114808000D02*
X154334001Y-113908001D01*
X140502000Y-107148000D02*
X152146000Y-95504000D01*
X140502000Y-114808000D02*
X140502000Y-107148000D01*
D18*
G36*
X152273000Y-97917000D02*
G01*
X152293000Y-97917000D01*
X152293000Y-98171000D01*
X152273000Y-98171000D01*
X152273000Y-99314624D01*
X152495040Y-99435909D01*
X152759881Y-99341070D01*
X153001131Y-99196385D01*
X153209519Y-99007414D01*
X153377037Y-98781420D01*
X153449002Y-98629160D01*
X153449001Y-113442691D01*
X153181743Y-113331989D01*
X152885184Y-113273000D01*
X152582816Y-113273000D01*
X152286257Y-113331989D01*
X152006905Y-113447701D01*
X151755495Y-113615688D01*
X151541688Y-113829495D01*
X151373701Y-114080905D01*
X151257989Y-114360257D01*
X151199000Y-114656816D01*
X151199000Y-114959184D01*
X151257989Y-115255743D01*
X151373701Y-115535095D01*
X151541688Y-115786505D01*
X151755495Y-116000312D01*
X152006905Y-116168299D01*
X152035154Y-116180000D01*
X143702256Y-116180000D01*
X143802792Y-116126261D01*
X143886475Y-115872080D01*
X143002000Y-114987605D01*
X142117525Y-115872080D01*
X142201208Y-116126261D01*
X142313109Y-116180000D01*
X141200846Y-116180000D01*
X141229095Y-116168299D01*
X141480505Y-116000312D01*
X141694312Y-115786505D01*
X141789738Y-115643690D01*
X141937920Y-115692475D01*
X142822395Y-114808000D01*
X143181605Y-114808000D01*
X144066080Y-115692475D01*
X144320261Y-115608792D01*
X144451158Y-115336225D01*
X144526365Y-115043358D01*
X144542991Y-114741447D01*
X144500397Y-114442093D01*
X144400222Y-114156801D01*
X144320261Y-114007208D01*
X144066080Y-113923525D01*
X143181605Y-114808000D01*
X142822395Y-114808000D01*
X141937920Y-113923525D01*
X141789738Y-113972310D01*
X141694312Y-113829495D01*
X141608737Y-113743920D01*
X142117525Y-113743920D01*
X143002000Y-114628395D01*
X143886475Y-113743920D01*
X143802792Y-113489739D01*
X143530225Y-113358842D01*
X143237358Y-113283635D01*
X142935447Y-113267009D01*
X142636093Y-113309603D01*
X142350801Y-113409778D01*
X142201208Y-113489739D01*
X142117525Y-113743920D01*
X141608737Y-113743920D01*
X141480505Y-113615688D01*
X141387000Y-113553210D01*
X141387000Y-107514578D01*
X143068269Y-105833309D01*
X142916893Y-106059859D01*
X142718261Y-106539399D01*
X142617000Y-107048475D01*
X142617000Y-107567525D01*
X142718261Y-108076601D01*
X142916893Y-108556141D01*
X143205262Y-108987715D01*
X143572285Y-109354738D01*
X144003859Y-109643107D01*
X144483399Y-109841739D01*
X144992475Y-109943000D01*
X145511525Y-109943000D01*
X146020601Y-109841739D01*
X146500141Y-109643107D01*
X146931715Y-109354738D01*
X147298738Y-108987715D01*
X147587107Y-108556141D01*
X147785739Y-108076601D01*
X147868000Y-107663045D01*
X147950261Y-108076601D01*
X148148893Y-108556141D01*
X148437262Y-108987715D01*
X148804285Y-109354738D01*
X149235859Y-109643107D01*
X149715399Y-109841739D01*
X150224475Y-109943000D01*
X150743525Y-109943000D01*
X151252601Y-109841739D01*
X151732141Y-109643107D01*
X152163715Y-109354738D01*
X152530738Y-108987715D01*
X152819107Y-108556141D01*
X153017739Y-108076601D01*
X153119000Y-107567525D01*
X153119000Y-107048475D01*
X153017739Y-106539399D01*
X152819107Y-106059859D01*
X152530738Y-105628285D01*
X152163715Y-105261262D01*
X151732141Y-104972893D01*
X151252601Y-104774261D01*
X150743525Y-104673000D01*
X150224475Y-104673000D01*
X149715399Y-104774261D01*
X149235859Y-104972893D01*
X148804285Y-105261262D01*
X148437262Y-105628285D01*
X148148893Y-106059859D01*
X147950261Y-106539399D01*
X147868000Y-106952955D01*
X147785739Y-106539399D01*
X147587107Y-106059859D01*
X147298738Y-105628285D01*
X146931715Y-105261262D01*
X146500141Y-104972893D01*
X146020601Y-104774261D01*
X145511525Y-104673000D01*
X144992475Y-104673000D01*
X144483399Y-104774261D01*
X144003859Y-104972893D01*
X143777309Y-105124269D01*
X150730577Y-98171002D01*
X150876084Y-98171002D01*
X150754096Y-98393039D01*
X150794754Y-98527087D01*
X150914963Y-98781420D01*
X151082481Y-99007414D01*
X151290869Y-99196385D01*
X151532119Y-99341070D01*
X151796960Y-99435909D01*
X152019000Y-99314624D01*
X152019000Y-98171000D01*
X151999000Y-98171000D01*
X151999000Y-97917000D01*
X152019000Y-97917000D01*
X152019000Y-97897000D01*
X152273000Y-97897000D01*
X152273000Y-97917000D01*
G37*
X152273000Y-97917000D02*
X152293000Y-97917000D01*
X152293000Y-98171000D01*
X152273000Y-98171000D01*
X152273000Y-99314624D01*
X152495040Y-99435909D01*
X152759881Y-99341070D01*
X153001131Y-99196385D01*
X153209519Y-99007414D01*
X153377037Y-98781420D01*
X153449002Y-98629160D01*
X153449001Y-113442691D01*
X153181743Y-113331989D01*
X152885184Y-113273000D01*
X152582816Y-113273000D01*
X152286257Y-113331989D01*
X152006905Y-113447701D01*
X151755495Y-113615688D01*
X151541688Y-113829495D01*
X151373701Y-114080905D01*
X151257989Y-114360257D01*
X151199000Y-114656816D01*
X151199000Y-114959184D01*
X151257989Y-115255743D01*
X151373701Y-115535095D01*
X151541688Y-115786505D01*
X151755495Y-116000312D01*
X152006905Y-116168299D01*
X152035154Y-116180000D01*
X143702256Y-116180000D01*
X143802792Y-116126261D01*
X143886475Y-115872080D01*
X143002000Y-114987605D01*
X142117525Y-115872080D01*
X142201208Y-116126261D01*
X142313109Y-116180000D01*
X141200846Y-116180000D01*
X141229095Y-116168299D01*
X141480505Y-116000312D01*
X141694312Y-115786505D01*
X141789738Y-115643690D01*
X141937920Y-115692475D01*
X142822395Y-114808000D01*
X143181605Y-114808000D01*
X144066080Y-115692475D01*
X144320261Y-115608792D01*
X144451158Y-115336225D01*
X144526365Y-115043358D01*
X144542991Y-114741447D01*
X144500397Y-114442093D01*
X144400222Y-114156801D01*
X144320261Y-114007208D01*
X144066080Y-113923525D01*
X143181605Y-114808000D01*
X142822395Y-114808000D01*
X141937920Y-113923525D01*
X141789738Y-113972310D01*
X141694312Y-113829495D01*
X141608737Y-113743920D01*
X142117525Y-113743920D01*
X143002000Y-114628395D01*
X143886475Y-113743920D01*
X143802792Y-113489739D01*
X143530225Y-113358842D01*
X143237358Y-113283635D01*
X142935447Y-113267009D01*
X142636093Y-113309603D01*
X142350801Y-113409778D01*
X142201208Y-113489739D01*
X142117525Y-113743920D01*
X141608737Y-113743920D01*
X141480505Y-113615688D01*
X141387000Y-113553210D01*
X141387000Y-107514578D01*
X143068269Y-105833309D01*
X142916893Y-106059859D01*
X142718261Y-106539399D01*
X142617000Y-107048475D01*
X142617000Y-107567525D01*
X142718261Y-108076601D01*
X142916893Y-108556141D01*
X143205262Y-108987715D01*
X143572285Y-109354738D01*
X144003859Y-109643107D01*
X144483399Y-109841739D01*
X144992475Y-109943000D01*
X145511525Y-109943000D01*
X146020601Y-109841739D01*
X146500141Y-109643107D01*
X146931715Y-109354738D01*
X147298738Y-108987715D01*
X147587107Y-108556141D01*
X147785739Y-108076601D01*
X147868000Y-107663045D01*
X147950261Y-108076601D01*
X148148893Y-108556141D01*
X148437262Y-108987715D01*
X148804285Y-109354738D01*
X149235859Y-109643107D01*
X149715399Y-109841739D01*
X150224475Y-109943000D01*
X150743525Y-109943000D01*
X151252601Y-109841739D01*
X151732141Y-109643107D01*
X152163715Y-109354738D01*
X152530738Y-108987715D01*
X152819107Y-108556141D01*
X153017739Y-108076601D01*
X153119000Y-107567525D01*
X153119000Y-107048475D01*
X153017739Y-106539399D01*
X152819107Y-106059859D01*
X152530738Y-105628285D01*
X152163715Y-105261262D01*
X151732141Y-104972893D01*
X151252601Y-104774261D01*
X150743525Y-104673000D01*
X150224475Y-104673000D01*
X149715399Y-104774261D01*
X149235859Y-104972893D01*
X148804285Y-105261262D01*
X148437262Y-105628285D01*
X148148893Y-106059859D01*
X147950261Y-106539399D01*
X147868000Y-106952955D01*
X147785739Y-106539399D01*
X147587107Y-106059859D01*
X147298738Y-105628285D01*
X146931715Y-105261262D01*
X146500141Y-104972893D01*
X146020601Y-104774261D01*
X145511525Y-104673000D01*
X144992475Y-104673000D01*
X144483399Y-104774261D01*
X144003859Y-104972893D01*
X143777309Y-105124269D01*
X150730577Y-98171002D01*
X150876084Y-98171002D01*
X150754096Y-98393039D01*
X150794754Y-98527087D01*
X150914963Y-98781420D01*
X151082481Y-99007414D01*
X151290869Y-99196385D01*
X151532119Y-99341070D01*
X151796960Y-99435909D01*
X152019000Y-99314624D01*
X152019000Y-98171000D01*
X151999000Y-98171000D01*
X151999000Y-97917000D01*
X152019000Y-97917000D01*
X152019000Y-97897000D01*
X152273000Y-97897000D01*
X152273000Y-97917000D01*
G36*
X157285984Y-56087869D02*
G01*
X159136747Y-56293830D01*
X160964411Y-56650747D01*
X162756662Y-57156214D01*
X164501485Y-57806842D01*
X166187133Y-58598252D01*
X167802260Y-59525117D01*
X169336017Y-60581211D01*
X170778065Y-61759414D01*
X172118733Y-63051823D01*
X173348999Y-64449742D01*
X174460582Y-65943765D01*
X175446010Y-67523846D01*
X176298651Y-69179349D01*
X177012779Y-70899163D01*
X177583585Y-72671701D01*
X178007233Y-74485049D01*
X178280873Y-76327010D01*
X178403288Y-78194699D01*
X178410001Y-78744135D01*
X178410000Y-116180000D01*
X174180846Y-116180000D01*
X174209095Y-116168299D01*
X174460505Y-116000312D01*
X174674312Y-115786505D01*
X174842299Y-115535095D01*
X174958011Y-115255743D01*
X175017000Y-114959184D01*
X175017000Y-114656816D01*
X174958011Y-114360257D01*
X174842299Y-114080905D01*
X174674312Y-113829495D01*
X174460505Y-113615688D01*
X174209095Y-113447701D01*
X173929743Y-113331989D01*
X173633184Y-113273000D01*
X173330816Y-113273000D01*
X173034257Y-113331989D01*
X172754905Y-113447701D01*
X172503495Y-113615688D01*
X172289688Y-113829495D01*
X172232000Y-113915831D01*
X172174312Y-113829495D01*
X171960505Y-113615688D01*
X171867000Y-113553210D01*
X171867000Y-107048475D01*
X173097000Y-107048475D01*
X173097000Y-107567525D01*
X173198261Y-108076601D01*
X173396893Y-108556141D01*
X173685262Y-108987715D01*
X174052285Y-109354738D01*
X174483859Y-109643107D01*
X174963399Y-109841739D01*
X175472475Y-109943000D01*
X175991525Y-109943000D01*
X176500601Y-109841739D01*
X176980141Y-109643107D01*
X177411715Y-109354738D01*
X177778738Y-108987715D01*
X178067107Y-108556141D01*
X178265739Y-108076601D01*
X178367000Y-107567525D01*
X178367000Y-107048475D01*
X178265739Y-106539399D01*
X178067107Y-106059859D01*
X177778738Y-105628285D01*
X177411715Y-105261262D01*
X176980141Y-104972893D01*
X176500601Y-104774261D01*
X175991525Y-104673000D01*
X175472475Y-104673000D01*
X174963399Y-104774261D01*
X174483859Y-104972893D01*
X174052285Y-105261262D01*
X173685262Y-105628285D01*
X173396893Y-106059859D01*
X173198261Y-106539399D01*
X173097000Y-107048475D01*
X171867000Y-107048475D01*
X171867000Y-100239469D01*
X171871281Y-100196000D01*
X171867000Y-100152531D01*
X171867000Y-100152523D01*
X171854195Y-100022510D01*
X171838302Y-99970119D01*
X171803589Y-99855686D01*
X171721411Y-99701941D01*
X171638532Y-99600953D01*
X171638530Y-99600951D01*
X171610817Y-99567183D01*
X171577049Y-99539470D01*
X170258017Y-98220439D01*
X170265000Y-98185335D01*
X170265000Y-97902665D01*
X170209853Y-97625426D01*
X170101680Y-97364273D01*
X169944637Y-97129241D01*
X169744759Y-96929363D01*
X169509727Y-96772320D01*
X169248574Y-96664147D01*
X168971335Y-96609000D01*
X168688665Y-96609000D01*
X168411426Y-96664147D01*
X168150273Y-96772320D01*
X168092970Y-96810609D01*
X169276579Y-95627000D01*
X171884824Y-95627000D01*
X171742320Y-95840273D01*
X171634147Y-96101426D01*
X171579000Y-96378665D01*
X171579000Y-96661335D01*
X171634147Y-96938574D01*
X171742320Y-97199727D01*
X171899363Y-97434759D01*
X172099241Y-97634637D01*
X172334273Y-97791680D01*
X172595426Y-97899853D01*
X172872665Y-97955000D01*
X173155335Y-97955000D01*
X173432574Y-97899853D01*
X173693727Y-97791680D01*
X173928759Y-97634637D01*
X174095339Y-97468057D01*
X174124498Y-97564180D01*
X174183463Y-97674494D01*
X174262815Y-97771185D01*
X174359506Y-97850537D01*
X174469820Y-97909502D01*
X174589518Y-97945812D01*
X174714000Y-97958072D01*
X176314000Y-97958072D01*
X176438482Y-97945812D01*
X176558180Y-97909502D01*
X176668494Y-97850537D01*
X176765185Y-97771185D01*
X176844537Y-97674494D01*
X176903502Y-97564180D01*
X176939812Y-97444482D01*
X176952072Y-97320000D01*
X176952072Y-95720000D01*
X176939812Y-95595518D01*
X176903502Y-95475820D01*
X176844537Y-95365506D01*
X176765185Y-95268815D01*
X176668494Y-95189463D01*
X176558180Y-95130498D01*
X176438482Y-95094188D01*
X176390425Y-95089455D01*
X176386195Y-95046510D01*
X176335589Y-94879687D01*
X176253411Y-94725941D01*
X176142817Y-94591183D01*
X176109044Y-94563466D01*
X175692534Y-94146956D01*
X175664817Y-94113183D01*
X175530059Y-94002589D01*
X175376313Y-93920411D01*
X175209490Y-93869805D01*
X175079477Y-93857000D01*
X175079469Y-93857000D01*
X175036000Y-93852719D01*
X174992531Y-93857000D01*
X169268579Y-93857000D01*
X172070579Y-91055000D01*
X172814299Y-91055000D01*
X172818188Y-91094482D01*
X172854498Y-91214180D01*
X172913463Y-91324494D01*
X172992815Y-91421185D01*
X173089506Y-91500537D01*
X173199820Y-91559502D01*
X173319518Y-91595812D01*
X173444000Y-91608072D01*
X175044000Y-91608072D01*
X175168482Y-91595812D01*
X175288180Y-91559502D01*
X175398494Y-91500537D01*
X175495185Y-91421185D01*
X175574537Y-91324494D01*
X175633502Y-91214180D01*
X175669812Y-91094482D01*
X175682072Y-90970000D01*
X175682072Y-89370000D01*
X175669812Y-89245518D01*
X175633502Y-89125820D01*
X175574537Y-89015506D01*
X175495185Y-88918815D01*
X175398494Y-88839463D01*
X175288180Y-88780498D01*
X175192057Y-88751339D01*
X175358637Y-88584759D01*
X175515680Y-88349727D01*
X175623853Y-88088574D01*
X175679000Y-87811335D01*
X175679000Y-87528665D01*
X175623853Y-87251426D01*
X175515680Y-86990273D01*
X175358637Y-86755241D01*
X175158759Y-86555363D01*
X174923727Y-86398320D01*
X174662574Y-86290147D01*
X174385335Y-86235000D01*
X174102665Y-86235000D01*
X173825426Y-86290147D01*
X173564273Y-86398320D01*
X173329241Y-86555363D01*
X173129363Y-86755241D01*
X172972320Y-86990273D01*
X172864147Y-87251426D01*
X172809000Y-87528665D01*
X172809000Y-87811335D01*
X172864147Y-88088574D01*
X172972320Y-88349727D01*
X173129363Y-88584759D01*
X173295943Y-88751339D01*
X173199820Y-88780498D01*
X173089506Y-88839463D01*
X172992815Y-88918815D01*
X172913463Y-89015506D01*
X172854498Y-89125820D01*
X172818188Y-89245518D01*
X172814299Y-89285000D01*
X171747469Y-89285000D01*
X171704000Y-89280719D01*
X171660531Y-89285000D01*
X171660523Y-89285000D01*
X171530510Y-89297805D01*
X171363686Y-89348411D01*
X171209941Y-89430589D01*
X171108953Y-89513468D01*
X171108951Y-89513470D01*
X171075183Y-89541183D01*
X171047470Y-89574951D01*
X164006439Y-96615983D01*
X163971335Y-96609000D01*
X163688665Y-96609000D01*
X163411426Y-96664147D01*
X163150273Y-96772320D01*
X162915241Y-96929363D01*
X162715363Y-97129241D01*
X162558320Y-97364273D01*
X162450147Y-97625426D01*
X162395000Y-97902665D01*
X162395000Y-98185335D01*
X162450147Y-98462574D01*
X162541450Y-98683000D01*
X161333469Y-98683000D01*
X161290000Y-98678719D01*
X161246531Y-98683000D01*
X161246523Y-98683000D01*
X161116510Y-98695805D01*
X161039579Y-98719142D01*
X161145853Y-98462574D01*
X161201000Y-98185335D01*
X161201000Y-97902665D01*
X161145853Y-97625426D01*
X161037680Y-97364273D01*
X160880637Y-97129241D01*
X160680759Y-96929363D01*
X160448241Y-96774000D01*
X160680759Y-96618637D01*
X160880637Y-96418759D01*
X161037680Y-96183727D01*
X161145853Y-95922574D01*
X161201000Y-95645335D01*
X161201000Y-95362665D01*
X161194017Y-95327561D01*
X163663050Y-92858529D01*
X163696817Y-92830817D01*
X163728003Y-92792818D01*
X163807410Y-92696060D01*
X163807411Y-92696059D01*
X163889589Y-92542313D01*
X163940195Y-92375490D01*
X163953000Y-92245477D01*
X163953000Y-92245467D01*
X163957281Y-92202001D01*
X163953000Y-92158535D01*
X163953000Y-89451469D01*
X163957281Y-89408000D01*
X163953000Y-89364531D01*
X163953000Y-89364523D01*
X163940195Y-89234510D01*
X163889589Y-89067687D01*
X163889589Y-89067686D01*
X163807411Y-88913941D01*
X163724532Y-88812953D01*
X163724530Y-88812951D01*
X163696817Y-88779183D01*
X163663049Y-88751470D01*
X159914534Y-85002956D01*
X159886817Y-84969183D01*
X159752059Y-84858589D01*
X159598313Y-84776411D01*
X159431490Y-84725805D01*
X159301477Y-84713000D01*
X159301469Y-84713000D01*
X159258000Y-84708719D01*
X159214531Y-84713000D01*
X156170625Y-84713000D01*
X156161812Y-84623518D01*
X156125502Y-84503820D01*
X156066537Y-84393506D01*
X155987185Y-84296815D01*
X155890494Y-84217463D01*
X155780180Y-84158498D01*
X155660482Y-84122188D01*
X155536000Y-84109928D01*
X153836000Y-84109928D01*
X153711518Y-84122188D01*
X153591820Y-84158498D01*
X153481506Y-84217463D01*
X153384815Y-84296815D01*
X153305463Y-84393506D01*
X153246498Y-84503820D01*
X153222034Y-84584466D01*
X153146269Y-84500412D01*
X152912920Y-84326359D01*
X152650099Y-84201175D01*
X152502890Y-84156524D01*
X152273000Y-84277845D01*
X152273000Y-85471000D01*
X152293000Y-85471000D01*
X152293000Y-85725000D01*
X152273000Y-85725000D01*
X152273000Y-85745000D01*
X152019000Y-85745000D01*
X152019000Y-85725000D01*
X151999000Y-85725000D01*
X151999000Y-85471000D01*
X152019000Y-85471000D01*
X152019000Y-84277845D01*
X151789110Y-84156524D01*
X151641901Y-84201175D01*
X151379080Y-84326359D01*
X151145731Y-84500412D01*
X150950822Y-84716645D01*
X150801843Y-84966748D01*
X150704519Y-85241109D01*
X150825185Y-85470998D01*
X150661000Y-85470998D01*
X150661000Y-85481421D01*
X148922017Y-83742439D01*
X148929000Y-83707335D01*
X148929000Y-83424665D01*
X148873853Y-83147426D01*
X148765680Y-82886273D01*
X148608637Y-82651241D01*
X148408759Y-82451363D01*
X148173727Y-82294320D01*
X147912574Y-82186147D01*
X147635335Y-82131000D01*
X147352665Y-82131000D01*
X147075426Y-82186147D01*
X146814273Y-82294320D01*
X146579241Y-82451363D01*
X146379363Y-82651241D01*
X146222320Y-82886273D01*
X146114147Y-83147426D01*
X146059000Y-83424665D01*
X146059000Y-83707335D01*
X146114147Y-83984574D01*
X146222320Y-84245727D01*
X146379363Y-84480759D01*
X146579241Y-84680637D01*
X146814273Y-84837680D01*
X147075426Y-84945853D01*
X147352665Y-85001000D01*
X147635335Y-85001000D01*
X147670439Y-84994017D01*
X150437421Y-87761000D01*
X148454521Y-87761000D01*
X148434637Y-87731241D01*
X148234759Y-87531363D01*
X147999727Y-87374320D01*
X147738574Y-87266147D01*
X147461335Y-87211000D01*
X147178665Y-87211000D01*
X146901426Y-87266147D01*
X146640273Y-87374320D01*
X146405241Y-87531363D01*
X146205363Y-87731241D01*
X146048320Y-87966273D01*
X145940147Y-88227426D01*
X145885000Y-88504665D01*
X145885000Y-88787335D01*
X145940147Y-89064574D01*
X146048320Y-89325727D01*
X146205363Y-89560759D01*
X146405241Y-89760637D01*
X146640273Y-89917680D01*
X146901426Y-90025853D01*
X147178665Y-90081000D01*
X147461335Y-90081000D01*
X147738574Y-90025853D01*
X147999727Y-89917680D01*
X148234759Y-89760637D01*
X148434637Y-89560759D01*
X148454521Y-89531000D01*
X150717087Y-89531000D01*
X150707928Y-89624000D01*
X150707928Y-91224000D01*
X150720188Y-91348482D01*
X150756498Y-91468180D01*
X150815463Y-91578494D01*
X150894815Y-91675185D01*
X150991506Y-91754537D01*
X151101820Y-91813502D01*
X151221518Y-91849812D01*
X151246080Y-91852231D01*
X151082481Y-92000586D01*
X150914963Y-92226580D01*
X150794754Y-92480913D01*
X150754096Y-92614961D01*
X150876085Y-92837000D01*
X152019000Y-92837000D01*
X152019000Y-92817000D01*
X152273000Y-92817000D01*
X152273000Y-92837000D01*
X152293000Y-92837000D01*
X152293000Y-93091000D01*
X152273000Y-93091000D01*
X152273000Y-93111000D01*
X152019000Y-93111000D01*
X152019000Y-93091000D01*
X150876085Y-93091000D01*
X150754096Y-93313039D01*
X150794754Y-93447087D01*
X150914963Y-93701420D01*
X151082481Y-93927414D01*
X151290869Y-94116385D01*
X151476865Y-94227933D01*
X151466273Y-94232320D01*
X151231241Y-94389363D01*
X151031363Y-94589241D01*
X150874320Y-94824273D01*
X150766147Y-95085426D01*
X150711000Y-95362665D01*
X150711000Y-95645335D01*
X150717983Y-95680438D01*
X139906952Y-106491470D01*
X139873184Y-106519183D01*
X139845471Y-106552951D01*
X139845468Y-106552954D01*
X139770051Y-106644850D01*
X139723588Y-106491683D01*
X139641410Y-106337938D01*
X139558531Y-106236950D01*
X139558529Y-106236948D01*
X139530816Y-106203180D01*
X139497049Y-106175468D01*
X136013000Y-102691420D01*
X136013000Y-100933040D01*
X141356091Y-100933040D01*
X141450930Y-101197881D01*
X141595615Y-101439131D01*
X141784586Y-101647519D01*
X142010580Y-101815037D01*
X142264913Y-101935246D01*
X142398961Y-101975904D01*
X142621000Y-101853915D01*
X142621000Y-100711000D01*
X142875000Y-100711000D01*
X142875000Y-101853915D01*
X143097039Y-101975904D01*
X143231087Y-101935246D01*
X143485420Y-101815037D01*
X143711414Y-101647519D01*
X143900385Y-101439131D01*
X144045070Y-101197881D01*
X144139909Y-100933040D01*
X144018624Y-100711000D01*
X142875000Y-100711000D01*
X142621000Y-100711000D01*
X141477376Y-100711000D01*
X141356091Y-100933040D01*
X136013000Y-100933040D01*
X136013000Y-100234960D01*
X141356091Y-100234960D01*
X141477376Y-100457000D01*
X142621000Y-100457000D01*
X142621000Y-99314085D01*
X142875000Y-99314085D01*
X142875000Y-100457000D01*
X144018624Y-100457000D01*
X144139909Y-100234960D01*
X144045070Y-99970119D01*
X143900385Y-99728869D01*
X143711414Y-99520481D01*
X143485420Y-99352963D01*
X143231087Y-99232754D01*
X143097039Y-99192096D01*
X142875000Y-99314085D01*
X142621000Y-99314085D01*
X142398961Y-99192096D01*
X142264913Y-99232754D01*
X142010580Y-99352963D01*
X141784586Y-99520481D01*
X141595615Y-99728869D01*
X141450930Y-99970119D01*
X141356091Y-100234960D01*
X136013000Y-100234960D01*
X136013000Y-99492656D01*
X136074632Y-99451475D01*
X136281475Y-99244632D01*
X136443990Y-99001411D01*
X136555932Y-98731158D01*
X136613000Y-98444260D01*
X136613000Y-98151740D01*
X136555932Y-97864842D01*
X136443990Y-97594589D01*
X136281475Y-97351368D01*
X136149620Y-97219513D01*
X136222180Y-97197502D01*
X136332494Y-97138537D01*
X136429185Y-97059185D01*
X136508537Y-96962494D01*
X136567502Y-96852180D01*
X136603812Y-96732482D01*
X136616072Y-96608000D01*
X136613000Y-96043750D01*
X136454250Y-95885000D01*
X135255000Y-95885000D01*
X135255000Y-95905000D01*
X135001000Y-95905000D01*
X135001000Y-95885000D01*
X133801750Y-95885000D01*
X133643000Y-96043750D01*
X133639928Y-96608000D01*
X133652188Y-96732482D01*
X133688498Y-96852180D01*
X133747463Y-96962494D01*
X133826815Y-97059185D01*
X133923506Y-97138537D01*
X134033820Y-97197502D01*
X134106380Y-97219513D01*
X133974525Y-97351368D01*
X133812010Y-97594589D01*
X133700068Y-97864842D01*
X133643000Y-98151740D01*
X133643000Y-98444260D01*
X133700068Y-98731158D01*
X133812010Y-99001411D01*
X133974525Y-99244632D01*
X134181368Y-99451475D01*
X134243000Y-99492656D01*
X134243001Y-103014519D01*
X134238719Y-103057998D01*
X134255805Y-103231488D01*
X134306412Y-103398311D01*
X134388590Y-103552057D01*
X134471468Y-103653044D01*
X134471471Y-103653047D01*
X134499184Y-103686815D01*
X134532951Y-103714528D01*
X135491598Y-104673174D01*
X134983399Y-104774261D01*
X134503859Y-104972893D01*
X134072285Y-105261262D01*
X133705262Y-105628285D01*
X133416893Y-106059859D01*
X133218261Y-106539399D01*
X133117000Y-107048475D01*
X133117000Y-107567525D01*
X133218261Y-108076601D01*
X133416893Y-108556141D01*
X133705262Y-108987715D01*
X134072285Y-109354738D01*
X134503859Y-109643107D01*
X134983399Y-109841739D01*
X135492475Y-109943000D01*
X136011525Y-109943000D01*
X136520601Y-109841739D01*
X137000141Y-109643107D01*
X137431715Y-109354738D01*
X137798738Y-108987715D01*
X138016999Y-108661064D01*
X138017000Y-113273000D01*
X137850816Y-113273000D01*
X137554257Y-113331989D01*
X137274905Y-113447701D01*
X137023495Y-113615688D01*
X136809688Y-113829495D01*
X136641701Y-114080905D01*
X136525989Y-114360257D01*
X136467000Y-114656816D01*
X136467000Y-114959184D01*
X136525989Y-115255743D01*
X136641701Y-115535095D01*
X136809688Y-115786505D01*
X137023495Y-116000312D01*
X137274905Y-116168299D01*
X137303154Y-116180000D01*
X132744414Y-116180000D01*
X132886227Y-94908000D01*
X133639928Y-94908000D01*
X133643000Y-95472250D01*
X133801750Y-95631000D01*
X135001000Y-95631000D01*
X135001000Y-94431750D01*
X135255000Y-94431750D01*
X135255000Y-95631000D01*
X136454250Y-95631000D01*
X136613000Y-95472250D01*
X136616072Y-94908000D01*
X136603812Y-94783518D01*
X136567502Y-94663820D01*
X136508537Y-94553506D01*
X136429185Y-94456815D01*
X136332494Y-94377463D01*
X136222180Y-94318498D01*
X136102482Y-94282188D01*
X135978000Y-94269928D01*
X135413750Y-94273000D01*
X135255000Y-94431750D01*
X135001000Y-94431750D01*
X134842250Y-94273000D01*
X134278000Y-94269928D01*
X134153518Y-94282188D01*
X134033820Y-94318498D01*
X133923506Y-94377463D01*
X133826815Y-94456815D01*
X133747463Y-94553506D01*
X133688498Y-94663820D01*
X133652188Y-94783518D01*
X133639928Y-94908000D01*
X132886227Y-94908000D01*
X132910354Y-91288891D01*
X133686519Y-91288891D01*
X133783843Y-91563252D01*
X133932822Y-91813355D01*
X134127731Y-92029588D01*
X134361080Y-92203641D01*
X134623901Y-92328825D01*
X134771110Y-92373476D01*
X135001000Y-92252155D01*
X135001000Y-91059000D01*
X133807186Y-91059000D01*
X133686519Y-91288891D01*
X132910354Y-91288891D01*
X132915112Y-90575109D01*
X133686519Y-90575109D01*
X133807186Y-90805000D01*
X135001000Y-90805000D01*
X135001000Y-89611845D01*
X135255000Y-89611845D01*
X135255000Y-90805000D01*
X135275000Y-90805000D01*
X135275000Y-91059000D01*
X135255000Y-91059000D01*
X135255000Y-92252155D01*
X135484890Y-92373476D01*
X135632099Y-92328825D01*
X135894920Y-92203641D01*
X136128269Y-92029588D01*
X136204034Y-91945534D01*
X136228498Y-92026180D01*
X136287463Y-92136494D01*
X136366815Y-92233185D01*
X136463506Y-92312537D01*
X136573820Y-92371502D01*
X136693518Y-92407812D01*
X136818000Y-92420072D01*
X138518000Y-92420072D01*
X138642482Y-92407812D01*
X138762180Y-92371502D01*
X138872494Y-92312537D01*
X138969185Y-92233185D01*
X139048537Y-92136494D01*
X139107502Y-92026180D01*
X139143812Y-91906482D01*
X139156072Y-91782000D01*
X139156072Y-90082000D01*
X139143812Y-89957518D01*
X139107502Y-89837820D01*
X139048537Y-89727506D01*
X138969185Y-89630815D01*
X138872494Y-89551463D01*
X138762180Y-89492498D01*
X138642482Y-89456188D01*
X138518000Y-89443928D01*
X136818000Y-89443928D01*
X136693518Y-89456188D01*
X136573820Y-89492498D01*
X136463506Y-89551463D01*
X136366815Y-89630815D01*
X136287463Y-89727506D01*
X136228498Y-89837820D01*
X136204034Y-89918466D01*
X136128269Y-89834412D01*
X135894920Y-89660359D01*
X135632099Y-89535175D01*
X135484890Y-89490524D01*
X135255000Y-89611845D01*
X135001000Y-89611845D01*
X134771110Y-89490524D01*
X134623901Y-89535175D01*
X134361080Y-89660359D01*
X134127731Y-89834412D01*
X133932822Y-90050645D01*
X133783843Y-90300748D01*
X133686519Y-90575109D01*
X132915112Y-90575109D01*
X132928915Y-88504665D01*
X140885000Y-88504665D01*
X140885000Y-88787335D01*
X140940147Y-89064574D01*
X141048320Y-89325727D01*
X141205363Y-89560759D01*
X141405241Y-89760637D01*
X141640273Y-89917680D01*
X141863001Y-90009937D01*
X141863000Y-91829479D01*
X141833241Y-91849363D01*
X141633363Y-92049241D01*
X141476320Y-92284273D01*
X141368147Y-92545426D01*
X141313000Y-92822665D01*
X141313000Y-93105335D01*
X141368147Y-93382574D01*
X141476320Y-93643727D01*
X141633363Y-93878759D01*
X141833241Y-94078637D01*
X142068273Y-94235680D01*
X142329426Y-94343853D01*
X142606665Y-94399000D01*
X142889335Y-94399000D01*
X143166574Y-94343853D01*
X143427727Y-94235680D01*
X143662759Y-94078637D01*
X143862637Y-93878759D01*
X144019680Y-93643727D01*
X144127853Y-93382574D01*
X144183000Y-93105335D01*
X144183000Y-92822665D01*
X144127853Y-92545426D01*
X144019680Y-92284273D01*
X143862637Y-92049241D01*
X143662759Y-91849363D01*
X143633000Y-91829479D01*
X143633000Y-89225972D01*
X143699853Y-89064574D01*
X143755000Y-88787335D01*
X143755000Y-88504665D01*
X143699853Y-88227426D01*
X143591680Y-87966273D01*
X143434637Y-87731241D01*
X143234759Y-87531363D01*
X142999727Y-87374320D01*
X142738574Y-87266147D01*
X142461335Y-87211000D01*
X142178665Y-87211000D01*
X141901426Y-87266147D01*
X141640273Y-87374320D01*
X141405241Y-87531363D01*
X141205363Y-87731241D01*
X141048320Y-87966273D01*
X140940147Y-88227426D01*
X140885000Y-88504665D01*
X132928915Y-88504665D01*
X132955221Y-84558702D01*
X141680903Y-84558702D01*
X141752486Y-84802671D01*
X142007996Y-84923571D01*
X142282184Y-84992300D01*
X142564512Y-85006217D01*
X142844130Y-84964787D01*
X143110292Y-84869603D01*
X143235514Y-84802671D01*
X143307097Y-84558702D01*
X142494000Y-83745605D01*
X141680903Y-84558702D01*
X132955221Y-84558702D01*
X132961369Y-83636512D01*
X141053783Y-83636512D01*
X141095213Y-83916130D01*
X141190397Y-84182292D01*
X141257329Y-84307514D01*
X141501298Y-84379097D01*
X142314395Y-83566000D01*
X142673605Y-83566000D01*
X143486702Y-84379097D01*
X143730671Y-84307514D01*
X143851571Y-84052004D01*
X143920300Y-83777816D01*
X143934217Y-83495488D01*
X143892787Y-83215870D01*
X143797603Y-82949708D01*
X143730671Y-82824486D01*
X143486702Y-82752903D01*
X142673605Y-83566000D01*
X142314395Y-83566000D01*
X141501298Y-82752903D01*
X141257329Y-82824486D01*
X141136429Y-83079996D01*
X141067700Y-83354184D01*
X141053783Y-83636512D01*
X132961369Y-83636512D01*
X132968457Y-82573298D01*
X141680903Y-82573298D01*
X142494000Y-83386395D01*
X143307097Y-82573298D01*
X143235514Y-82329329D01*
X142980004Y-82208429D01*
X142705816Y-82139700D01*
X142423488Y-82125783D01*
X142143870Y-82167213D01*
X141877708Y-82262397D01*
X141752486Y-82329329D01*
X141680903Y-82573298D01*
X132968457Y-82573298D01*
X132993909Y-78755752D01*
X133070912Y-76879385D01*
X133299467Y-75031287D01*
X133678686Y-73208121D01*
X134206012Y-71422175D01*
X134877912Y-69685421D01*
X135689854Y-68009575D01*
X136636384Y-66405888D01*
X137711129Y-64885160D01*
X138906868Y-63457608D01*
X140215564Y-62132823D01*
X141628406Y-60919731D01*
X143135893Y-59826486D01*
X144727895Y-58860436D01*
X146393694Y-58028084D01*
X148122094Y-57335023D01*
X149901479Y-56785912D01*
X151719878Y-56384447D01*
X153565049Y-56133331D01*
X155424586Y-56034250D01*
X157285984Y-56087869D01*
G37*
X157285984Y-56087869D02*
X159136747Y-56293830D01*
X160964411Y-56650747D01*
X162756662Y-57156214D01*
X164501485Y-57806842D01*
X166187133Y-58598252D01*
X167802260Y-59525117D01*
X169336017Y-60581211D01*
X170778065Y-61759414D01*
X172118733Y-63051823D01*
X173348999Y-64449742D01*
X174460582Y-65943765D01*
X175446010Y-67523846D01*
X176298651Y-69179349D01*
X177012779Y-70899163D01*
X177583585Y-72671701D01*
X178007233Y-74485049D01*
X178280873Y-76327010D01*
X178403288Y-78194699D01*
X178410001Y-78744135D01*
X178410000Y-116180000D01*
X174180846Y-116180000D01*
X174209095Y-116168299D01*
X174460505Y-116000312D01*
X174674312Y-115786505D01*
X174842299Y-115535095D01*
X174958011Y-115255743D01*
X175017000Y-114959184D01*
X175017000Y-114656816D01*
X174958011Y-114360257D01*
X174842299Y-114080905D01*
X174674312Y-113829495D01*
X174460505Y-113615688D01*
X174209095Y-113447701D01*
X173929743Y-113331989D01*
X173633184Y-113273000D01*
X173330816Y-113273000D01*
X173034257Y-113331989D01*
X172754905Y-113447701D01*
X172503495Y-113615688D01*
X172289688Y-113829495D01*
X172232000Y-113915831D01*
X172174312Y-113829495D01*
X171960505Y-113615688D01*
X171867000Y-113553210D01*
X171867000Y-107048475D01*
X173097000Y-107048475D01*
X173097000Y-107567525D01*
X173198261Y-108076601D01*
X173396893Y-108556141D01*
X173685262Y-108987715D01*
X174052285Y-109354738D01*
X174483859Y-109643107D01*
X174963399Y-109841739D01*
X175472475Y-109943000D01*
X175991525Y-109943000D01*
X176500601Y-109841739D01*
X176980141Y-109643107D01*
X177411715Y-109354738D01*
X177778738Y-108987715D01*
X178067107Y-108556141D01*
X178265739Y-108076601D01*
X178367000Y-107567525D01*
X178367000Y-107048475D01*
X178265739Y-106539399D01*
X178067107Y-106059859D01*
X177778738Y-105628285D01*
X177411715Y-105261262D01*
X176980141Y-104972893D01*
X176500601Y-104774261D01*
X175991525Y-104673000D01*
X175472475Y-104673000D01*
X174963399Y-104774261D01*
X174483859Y-104972893D01*
X174052285Y-105261262D01*
X173685262Y-105628285D01*
X173396893Y-106059859D01*
X173198261Y-106539399D01*
X173097000Y-107048475D01*
X171867000Y-107048475D01*
X171867000Y-100239469D01*
X171871281Y-100196000D01*
X171867000Y-100152531D01*
X171867000Y-100152523D01*
X171854195Y-100022510D01*
X171838302Y-99970119D01*
X171803589Y-99855686D01*
X171721411Y-99701941D01*
X171638532Y-99600953D01*
X171638530Y-99600951D01*
X171610817Y-99567183D01*
X171577049Y-99539470D01*
X170258017Y-98220439D01*
X170265000Y-98185335D01*
X170265000Y-97902665D01*
X170209853Y-97625426D01*
X170101680Y-97364273D01*
X169944637Y-97129241D01*
X169744759Y-96929363D01*
X169509727Y-96772320D01*
X169248574Y-96664147D01*
X168971335Y-96609000D01*
X168688665Y-96609000D01*
X168411426Y-96664147D01*
X168150273Y-96772320D01*
X168092970Y-96810609D01*
X169276579Y-95627000D01*
X171884824Y-95627000D01*
X171742320Y-95840273D01*
X171634147Y-96101426D01*
X171579000Y-96378665D01*
X171579000Y-96661335D01*
X171634147Y-96938574D01*
X171742320Y-97199727D01*
X171899363Y-97434759D01*
X172099241Y-97634637D01*
X172334273Y-97791680D01*
X172595426Y-97899853D01*
X172872665Y-97955000D01*
X173155335Y-97955000D01*
X173432574Y-97899853D01*
X173693727Y-97791680D01*
X173928759Y-97634637D01*
X174095339Y-97468057D01*
X174124498Y-97564180D01*
X174183463Y-97674494D01*
X174262815Y-97771185D01*
X174359506Y-97850537D01*
X174469820Y-97909502D01*
X174589518Y-97945812D01*
X174714000Y-97958072D01*
X176314000Y-97958072D01*
X176438482Y-97945812D01*
X176558180Y-97909502D01*
X176668494Y-97850537D01*
X176765185Y-97771185D01*
X176844537Y-97674494D01*
X176903502Y-97564180D01*
X176939812Y-97444482D01*
X176952072Y-97320000D01*
X176952072Y-95720000D01*
X176939812Y-95595518D01*
X176903502Y-95475820D01*
X176844537Y-95365506D01*
X176765185Y-95268815D01*
X176668494Y-95189463D01*
X176558180Y-95130498D01*
X176438482Y-95094188D01*
X176390425Y-95089455D01*
X176386195Y-95046510D01*
X176335589Y-94879687D01*
X176253411Y-94725941D01*
X176142817Y-94591183D01*
X176109044Y-94563466D01*
X175692534Y-94146956D01*
X175664817Y-94113183D01*
X175530059Y-94002589D01*
X175376313Y-93920411D01*
X175209490Y-93869805D01*
X175079477Y-93857000D01*
X175079469Y-93857000D01*
X175036000Y-93852719D01*
X174992531Y-93857000D01*
X169268579Y-93857000D01*
X172070579Y-91055000D01*
X172814299Y-91055000D01*
X172818188Y-91094482D01*
X172854498Y-91214180D01*
X172913463Y-91324494D01*
X172992815Y-91421185D01*
X173089506Y-91500537D01*
X173199820Y-91559502D01*
X173319518Y-91595812D01*
X173444000Y-91608072D01*
X175044000Y-91608072D01*
X175168482Y-91595812D01*
X175288180Y-91559502D01*
X175398494Y-91500537D01*
X175495185Y-91421185D01*
X175574537Y-91324494D01*
X175633502Y-91214180D01*
X175669812Y-91094482D01*
X175682072Y-90970000D01*
X175682072Y-89370000D01*
X175669812Y-89245518D01*
X175633502Y-89125820D01*
X175574537Y-89015506D01*
X175495185Y-88918815D01*
X175398494Y-88839463D01*
X175288180Y-88780498D01*
X175192057Y-88751339D01*
X175358637Y-88584759D01*
X175515680Y-88349727D01*
X175623853Y-88088574D01*
X175679000Y-87811335D01*
X175679000Y-87528665D01*
X175623853Y-87251426D01*
X175515680Y-86990273D01*
X175358637Y-86755241D01*
X175158759Y-86555363D01*
X174923727Y-86398320D01*
X174662574Y-86290147D01*
X174385335Y-86235000D01*
X174102665Y-86235000D01*
X173825426Y-86290147D01*
X173564273Y-86398320D01*
X173329241Y-86555363D01*
X173129363Y-86755241D01*
X172972320Y-86990273D01*
X172864147Y-87251426D01*
X172809000Y-87528665D01*
X172809000Y-87811335D01*
X172864147Y-88088574D01*
X172972320Y-88349727D01*
X173129363Y-88584759D01*
X173295943Y-88751339D01*
X173199820Y-88780498D01*
X173089506Y-88839463D01*
X172992815Y-88918815D01*
X172913463Y-89015506D01*
X172854498Y-89125820D01*
X172818188Y-89245518D01*
X172814299Y-89285000D01*
X171747469Y-89285000D01*
X171704000Y-89280719D01*
X171660531Y-89285000D01*
X171660523Y-89285000D01*
X171530510Y-89297805D01*
X171363686Y-89348411D01*
X171209941Y-89430589D01*
X171108953Y-89513468D01*
X171108951Y-89513470D01*
X171075183Y-89541183D01*
X171047470Y-89574951D01*
X164006439Y-96615983D01*
X163971335Y-96609000D01*
X163688665Y-96609000D01*
X163411426Y-96664147D01*
X163150273Y-96772320D01*
X162915241Y-96929363D01*
X162715363Y-97129241D01*
X162558320Y-97364273D01*
X162450147Y-97625426D01*
X162395000Y-97902665D01*
X162395000Y-98185335D01*
X162450147Y-98462574D01*
X162541450Y-98683000D01*
X161333469Y-98683000D01*
X161290000Y-98678719D01*
X161246531Y-98683000D01*
X161246523Y-98683000D01*
X161116510Y-98695805D01*
X161039579Y-98719142D01*
X161145853Y-98462574D01*
X161201000Y-98185335D01*
X161201000Y-97902665D01*
X161145853Y-97625426D01*
X161037680Y-97364273D01*
X160880637Y-97129241D01*
X160680759Y-96929363D01*
X160448241Y-96774000D01*
X160680759Y-96618637D01*
X160880637Y-96418759D01*
X161037680Y-96183727D01*
X161145853Y-95922574D01*
X161201000Y-95645335D01*
X161201000Y-95362665D01*
X161194017Y-95327561D01*
X163663050Y-92858529D01*
X163696817Y-92830817D01*
X163728003Y-92792818D01*
X163807410Y-92696060D01*
X163807411Y-92696059D01*
X163889589Y-92542313D01*
X163940195Y-92375490D01*
X163953000Y-92245477D01*
X163953000Y-92245467D01*
X163957281Y-92202001D01*
X163953000Y-92158535D01*
X163953000Y-89451469D01*
X163957281Y-89408000D01*
X163953000Y-89364531D01*
X163953000Y-89364523D01*
X163940195Y-89234510D01*
X163889589Y-89067687D01*
X163889589Y-89067686D01*
X163807411Y-88913941D01*
X163724532Y-88812953D01*
X163724530Y-88812951D01*
X163696817Y-88779183D01*
X163663049Y-88751470D01*
X159914534Y-85002956D01*
X159886817Y-84969183D01*
X159752059Y-84858589D01*
X159598313Y-84776411D01*
X159431490Y-84725805D01*
X159301477Y-84713000D01*
X159301469Y-84713000D01*
X159258000Y-84708719D01*
X159214531Y-84713000D01*
X156170625Y-84713000D01*
X156161812Y-84623518D01*
X156125502Y-84503820D01*
X156066537Y-84393506D01*
X155987185Y-84296815D01*
X155890494Y-84217463D01*
X155780180Y-84158498D01*
X155660482Y-84122188D01*
X155536000Y-84109928D01*
X153836000Y-84109928D01*
X153711518Y-84122188D01*
X153591820Y-84158498D01*
X153481506Y-84217463D01*
X153384815Y-84296815D01*
X153305463Y-84393506D01*
X153246498Y-84503820D01*
X153222034Y-84584466D01*
X153146269Y-84500412D01*
X152912920Y-84326359D01*
X152650099Y-84201175D01*
X152502890Y-84156524D01*
X152273000Y-84277845D01*
X152273000Y-85471000D01*
X152293000Y-85471000D01*
X152293000Y-85725000D01*
X152273000Y-85725000D01*
X152273000Y-85745000D01*
X152019000Y-85745000D01*
X152019000Y-85725000D01*
X151999000Y-85725000D01*
X151999000Y-85471000D01*
X152019000Y-85471000D01*
X152019000Y-84277845D01*
X151789110Y-84156524D01*
X151641901Y-84201175D01*
X151379080Y-84326359D01*
X151145731Y-84500412D01*
X150950822Y-84716645D01*
X150801843Y-84966748D01*
X150704519Y-85241109D01*
X150825185Y-85470998D01*
X150661000Y-85470998D01*
X150661000Y-85481421D01*
X148922017Y-83742439D01*
X148929000Y-83707335D01*
X148929000Y-83424665D01*
X148873853Y-83147426D01*
X148765680Y-82886273D01*
X148608637Y-82651241D01*
X148408759Y-82451363D01*
X148173727Y-82294320D01*
X147912574Y-82186147D01*
X147635335Y-82131000D01*
X147352665Y-82131000D01*
X147075426Y-82186147D01*
X146814273Y-82294320D01*
X146579241Y-82451363D01*
X146379363Y-82651241D01*
X146222320Y-82886273D01*
X146114147Y-83147426D01*
X146059000Y-83424665D01*
X146059000Y-83707335D01*
X146114147Y-83984574D01*
X146222320Y-84245727D01*
X146379363Y-84480759D01*
X146579241Y-84680637D01*
X146814273Y-84837680D01*
X147075426Y-84945853D01*
X147352665Y-85001000D01*
X147635335Y-85001000D01*
X147670439Y-84994017D01*
X150437421Y-87761000D01*
X148454521Y-87761000D01*
X148434637Y-87731241D01*
X148234759Y-87531363D01*
X147999727Y-87374320D01*
X147738574Y-87266147D01*
X147461335Y-87211000D01*
X147178665Y-87211000D01*
X146901426Y-87266147D01*
X146640273Y-87374320D01*
X146405241Y-87531363D01*
X146205363Y-87731241D01*
X146048320Y-87966273D01*
X145940147Y-88227426D01*
X145885000Y-88504665D01*
X145885000Y-88787335D01*
X145940147Y-89064574D01*
X146048320Y-89325727D01*
X146205363Y-89560759D01*
X146405241Y-89760637D01*
X146640273Y-89917680D01*
X146901426Y-90025853D01*
X147178665Y-90081000D01*
X147461335Y-90081000D01*
X147738574Y-90025853D01*
X147999727Y-89917680D01*
X148234759Y-89760637D01*
X148434637Y-89560759D01*
X148454521Y-89531000D01*
X150717087Y-89531000D01*
X150707928Y-89624000D01*
X150707928Y-91224000D01*
X150720188Y-91348482D01*
X150756498Y-91468180D01*
X150815463Y-91578494D01*
X150894815Y-91675185D01*
X150991506Y-91754537D01*
X151101820Y-91813502D01*
X151221518Y-91849812D01*
X151246080Y-91852231D01*
X151082481Y-92000586D01*
X150914963Y-92226580D01*
X150794754Y-92480913D01*
X150754096Y-92614961D01*
X150876085Y-92837000D01*
X152019000Y-92837000D01*
X152019000Y-92817000D01*
X152273000Y-92817000D01*
X152273000Y-92837000D01*
X152293000Y-92837000D01*
X152293000Y-93091000D01*
X152273000Y-93091000D01*
X152273000Y-93111000D01*
X152019000Y-93111000D01*
X152019000Y-93091000D01*
X150876085Y-93091000D01*
X150754096Y-93313039D01*
X150794754Y-93447087D01*
X150914963Y-93701420D01*
X151082481Y-93927414D01*
X151290869Y-94116385D01*
X151476865Y-94227933D01*
X151466273Y-94232320D01*
X151231241Y-94389363D01*
X151031363Y-94589241D01*
X150874320Y-94824273D01*
X150766147Y-95085426D01*
X150711000Y-95362665D01*
X150711000Y-95645335D01*
X150717983Y-95680438D01*
X139906952Y-106491470D01*
X139873184Y-106519183D01*
X139845471Y-106552951D01*
X139845468Y-106552954D01*
X139770051Y-106644850D01*
X139723588Y-106491683D01*
X139641410Y-106337938D01*
X139558531Y-106236950D01*
X139558529Y-106236948D01*
X139530816Y-106203180D01*
X139497049Y-106175468D01*
X136013000Y-102691420D01*
X136013000Y-100933040D01*
X141356091Y-100933040D01*
X141450930Y-101197881D01*
X141595615Y-101439131D01*
X141784586Y-101647519D01*
X142010580Y-101815037D01*
X142264913Y-101935246D01*
X142398961Y-101975904D01*
X142621000Y-101853915D01*
X142621000Y-100711000D01*
X142875000Y-100711000D01*
X142875000Y-101853915D01*
X143097039Y-101975904D01*
X143231087Y-101935246D01*
X143485420Y-101815037D01*
X143711414Y-101647519D01*
X143900385Y-101439131D01*
X144045070Y-101197881D01*
X144139909Y-100933040D01*
X144018624Y-100711000D01*
X142875000Y-100711000D01*
X142621000Y-100711000D01*
X141477376Y-100711000D01*
X141356091Y-100933040D01*
X136013000Y-100933040D01*
X136013000Y-100234960D01*
X141356091Y-100234960D01*
X141477376Y-100457000D01*
X142621000Y-100457000D01*
X142621000Y-99314085D01*
X142875000Y-99314085D01*
X142875000Y-100457000D01*
X144018624Y-100457000D01*
X144139909Y-100234960D01*
X144045070Y-99970119D01*
X143900385Y-99728869D01*
X143711414Y-99520481D01*
X143485420Y-99352963D01*
X143231087Y-99232754D01*
X143097039Y-99192096D01*
X142875000Y-99314085D01*
X142621000Y-99314085D01*
X142398961Y-99192096D01*
X142264913Y-99232754D01*
X142010580Y-99352963D01*
X141784586Y-99520481D01*
X141595615Y-99728869D01*
X141450930Y-99970119D01*
X141356091Y-100234960D01*
X136013000Y-100234960D01*
X136013000Y-99492656D01*
X136074632Y-99451475D01*
X136281475Y-99244632D01*
X136443990Y-99001411D01*
X136555932Y-98731158D01*
X136613000Y-98444260D01*
X136613000Y-98151740D01*
X136555932Y-97864842D01*
X136443990Y-97594589D01*
X136281475Y-97351368D01*
X136149620Y-97219513D01*
X136222180Y-97197502D01*
X136332494Y-97138537D01*
X136429185Y-97059185D01*
X136508537Y-96962494D01*
X136567502Y-96852180D01*
X136603812Y-96732482D01*
X136616072Y-96608000D01*
X136613000Y-96043750D01*
X136454250Y-95885000D01*
X135255000Y-95885000D01*
X135255000Y-95905000D01*
X135001000Y-95905000D01*
X135001000Y-95885000D01*
X133801750Y-95885000D01*
X133643000Y-96043750D01*
X133639928Y-96608000D01*
X133652188Y-96732482D01*
X133688498Y-96852180D01*
X133747463Y-96962494D01*
X133826815Y-97059185D01*
X133923506Y-97138537D01*
X134033820Y-97197502D01*
X134106380Y-97219513D01*
X133974525Y-97351368D01*
X133812010Y-97594589D01*
X133700068Y-97864842D01*
X133643000Y-98151740D01*
X133643000Y-98444260D01*
X133700068Y-98731158D01*
X133812010Y-99001411D01*
X133974525Y-99244632D01*
X134181368Y-99451475D01*
X134243000Y-99492656D01*
X134243001Y-103014519D01*
X134238719Y-103057998D01*
X134255805Y-103231488D01*
X134306412Y-103398311D01*
X134388590Y-103552057D01*
X134471468Y-103653044D01*
X134471471Y-103653047D01*
X134499184Y-103686815D01*
X134532951Y-103714528D01*
X135491598Y-104673174D01*
X134983399Y-104774261D01*
X134503859Y-104972893D01*
X134072285Y-105261262D01*
X133705262Y-105628285D01*
X133416893Y-106059859D01*
X133218261Y-106539399D01*
X133117000Y-107048475D01*
X133117000Y-107567525D01*
X133218261Y-108076601D01*
X133416893Y-108556141D01*
X133705262Y-108987715D01*
X134072285Y-109354738D01*
X134503859Y-109643107D01*
X134983399Y-109841739D01*
X135492475Y-109943000D01*
X136011525Y-109943000D01*
X136520601Y-109841739D01*
X137000141Y-109643107D01*
X137431715Y-109354738D01*
X137798738Y-108987715D01*
X138016999Y-108661064D01*
X138017000Y-113273000D01*
X137850816Y-113273000D01*
X137554257Y-113331989D01*
X137274905Y-113447701D01*
X137023495Y-113615688D01*
X136809688Y-113829495D01*
X136641701Y-114080905D01*
X136525989Y-114360257D01*
X136467000Y-114656816D01*
X136467000Y-114959184D01*
X136525989Y-115255743D01*
X136641701Y-115535095D01*
X136809688Y-115786505D01*
X137023495Y-116000312D01*
X137274905Y-116168299D01*
X137303154Y-116180000D01*
X132744414Y-116180000D01*
X132886227Y-94908000D01*
X133639928Y-94908000D01*
X133643000Y-95472250D01*
X133801750Y-95631000D01*
X135001000Y-95631000D01*
X135001000Y-94431750D01*
X135255000Y-94431750D01*
X135255000Y-95631000D01*
X136454250Y-95631000D01*
X136613000Y-95472250D01*
X136616072Y-94908000D01*
X136603812Y-94783518D01*
X136567502Y-94663820D01*
X136508537Y-94553506D01*
X136429185Y-94456815D01*
X136332494Y-94377463D01*
X136222180Y-94318498D01*
X136102482Y-94282188D01*
X135978000Y-94269928D01*
X135413750Y-94273000D01*
X135255000Y-94431750D01*
X135001000Y-94431750D01*
X134842250Y-94273000D01*
X134278000Y-94269928D01*
X134153518Y-94282188D01*
X134033820Y-94318498D01*
X133923506Y-94377463D01*
X133826815Y-94456815D01*
X133747463Y-94553506D01*
X133688498Y-94663820D01*
X133652188Y-94783518D01*
X133639928Y-94908000D01*
X132886227Y-94908000D01*
X132910354Y-91288891D01*
X133686519Y-91288891D01*
X133783843Y-91563252D01*
X133932822Y-91813355D01*
X134127731Y-92029588D01*
X134361080Y-92203641D01*
X134623901Y-92328825D01*
X134771110Y-92373476D01*
X135001000Y-92252155D01*
X135001000Y-91059000D01*
X133807186Y-91059000D01*
X133686519Y-91288891D01*
X132910354Y-91288891D01*
X132915112Y-90575109D01*
X133686519Y-90575109D01*
X133807186Y-90805000D01*
X135001000Y-90805000D01*
X135001000Y-89611845D01*
X135255000Y-89611845D01*
X135255000Y-90805000D01*
X135275000Y-90805000D01*
X135275000Y-91059000D01*
X135255000Y-91059000D01*
X135255000Y-92252155D01*
X135484890Y-92373476D01*
X135632099Y-92328825D01*
X135894920Y-92203641D01*
X136128269Y-92029588D01*
X136204034Y-91945534D01*
X136228498Y-92026180D01*
X136287463Y-92136494D01*
X136366815Y-92233185D01*
X136463506Y-92312537D01*
X136573820Y-92371502D01*
X136693518Y-92407812D01*
X136818000Y-92420072D01*
X138518000Y-92420072D01*
X138642482Y-92407812D01*
X138762180Y-92371502D01*
X138872494Y-92312537D01*
X138969185Y-92233185D01*
X139048537Y-92136494D01*
X139107502Y-92026180D01*
X139143812Y-91906482D01*
X139156072Y-91782000D01*
X139156072Y-90082000D01*
X139143812Y-89957518D01*
X139107502Y-89837820D01*
X139048537Y-89727506D01*
X138969185Y-89630815D01*
X138872494Y-89551463D01*
X138762180Y-89492498D01*
X138642482Y-89456188D01*
X138518000Y-89443928D01*
X136818000Y-89443928D01*
X136693518Y-89456188D01*
X136573820Y-89492498D01*
X136463506Y-89551463D01*
X136366815Y-89630815D01*
X136287463Y-89727506D01*
X136228498Y-89837820D01*
X136204034Y-89918466D01*
X136128269Y-89834412D01*
X135894920Y-89660359D01*
X135632099Y-89535175D01*
X135484890Y-89490524D01*
X135255000Y-89611845D01*
X135001000Y-89611845D01*
X134771110Y-89490524D01*
X134623901Y-89535175D01*
X134361080Y-89660359D01*
X134127731Y-89834412D01*
X133932822Y-90050645D01*
X133783843Y-90300748D01*
X133686519Y-90575109D01*
X132915112Y-90575109D01*
X132928915Y-88504665D01*
X140885000Y-88504665D01*
X140885000Y-88787335D01*
X140940147Y-89064574D01*
X141048320Y-89325727D01*
X141205363Y-89560759D01*
X141405241Y-89760637D01*
X141640273Y-89917680D01*
X141863001Y-90009937D01*
X141863000Y-91829479D01*
X141833241Y-91849363D01*
X141633363Y-92049241D01*
X141476320Y-92284273D01*
X141368147Y-92545426D01*
X141313000Y-92822665D01*
X141313000Y-93105335D01*
X141368147Y-93382574D01*
X141476320Y-93643727D01*
X141633363Y-93878759D01*
X141833241Y-94078637D01*
X142068273Y-94235680D01*
X142329426Y-94343853D01*
X142606665Y-94399000D01*
X142889335Y-94399000D01*
X143166574Y-94343853D01*
X143427727Y-94235680D01*
X143662759Y-94078637D01*
X143862637Y-93878759D01*
X144019680Y-93643727D01*
X144127853Y-93382574D01*
X144183000Y-93105335D01*
X144183000Y-92822665D01*
X144127853Y-92545426D01*
X144019680Y-92284273D01*
X143862637Y-92049241D01*
X143662759Y-91849363D01*
X143633000Y-91829479D01*
X143633000Y-89225972D01*
X143699853Y-89064574D01*
X143755000Y-88787335D01*
X143755000Y-88504665D01*
X143699853Y-88227426D01*
X143591680Y-87966273D01*
X143434637Y-87731241D01*
X143234759Y-87531363D01*
X142999727Y-87374320D01*
X142738574Y-87266147D01*
X142461335Y-87211000D01*
X142178665Y-87211000D01*
X141901426Y-87266147D01*
X141640273Y-87374320D01*
X141405241Y-87531363D01*
X141205363Y-87731241D01*
X141048320Y-87966273D01*
X140940147Y-88227426D01*
X140885000Y-88504665D01*
X132928915Y-88504665D01*
X132955221Y-84558702D01*
X141680903Y-84558702D01*
X141752486Y-84802671D01*
X142007996Y-84923571D01*
X142282184Y-84992300D01*
X142564512Y-85006217D01*
X142844130Y-84964787D01*
X143110292Y-84869603D01*
X143235514Y-84802671D01*
X143307097Y-84558702D01*
X142494000Y-83745605D01*
X141680903Y-84558702D01*
X132955221Y-84558702D01*
X132961369Y-83636512D01*
X141053783Y-83636512D01*
X141095213Y-83916130D01*
X141190397Y-84182292D01*
X141257329Y-84307514D01*
X141501298Y-84379097D01*
X142314395Y-83566000D01*
X142673605Y-83566000D01*
X143486702Y-84379097D01*
X143730671Y-84307514D01*
X143851571Y-84052004D01*
X143920300Y-83777816D01*
X143934217Y-83495488D01*
X143892787Y-83215870D01*
X143797603Y-82949708D01*
X143730671Y-82824486D01*
X143486702Y-82752903D01*
X142673605Y-83566000D01*
X142314395Y-83566000D01*
X141501298Y-82752903D01*
X141257329Y-82824486D01*
X141136429Y-83079996D01*
X141067700Y-83354184D01*
X141053783Y-83636512D01*
X132961369Y-83636512D01*
X132968457Y-82573298D01*
X141680903Y-82573298D01*
X142494000Y-83386395D01*
X143307097Y-82573298D01*
X143235514Y-82329329D01*
X142980004Y-82208429D01*
X142705816Y-82139700D01*
X142423488Y-82125783D01*
X142143870Y-82167213D01*
X141877708Y-82262397D01*
X141752486Y-82329329D01*
X141680903Y-82573298D01*
X132968457Y-82573298D01*
X132993909Y-78755752D01*
X133070912Y-76879385D01*
X133299467Y-75031287D01*
X133678686Y-73208121D01*
X134206012Y-71422175D01*
X134877912Y-69685421D01*
X135689854Y-68009575D01*
X136636384Y-66405888D01*
X137711129Y-64885160D01*
X138906868Y-63457608D01*
X140215564Y-62132823D01*
X141628406Y-60919731D01*
X143135893Y-59826486D01*
X144727895Y-58860436D01*
X146393694Y-58028084D01*
X148122094Y-57335023D01*
X149901479Y-56785912D01*
X151719878Y-56384447D01*
X153565049Y-56133331D01*
X155424586Y-56034250D01*
X157285984Y-56087869D01*
M02*
