G04 #@! TF.GenerationSoftware,KiCad,Pcbnew,5.1.5-52549c5~84~ubuntu18.04.1*
G04 #@! TF.CreationDate,2020-03-24T23:28:12-05:00*
G04 #@! TF.ProjectId,pass-01,70617373-2d30-4312-9e6b-696361645f70,rev?*
G04 #@! TF.SameCoordinates,Original*
G04 #@! TF.FileFunction,Legend,Top*
G04 #@! TF.FilePolarity,Positive*
%FSLAX46Y46*%
G04 Gerber Fmt 4.6, Leading zero omitted, Abs format (unit mm)*
G04 Created by KiCad (PCBNEW 5.1.5-52549c5~84~ubuntu18.04.1) date 2020-03-24 23:28:12*
%MOMM*%
%LPD*%
G04 APERTURE LIST*
%ADD10C,0.150000*%
%ADD11C,0.120000*%
G04 APERTURE END LIST*
D10*
X142797333Y-67299761D02*
X142797333Y-65299761D01*
X142797333Y-66252142D02*
X143940190Y-66252142D01*
X143940190Y-67299761D02*
X143940190Y-65299761D01*
X145749714Y-67299761D02*
X145749714Y-66252142D01*
X145654476Y-66061666D01*
X145464000Y-65966428D01*
X145083047Y-65966428D01*
X144892571Y-66061666D01*
X145749714Y-67204523D02*
X145559238Y-67299761D01*
X145083047Y-67299761D01*
X144892571Y-67204523D01*
X144797333Y-67014047D01*
X144797333Y-66823571D01*
X144892571Y-66633095D01*
X145083047Y-66537857D01*
X145559238Y-66537857D01*
X145749714Y-66442619D01*
X147559238Y-67204523D02*
X147368761Y-67299761D01*
X146987809Y-67299761D01*
X146797333Y-67204523D01*
X146702095Y-67109285D01*
X146606857Y-66918809D01*
X146606857Y-66347380D01*
X146702095Y-66156904D01*
X146797333Y-66061666D01*
X146987809Y-65966428D01*
X147368761Y-65966428D01*
X147559238Y-66061666D01*
X148416380Y-67299761D02*
X148416380Y-65299761D01*
X148606857Y-66537857D02*
X149178285Y-67299761D01*
X149178285Y-65966428D02*
X148416380Y-66728333D01*
X149940190Y-67204523D02*
X150130666Y-67299761D01*
X150511619Y-67299761D01*
X150702095Y-67204523D01*
X150797333Y-67014047D01*
X150797333Y-66918809D01*
X150702095Y-66728333D01*
X150511619Y-66633095D01*
X150225904Y-66633095D01*
X150035428Y-66537857D01*
X149940190Y-66347380D01*
X149940190Y-66252142D01*
X150035428Y-66061666D01*
X150225904Y-65966428D01*
X150511619Y-65966428D01*
X150702095Y-66061666D01*
X151368761Y-65966428D02*
X152130666Y-65966428D01*
X151654476Y-65299761D02*
X151654476Y-67014047D01*
X151749714Y-67204523D01*
X151940190Y-67299761D01*
X152130666Y-67299761D01*
X153559238Y-67204523D02*
X153368761Y-67299761D01*
X152987809Y-67299761D01*
X152797333Y-67204523D01*
X152702095Y-67014047D01*
X152702095Y-66252142D01*
X152797333Y-66061666D01*
X152987809Y-65966428D01*
X153368761Y-65966428D01*
X153559238Y-66061666D01*
X153654476Y-66252142D01*
X153654476Y-66442619D01*
X152702095Y-66633095D01*
X154511619Y-67299761D02*
X154511619Y-65966428D01*
X154511619Y-66347380D02*
X154606857Y-66156904D01*
X154702095Y-66061666D01*
X154892571Y-65966428D01*
X155083047Y-65966428D01*
X157273523Y-67299761D02*
X157273523Y-65299761D01*
X157273523Y-66252142D02*
X158416380Y-66252142D01*
X158416380Y-67299761D02*
X158416380Y-65299761D01*
X160225904Y-67299761D02*
X160225904Y-66252142D01*
X160130666Y-66061666D01*
X159940190Y-65966428D01*
X159559238Y-65966428D01*
X159368761Y-66061666D01*
X160225904Y-67204523D02*
X160035428Y-67299761D01*
X159559238Y-67299761D01*
X159368761Y-67204523D01*
X159273523Y-67014047D01*
X159273523Y-66823571D01*
X159368761Y-66633095D01*
X159559238Y-66537857D01*
X160035428Y-66537857D01*
X160225904Y-66442619D01*
X161178285Y-67299761D02*
X161178285Y-65966428D01*
X161178285Y-66347380D02*
X161273523Y-66156904D01*
X161368761Y-66061666D01*
X161559238Y-65966428D01*
X161749714Y-65966428D01*
X163273523Y-67299761D02*
X163273523Y-65299761D01*
X163273523Y-67204523D02*
X163083047Y-67299761D01*
X162702095Y-67299761D01*
X162511619Y-67204523D01*
X162416380Y-67109285D01*
X162321142Y-66918809D01*
X162321142Y-66347380D01*
X162416380Y-66156904D01*
X162511619Y-66061666D01*
X162702095Y-65966428D01*
X163083047Y-65966428D01*
X163273523Y-66061666D01*
X164035428Y-65966428D02*
X164416380Y-67299761D01*
X164797333Y-66347380D01*
X165178285Y-67299761D01*
X165559238Y-65966428D01*
X167178285Y-67299761D02*
X167178285Y-66252142D01*
X167083047Y-66061666D01*
X166892571Y-65966428D01*
X166511619Y-65966428D01*
X166321142Y-66061666D01*
X167178285Y-67204523D02*
X166987809Y-67299761D01*
X166511619Y-67299761D01*
X166321142Y-67204523D01*
X166225904Y-67014047D01*
X166225904Y-66823571D01*
X166321142Y-66633095D01*
X166511619Y-66537857D01*
X166987809Y-66537857D01*
X167178285Y-66442619D01*
X168130666Y-67299761D02*
X168130666Y-65966428D01*
X168130666Y-66347380D02*
X168225904Y-66156904D01*
X168321142Y-66061666D01*
X168511619Y-65966428D01*
X168702095Y-65966428D01*
X170130666Y-67204523D02*
X169940190Y-67299761D01*
X169559238Y-67299761D01*
X169368761Y-67204523D01*
X169273523Y-67014047D01*
X169273523Y-66252142D01*
X169368761Y-66061666D01*
X169559238Y-65966428D01*
X169940190Y-65966428D01*
X170130666Y-66061666D01*
X170225904Y-66252142D01*
X170225904Y-66442619D01*
X169273523Y-66633095D01*
X150892571Y-70449761D02*
X150892571Y-68449761D01*
X150892571Y-69402142D02*
X152035428Y-69402142D01*
X152035428Y-70449761D02*
X152035428Y-68449761D01*
X153273523Y-70449761D02*
X153083047Y-70354523D01*
X152987809Y-70259285D01*
X152892571Y-70068809D01*
X152892571Y-69497380D01*
X152987809Y-69306904D01*
X153083047Y-69211666D01*
X153273523Y-69116428D01*
X153559238Y-69116428D01*
X153749714Y-69211666D01*
X153844952Y-69306904D01*
X153940190Y-69497380D01*
X153940190Y-70068809D01*
X153844952Y-70259285D01*
X153749714Y-70354523D01*
X153559238Y-70449761D01*
X153273523Y-70449761D01*
X155654476Y-69116428D02*
X155654476Y-70449761D01*
X154797333Y-69116428D02*
X154797333Y-70164047D01*
X154892571Y-70354523D01*
X155083047Y-70449761D01*
X155368761Y-70449761D01*
X155559238Y-70354523D01*
X155654476Y-70259285D01*
X156511619Y-70354523D02*
X156702095Y-70449761D01*
X157083047Y-70449761D01*
X157273523Y-70354523D01*
X157368761Y-70164047D01*
X157368761Y-70068809D01*
X157273523Y-69878333D01*
X157083047Y-69783095D01*
X156797333Y-69783095D01*
X156606857Y-69687857D01*
X156511619Y-69497380D01*
X156511619Y-69402142D01*
X156606857Y-69211666D01*
X156797333Y-69116428D01*
X157083047Y-69116428D01*
X157273523Y-69211666D01*
X157940190Y-69116428D02*
X158702095Y-69116428D01*
X158225904Y-68449761D02*
X158225904Y-70164047D01*
X158321142Y-70354523D01*
X158511619Y-70449761D01*
X158702095Y-70449761D01*
X159654476Y-70449761D02*
X159464000Y-70354523D01*
X159368761Y-70259285D01*
X159273523Y-70068809D01*
X159273523Y-69497380D01*
X159368761Y-69306904D01*
X159464000Y-69211666D01*
X159654476Y-69116428D01*
X159940190Y-69116428D01*
X160130666Y-69211666D01*
X160225904Y-69306904D01*
X160321142Y-69497380D01*
X160321142Y-70068809D01*
X160225904Y-70259285D01*
X160130666Y-70354523D01*
X159940190Y-70449761D01*
X159654476Y-70449761D01*
X161178285Y-69116428D02*
X161178285Y-70449761D01*
X161178285Y-69306904D02*
X161273523Y-69211666D01*
X161464000Y-69116428D01*
X161749714Y-69116428D01*
X161940190Y-69211666D01*
X162035428Y-69402142D01*
X162035428Y-70449761D01*
X144844952Y-73599761D02*
X144844952Y-72266428D01*
X144844952Y-71599761D02*
X144749714Y-71695000D01*
X144844952Y-71790238D01*
X144940190Y-71695000D01*
X144844952Y-71599761D01*
X144844952Y-71790238D01*
X145797333Y-72266428D02*
X145797333Y-73599761D01*
X145797333Y-72456904D02*
X145892571Y-72361666D01*
X146083047Y-72266428D01*
X146368761Y-72266428D01*
X146559238Y-72361666D01*
X146654476Y-72552142D01*
X146654476Y-73599761D01*
X150273523Y-73409285D02*
X150178285Y-73504523D01*
X149892571Y-73599761D01*
X149702095Y-73599761D01*
X149416380Y-73504523D01*
X149225904Y-73314047D01*
X149130666Y-73123571D01*
X149035428Y-72742619D01*
X149035428Y-72456904D01*
X149130666Y-72075952D01*
X149225904Y-71885476D01*
X149416380Y-71695000D01*
X149702095Y-71599761D01*
X149892571Y-71599761D01*
X150178285Y-71695000D01*
X150273523Y-71790238D01*
X151511619Y-72647380D02*
X151511619Y-73599761D01*
X150844952Y-71599761D02*
X151511619Y-72647380D01*
X152178285Y-71599761D01*
X153511619Y-72552142D02*
X153797333Y-72647380D01*
X153892571Y-72742619D01*
X153987809Y-72933095D01*
X153987809Y-73218809D01*
X153892571Y-73409285D01*
X153797333Y-73504523D01*
X153606857Y-73599761D01*
X152844952Y-73599761D01*
X152844952Y-71599761D01*
X153511619Y-71599761D01*
X153702095Y-71695000D01*
X153797333Y-71790238D01*
X153892571Y-71980714D01*
X153892571Y-72171190D01*
X153797333Y-72361666D01*
X153702095Y-72456904D01*
X153511619Y-72552142D01*
X152844952Y-72552142D01*
X154844952Y-72552142D02*
X155511619Y-72552142D01*
X155797333Y-73599761D02*
X154844952Y-73599761D01*
X154844952Y-71599761D01*
X155797333Y-71599761D01*
X157797333Y-73599761D02*
X157130666Y-72647380D01*
X156654476Y-73599761D02*
X156654476Y-71599761D01*
X157416380Y-71599761D01*
X157606857Y-71695000D01*
X157702095Y-71790238D01*
X157797333Y-71980714D01*
X157797333Y-72266428D01*
X157702095Y-72456904D01*
X157606857Y-72552142D01*
X157416380Y-72647380D01*
X156654476Y-72647380D01*
X158559238Y-73504523D02*
X158844952Y-73599761D01*
X159321142Y-73599761D01*
X159511619Y-73504523D01*
X159606857Y-73409285D01*
X159702095Y-73218809D01*
X159702095Y-73028333D01*
X159606857Y-72837857D01*
X159511619Y-72742619D01*
X159321142Y-72647380D01*
X158940190Y-72552142D01*
X158749714Y-72456904D01*
X158654476Y-72361666D01*
X158559238Y-72171190D01*
X158559238Y-71980714D01*
X158654476Y-71790238D01*
X158749714Y-71695000D01*
X158940190Y-71599761D01*
X159416380Y-71599761D01*
X159702095Y-71695000D01*
X160559238Y-73599761D02*
X160559238Y-71599761D01*
X161321142Y-71599761D01*
X161511619Y-71695000D01*
X161606857Y-71790238D01*
X161702095Y-71980714D01*
X161702095Y-72266428D01*
X161606857Y-72456904D01*
X161511619Y-72552142D01*
X161321142Y-72647380D01*
X160559238Y-72647380D01*
X162464000Y-73028333D02*
X163416380Y-73028333D01*
X162273523Y-73599761D02*
X162940190Y-71599761D01*
X163606857Y-73599761D01*
X165416380Y-73409285D02*
X165321142Y-73504523D01*
X165035428Y-73599761D01*
X164844952Y-73599761D01*
X164559238Y-73504523D01*
X164368761Y-73314047D01*
X164273523Y-73123571D01*
X164178285Y-72742619D01*
X164178285Y-72456904D01*
X164273523Y-72075952D01*
X164368761Y-71885476D01*
X164559238Y-71695000D01*
X164844952Y-71599761D01*
X165035428Y-71599761D01*
X165321142Y-71695000D01*
X165416380Y-71790238D01*
X166273523Y-72552142D02*
X166940190Y-72552142D01*
X167225904Y-73599761D02*
X166273523Y-73599761D01*
X166273523Y-71599761D01*
X167225904Y-71599761D01*
X168083047Y-73409285D02*
X168178285Y-73504523D01*
X168083047Y-73599761D01*
X167987809Y-73504523D01*
X168083047Y-73409285D01*
X168083047Y-73599761D01*
X168083047Y-72837857D02*
X167987809Y-71695000D01*
X168083047Y-71599761D01*
X168178285Y-71695000D01*
X168083047Y-72837857D01*
X168083047Y-71599761D01*
X142940190Y-76749761D02*
X142940190Y-74749761D01*
X143606857Y-76178333D01*
X144273523Y-74749761D01*
X144273523Y-76749761D01*
X146083047Y-76749761D02*
X146083047Y-75702142D01*
X145987809Y-75511666D01*
X145797333Y-75416428D01*
X145416380Y-75416428D01*
X145225904Y-75511666D01*
X146083047Y-76654523D02*
X145892571Y-76749761D01*
X145416380Y-76749761D01*
X145225904Y-76654523D01*
X145130666Y-76464047D01*
X145130666Y-76273571D01*
X145225904Y-76083095D01*
X145416380Y-75987857D01*
X145892571Y-75987857D01*
X146083047Y-75892619D01*
X147035428Y-76749761D02*
X147035428Y-75416428D01*
X147035428Y-75797380D02*
X147130666Y-75606904D01*
X147225904Y-75511666D01*
X147416380Y-75416428D01*
X147606857Y-75416428D01*
X149130666Y-76654523D02*
X148940190Y-76749761D01*
X148559238Y-76749761D01*
X148368761Y-76654523D01*
X148273523Y-76559285D01*
X148178285Y-76368809D01*
X148178285Y-75797380D01*
X148273523Y-75606904D01*
X148368761Y-75511666D01*
X148559238Y-75416428D01*
X148940190Y-75416428D01*
X149130666Y-75511666D01*
X149987809Y-76749761D02*
X149987809Y-74749761D01*
X150844952Y-76749761D02*
X150844952Y-75702142D01*
X150749714Y-75511666D01*
X150559238Y-75416428D01*
X150273523Y-75416428D01*
X150083047Y-75511666D01*
X149987809Y-75606904D01*
X151892571Y-76654523D02*
X151892571Y-76749761D01*
X151797333Y-76940238D01*
X151702095Y-77035476D01*
X154083047Y-74749761D02*
X155321142Y-74749761D01*
X154654476Y-75511666D01*
X154940190Y-75511666D01*
X155130666Y-75606904D01*
X155225904Y-75702142D01*
X155321142Y-75892619D01*
X155321142Y-76368809D01*
X155225904Y-76559285D01*
X155130666Y-76654523D01*
X154940190Y-76749761D01*
X154368761Y-76749761D01*
X154178285Y-76654523D01*
X154083047Y-76559285D01*
X157225904Y-76749761D02*
X156083047Y-76749761D01*
X156654476Y-76749761D02*
X156654476Y-74749761D01*
X156464000Y-75035476D01*
X156273523Y-75225952D01*
X156083047Y-75321190D01*
X157987809Y-76654523D02*
X158178285Y-76749761D01*
X158559238Y-76749761D01*
X158749714Y-76654523D01*
X158844952Y-76464047D01*
X158844952Y-76368809D01*
X158749714Y-76178333D01*
X158559238Y-76083095D01*
X158273523Y-76083095D01*
X158083047Y-75987857D01*
X157987809Y-75797380D01*
X157987809Y-75702142D01*
X158083047Y-75511666D01*
X158273523Y-75416428D01*
X158559238Y-75416428D01*
X158749714Y-75511666D01*
X159416380Y-75416428D02*
X160178285Y-75416428D01*
X159702095Y-74749761D02*
X159702095Y-76464047D01*
X159797333Y-76654523D01*
X159987809Y-76749761D01*
X160178285Y-76749761D01*
X160844952Y-76559285D02*
X160940190Y-76654523D01*
X160844952Y-76749761D01*
X160749714Y-76654523D01*
X160844952Y-76559285D01*
X160844952Y-76749761D01*
X163225904Y-74940238D02*
X163321142Y-74845000D01*
X163511619Y-74749761D01*
X163987809Y-74749761D01*
X164178285Y-74845000D01*
X164273523Y-74940238D01*
X164368761Y-75130714D01*
X164368761Y-75321190D01*
X164273523Y-75606904D01*
X163130666Y-76749761D01*
X164368761Y-76749761D01*
X165606857Y-74749761D02*
X165797333Y-74749761D01*
X165987809Y-74845000D01*
X166083047Y-74940238D01*
X166178285Y-75130714D01*
X166273523Y-75511666D01*
X166273523Y-75987857D01*
X166178285Y-76368809D01*
X166083047Y-76559285D01*
X165987809Y-76654523D01*
X165797333Y-76749761D01*
X165606857Y-76749761D01*
X165416380Y-76654523D01*
X165321142Y-76559285D01*
X165225904Y-76368809D01*
X165130666Y-75987857D01*
X165130666Y-75511666D01*
X165225904Y-75130714D01*
X165321142Y-74940238D01*
X165416380Y-74845000D01*
X165606857Y-74749761D01*
X167035428Y-74940238D02*
X167130666Y-74845000D01*
X167321142Y-74749761D01*
X167797333Y-74749761D01*
X167987809Y-74845000D01*
X168083047Y-74940238D01*
X168178285Y-75130714D01*
X168178285Y-75321190D01*
X168083047Y-75606904D01*
X166940190Y-76749761D01*
X168178285Y-76749761D01*
X169416380Y-74749761D02*
X169606857Y-74749761D01*
X169797333Y-74845000D01*
X169892571Y-74940238D01*
X169987809Y-75130714D01*
X170083047Y-75511666D01*
X170083047Y-75987857D01*
X169987809Y-76368809D01*
X169892571Y-76559285D01*
X169797333Y-76654523D01*
X169606857Y-76749761D01*
X169416380Y-76749761D01*
X169225904Y-76654523D01*
X169130666Y-76559285D01*
X169035428Y-76368809D01*
X168940190Y-75987857D01*
X168940190Y-75511666D01*
X169035428Y-75130714D01*
X169130666Y-74940238D01*
X169225904Y-74845000D01*
X169416380Y-74749761D01*
D11*
X150816000Y-84268000D02*
X150816000Y-86928000D01*
X153416000Y-84268000D02*
X150816000Y-84268000D01*
X153416000Y-86928000D02*
X150816000Y-86928000D01*
X153416000Y-84268000D02*
X153416000Y-86928000D01*
X154686000Y-84268000D02*
X156016000Y-84268000D01*
X156016000Y-84268000D02*
X156016000Y-85598000D01*
X148114000Y-84491000D02*
X148114000Y-84936000D01*
X148114000Y-82196000D02*
X148114000Y-82641000D01*
X141874000Y-84491000D02*
X141874000Y-84936000D01*
X141874000Y-82196000D02*
X141874000Y-82641000D01*
X141874000Y-84936000D02*
X148114000Y-84936000D01*
X141874000Y-82196000D02*
X148114000Y-82196000D01*
X147940000Y-90016000D02*
X141700000Y-90016000D01*
X147940000Y-87276000D02*
X141700000Y-87276000D01*
X147940000Y-90016000D02*
X147940000Y-89571000D01*
X147940000Y-87721000D02*
X147940000Y-87276000D01*
X141700000Y-90016000D02*
X141700000Y-89571000D01*
X141700000Y-87721000D02*
X141700000Y-87276000D01*
X163210000Y-96674000D02*
X169450000Y-96674000D01*
X163210000Y-99414000D02*
X169450000Y-99414000D01*
X163210000Y-96674000D02*
X163210000Y-97119000D01*
X163210000Y-98969000D02*
X163210000Y-99414000D01*
X169450000Y-96674000D02*
X169450000Y-97119000D01*
X169450000Y-98969000D02*
X169450000Y-99414000D01*
X133798000Y-99628000D02*
X136458000Y-99628000D01*
X133798000Y-97028000D02*
X133798000Y-99628000D01*
X136458000Y-97028000D02*
X136458000Y-99628000D01*
X133798000Y-97028000D02*
X136458000Y-97028000D01*
X133798000Y-95758000D02*
X133798000Y-94428000D01*
X133798000Y-94428000D02*
X135128000Y-94428000D01*
X138998000Y-89602000D02*
X138998000Y-90932000D01*
X137668000Y-89602000D02*
X138998000Y-89602000D01*
X136398000Y-89602000D02*
X136398000Y-92262000D01*
X136398000Y-92262000D02*
X133798000Y-92262000D01*
X136398000Y-89602000D02*
X133798000Y-89602000D01*
X133798000Y-89602000D02*
X133798000Y-92262000D01*
X156956000Y-89094000D02*
G75*
G02X154956000Y-89094000I-1000000J0D01*
G01*
X154956000Y-89094000D02*
X153306000Y-89094000D01*
X153306000Y-89094000D02*
X153306000Y-99374000D01*
X153306000Y-99374000D02*
X158606000Y-99374000D01*
X158606000Y-99374000D02*
X158606000Y-89094000D01*
X158606000Y-89094000D02*
X156956000Y-89094000D01*
X150816000Y-89034000D02*
X150816000Y-99434000D01*
X150816000Y-99434000D02*
X161096000Y-99434000D01*
X161096000Y-99434000D02*
X161096000Y-89034000D01*
X161096000Y-89034000D02*
X150816000Y-89034000D01*
X164812000Y-113928000D02*
X164812000Y-109262000D01*
X164812000Y-105353000D02*
X164812000Y-102338000D01*
X177152000Y-113928000D02*
X177152000Y-109262000D01*
X177152000Y-105353000D02*
X177152000Y-102338000D01*
X164812000Y-113928000D02*
X167611000Y-113928000D01*
X169353000Y-113928000D02*
X170112000Y-113928000D01*
X171853000Y-113928000D02*
X172612000Y-113928000D01*
X174352000Y-113928000D02*
X177152000Y-113928000D01*
X164812000Y-102338000D02*
X177152000Y-102338000D01*
X177514000Y-88920000D02*
G75*
G03X177514000Y-88920000I-3270000J0D01*
G01*
X171014000Y-88920000D02*
X177474000Y-88920000D01*
X171014000Y-88880000D02*
X177474000Y-88880000D01*
X171014000Y-88840000D02*
X177474000Y-88840000D01*
X171016000Y-88800000D02*
X177472000Y-88800000D01*
X171017000Y-88760000D02*
X177471000Y-88760000D01*
X171020000Y-88720000D02*
X177468000Y-88720000D01*
X171022000Y-88680000D02*
X173204000Y-88680000D01*
X175284000Y-88680000D02*
X177466000Y-88680000D01*
X171026000Y-88640000D02*
X173204000Y-88640000D01*
X175284000Y-88640000D02*
X177462000Y-88640000D01*
X171029000Y-88600000D02*
X173204000Y-88600000D01*
X175284000Y-88600000D02*
X177459000Y-88600000D01*
X171033000Y-88560000D02*
X173204000Y-88560000D01*
X175284000Y-88560000D02*
X177455000Y-88560000D01*
X171038000Y-88520000D02*
X173204000Y-88520000D01*
X175284000Y-88520000D02*
X177450000Y-88520000D01*
X171043000Y-88480000D02*
X173204000Y-88480000D01*
X175284000Y-88480000D02*
X177445000Y-88480000D01*
X171049000Y-88440000D02*
X173204000Y-88440000D01*
X175284000Y-88440000D02*
X177439000Y-88440000D01*
X171055000Y-88400000D02*
X173204000Y-88400000D01*
X175284000Y-88400000D02*
X177433000Y-88400000D01*
X171062000Y-88360000D02*
X173204000Y-88360000D01*
X175284000Y-88360000D02*
X177426000Y-88360000D01*
X171069000Y-88320000D02*
X173204000Y-88320000D01*
X175284000Y-88320000D02*
X177419000Y-88320000D01*
X171077000Y-88280000D02*
X173204000Y-88280000D01*
X175284000Y-88280000D02*
X177411000Y-88280000D01*
X171085000Y-88240000D02*
X173204000Y-88240000D01*
X175284000Y-88240000D02*
X177403000Y-88240000D01*
X171094000Y-88199000D02*
X173204000Y-88199000D01*
X175284000Y-88199000D02*
X177394000Y-88199000D01*
X171103000Y-88159000D02*
X173204000Y-88159000D01*
X175284000Y-88159000D02*
X177385000Y-88159000D01*
X171113000Y-88119000D02*
X173204000Y-88119000D01*
X175284000Y-88119000D02*
X177375000Y-88119000D01*
X171123000Y-88079000D02*
X173204000Y-88079000D01*
X175284000Y-88079000D02*
X177365000Y-88079000D01*
X171134000Y-88039000D02*
X173204000Y-88039000D01*
X175284000Y-88039000D02*
X177354000Y-88039000D01*
X171146000Y-87999000D02*
X173204000Y-87999000D01*
X175284000Y-87999000D02*
X177342000Y-87999000D01*
X171158000Y-87959000D02*
X173204000Y-87959000D01*
X175284000Y-87959000D02*
X177330000Y-87959000D01*
X171170000Y-87919000D02*
X173204000Y-87919000D01*
X175284000Y-87919000D02*
X177318000Y-87919000D01*
X171183000Y-87879000D02*
X173204000Y-87879000D01*
X175284000Y-87879000D02*
X177305000Y-87879000D01*
X171197000Y-87839000D02*
X173204000Y-87839000D01*
X175284000Y-87839000D02*
X177291000Y-87839000D01*
X171211000Y-87799000D02*
X173204000Y-87799000D01*
X175284000Y-87799000D02*
X177277000Y-87799000D01*
X171226000Y-87759000D02*
X173204000Y-87759000D01*
X175284000Y-87759000D02*
X177262000Y-87759000D01*
X171242000Y-87719000D02*
X173204000Y-87719000D01*
X175284000Y-87719000D02*
X177246000Y-87719000D01*
X171258000Y-87679000D02*
X173204000Y-87679000D01*
X175284000Y-87679000D02*
X177230000Y-87679000D01*
X171274000Y-87639000D02*
X173204000Y-87639000D01*
X175284000Y-87639000D02*
X177214000Y-87639000D01*
X171292000Y-87599000D02*
X173204000Y-87599000D01*
X175284000Y-87599000D02*
X177196000Y-87599000D01*
X171310000Y-87559000D02*
X173204000Y-87559000D01*
X175284000Y-87559000D02*
X177178000Y-87559000D01*
X171328000Y-87519000D02*
X173204000Y-87519000D01*
X175284000Y-87519000D02*
X177160000Y-87519000D01*
X171348000Y-87479000D02*
X173204000Y-87479000D01*
X175284000Y-87479000D02*
X177140000Y-87479000D01*
X171368000Y-87439000D02*
X173204000Y-87439000D01*
X175284000Y-87439000D02*
X177120000Y-87439000D01*
X171388000Y-87399000D02*
X173204000Y-87399000D01*
X175284000Y-87399000D02*
X177100000Y-87399000D01*
X171410000Y-87359000D02*
X173204000Y-87359000D01*
X175284000Y-87359000D02*
X177078000Y-87359000D01*
X171432000Y-87319000D02*
X173204000Y-87319000D01*
X175284000Y-87319000D02*
X177056000Y-87319000D01*
X171454000Y-87279000D02*
X173204000Y-87279000D01*
X175284000Y-87279000D02*
X177034000Y-87279000D01*
X171478000Y-87239000D02*
X173204000Y-87239000D01*
X175284000Y-87239000D02*
X177010000Y-87239000D01*
X171502000Y-87199000D02*
X173204000Y-87199000D01*
X175284000Y-87199000D02*
X176986000Y-87199000D01*
X171528000Y-87159000D02*
X173204000Y-87159000D01*
X175284000Y-87159000D02*
X176960000Y-87159000D01*
X171554000Y-87119000D02*
X173204000Y-87119000D01*
X175284000Y-87119000D02*
X176934000Y-87119000D01*
X171580000Y-87079000D02*
X173204000Y-87079000D01*
X175284000Y-87079000D02*
X176908000Y-87079000D01*
X171608000Y-87039000D02*
X173204000Y-87039000D01*
X175284000Y-87039000D02*
X176880000Y-87039000D01*
X171637000Y-86999000D02*
X173204000Y-86999000D01*
X175284000Y-86999000D02*
X176851000Y-86999000D01*
X171666000Y-86959000D02*
X173204000Y-86959000D01*
X175284000Y-86959000D02*
X176822000Y-86959000D01*
X171696000Y-86919000D02*
X173204000Y-86919000D01*
X175284000Y-86919000D02*
X176792000Y-86919000D01*
X171728000Y-86879000D02*
X173204000Y-86879000D01*
X175284000Y-86879000D02*
X176760000Y-86879000D01*
X171760000Y-86839000D02*
X173204000Y-86839000D01*
X175284000Y-86839000D02*
X176728000Y-86839000D01*
X171794000Y-86799000D02*
X173204000Y-86799000D01*
X175284000Y-86799000D02*
X176694000Y-86799000D01*
X171828000Y-86759000D02*
X173204000Y-86759000D01*
X175284000Y-86759000D02*
X176660000Y-86759000D01*
X171864000Y-86719000D02*
X173204000Y-86719000D01*
X175284000Y-86719000D02*
X176624000Y-86719000D01*
X171901000Y-86679000D02*
X173204000Y-86679000D01*
X175284000Y-86679000D02*
X176587000Y-86679000D01*
X171939000Y-86639000D02*
X173204000Y-86639000D01*
X175284000Y-86639000D02*
X176549000Y-86639000D01*
X171979000Y-86599000D02*
X176509000Y-86599000D01*
X172020000Y-86559000D02*
X176468000Y-86559000D01*
X172062000Y-86519000D02*
X176426000Y-86519000D01*
X172107000Y-86479000D02*
X176381000Y-86479000D01*
X172152000Y-86439000D02*
X176336000Y-86439000D01*
X172200000Y-86399000D02*
X176288000Y-86399000D01*
X172249000Y-86359000D02*
X176239000Y-86359000D01*
X172300000Y-86319000D02*
X176188000Y-86319000D01*
X172354000Y-86279000D02*
X176134000Y-86279000D01*
X172410000Y-86239000D02*
X176078000Y-86239000D01*
X172468000Y-86199000D02*
X176020000Y-86199000D01*
X172530000Y-86159000D02*
X175958000Y-86159000D01*
X172594000Y-86119000D02*
X175894000Y-86119000D01*
X172663000Y-86079000D02*
X175825000Y-86079000D01*
X172735000Y-86039000D02*
X175753000Y-86039000D01*
X172812000Y-85999000D02*
X175676000Y-85999000D01*
X172894000Y-85959000D02*
X175594000Y-85959000D01*
X172982000Y-85919000D02*
X175506000Y-85919000D01*
X173079000Y-85879000D02*
X175409000Y-85879000D01*
X173185000Y-85839000D02*
X175303000Y-85839000D01*
X173304000Y-85799000D02*
X175184000Y-85799000D01*
X173442000Y-85759000D02*
X175046000Y-85759000D01*
X173611000Y-85719000D02*
X174877000Y-85719000D01*
X173842000Y-85679000D02*
X174646000Y-85679000D01*
X172405000Y-92420241D02*
X172405000Y-91790241D01*
X172090000Y-92105241D02*
X172720000Y-92105241D01*
X177449241Y-98674000D02*
X177449241Y-98044000D01*
X177764241Y-98359000D02*
X177134241Y-98359000D01*
X171023000Y-96922000D02*
X171023000Y-96118000D01*
X171063000Y-97153000D02*
X171063000Y-95887000D01*
X171103000Y-97322000D02*
X171103000Y-95718000D01*
X171143000Y-97460000D02*
X171143000Y-95580000D01*
X171183000Y-97579000D02*
X171183000Y-95461000D01*
X171223000Y-97685000D02*
X171223000Y-95355000D01*
X171263000Y-97782000D02*
X171263000Y-95258000D01*
X171303000Y-97870000D02*
X171303000Y-95170000D01*
X171343000Y-97952000D02*
X171343000Y-95088000D01*
X171383000Y-98029000D02*
X171383000Y-95011000D01*
X171423000Y-98101000D02*
X171423000Y-94939000D01*
X171463000Y-98170000D02*
X171463000Y-94870000D01*
X171503000Y-98234000D02*
X171503000Y-94806000D01*
X171543000Y-98296000D02*
X171543000Y-94744000D01*
X171583000Y-98354000D02*
X171583000Y-94686000D01*
X171623000Y-98410000D02*
X171623000Y-94630000D01*
X171663000Y-98464000D02*
X171663000Y-94576000D01*
X171703000Y-98515000D02*
X171703000Y-94525000D01*
X171743000Y-98564000D02*
X171743000Y-94476000D01*
X171783000Y-98612000D02*
X171783000Y-94428000D01*
X171823000Y-98657000D02*
X171823000Y-94383000D01*
X171863000Y-98702000D02*
X171863000Y-94338000D01*
X171903000Y-98744000D02*
X171903000Y-94296000D01*
X171943000Y-98785000D02*
X171943000Y-94255000D01*
X171983000Y-95480000D02*
X171983000Y-94215000D01*
X171983000Y-98825000D02*
X171983000Y-97560000D01*
X172023000Y-95480000D02*
X172023000Y-94177000D01*
X172023000Y-98863000D02*
X172023000Y-97560000D01*
X172063000Y-95480000D02*
X172063000Y-94140000D01*
X172063000Y-98900000D02*
X172063000Y-97560000D01*
X172103000Y-95480000D02*
X172103000Y-94104000D01*
X172103000Y-98936000D02*
X172103000Y-97560000D01*
X172143000Y-95480000D02*
X172143000Y-94070000D01*
X172143000Y-98970000D02*
X172143000Y-97560000D01*
X172183000Y-95480000D02*
X172183000Y-94036000D01*
X172183000Y-99004000D02*
X172183000Y-97560000D01*
X172223000Y-95480000D02*
X172223000Y-94004000D01*
X172223000Y-99036000D02*
X172223000Y-97560000D01*
X172263000Y-95480000D02*
X172263000Y-93972000D01*
X172263000Y-99068000D02*
X172263000Y-97560000D01*
X172303000Y-95480000D02*
X172303000Y-93942000D01*
X172303000Y-99098000D02*
X172303000Y-97560000D01*
X172343000Y-95480000D02*
X172343000Y-93913000D01*
X172343000Y-99127000D02*
X172343000Y-97560000D01*
X172383000Y-95480000D02*
X172383000Y-93884000D01*
X172383000Y-99156000D02*
X172383000Y-97560000D01*
X172423000Y-95480000D02*
X172423000Y-93856000D01*
X172423000Y-99184000D02*
X172423000Y-97560000D01*
X172463000Y-95480000D02*
X172463000Y-93830000D01*
X172463000Y-99210000D02*
X172463000Y-97560000D01*
X172503000Y-95480000D02*
X172503000Y-93804000D01*
X172503000Y-99236000D02*
X172503000Y-97560000D01*
X172543000Y-95480000D02*
X172543000Y-93778000D01*
X172543000Y-99262000D02*
X172543000Y-97560000D01*
X172583000Y-95480000D02*
X172583000Y-93754000D01*
X172583000Y-99286000D02*
X172583000Y-97560000D01*
X172623000Y-95480000D02*
X172623000Y-93730000D01*
X172623000Y-99310000D02*
X172623000Y-97560000D01*
X172663000Y-95480000D02*
X172663000Y-93708000D01*
X172663000Y-99332000D02*
X172663000Y-97560000D01*
X172703000Y-95480000D02*
X172703000Y-93686000D01*
X172703000Y-99354000D02*
X172703000Y-97560000D01*
X172743000Y-95480000D02*
X172743000Y-93664000D01*
X172743000Y-99376000D02*
X172743000Y-97560000D01*
X172783000Y-95480000D02*
X172783000Y-93644000D01*
X172783000Y-99396000D02*
X172783000Y-97560000D01*
X172823000Y-95480000D02*
X172823000Y-93624000D01*
X172823000Y-99416000D02*
X172823000Y-97560000D01*
X172863000Y-95480000D02*
X172863000Y-93604000D01*
X172863000Y-99436000D02*
X172863000Y-97560000D01*
X172903000Y-95480000D02*
X172903000Y-93586000D01*
X172903000Y-99454000D02*
X172903000Y-97560000D01*
X172943000Y-95480000D02*
X172943000Y-93568000D01*
X172943000Y-99472000D02*
X172943000Y-97560000D01*
X172983000Y-95480000D02*
X172983000Y-93550000D01*
X172983000Y-99490000D02*
X172983000Y-97560000D01*
X173023000Y-95480000D02*
X173023000Y-93534000D01*
X173023000Y-99506000D02*
X173023000Y-97560000D01*
X173063000Y-95480000D02*
X173063000Y-93518000D01*
X173063000Y-99522000D02*
X173063000Y-97560000D01*
X173103000Y-95480000D02*
X173103000Y-93502000D01*
X173103000Y-99538000D02*
X173103000Y-97560000D01*
X173143000Y-95480000D02*
X173143000Y-93487000D01*
X173143000Y-99553000D02*
X173143000Y-97560000D01*
X173183000Y-95480000D02*
X173183000Y-93473000D01*
X173183000Y-99567000D02*
X173183000Y-97560000D01*
X173223000Y-95480000D02*
X173223000Y-93459000D01*
X173223000Y-99581000D02*
X173223000Y-97560000D01*
X173263000Y-95480000D02*
X173263000Y-93446000D01*
X173263000Y-99594000D02*
X173263000Y-97560000D01*
X173303000Y-95480000D02*
X173303000Y-93434000D01*
X173303000Y-99606000D02*
X173303000Y-97560000D01*
X173343000Y-95480000D02*
X173343000Y-93422000D01*
X173343000Y-99618000D02*
X173343000Y-97560000D01*
X173383000Y-95480000D02*
X173383000Y-93410000D01*
X173383000Y-99630000D02*
X173383000Y-97560000D01*
X173423000Y-95480000D02*
X173423000Y-93399000D01*
X173423000Y-99641000D02*
X173423000Y-97560000D01*
X173463000Y-95480000D02*
X173463000Y-93389000D01*
X173463000Y-99651000D02*
X173463000Y-97560000D01*
X173503000Y-95480000D02*
X173503000Y-93379000D01*
X173503000Y-99661000D02*
X173503000Y-97560000D01*
X173543000Y-95480000D02*
X173543000Y-93370000D01*
X173543000Y-99670000D02*
X173543000Y-97560000D01*
X173584000Y-95480000D02*
X173584000Y-93361000D01*
X173584000Y-99679000D02*
X173584000Y-97560000D01*
X173624000Y-95480000D02*
X173624000Y-93353000D01*
X173624000Y-99687000D02*
X173624000Y-97560000D01*
X173664000Y-95480000D02*
X173664000Y-93345000D01*
X173664000Y-99695000D02*
X173664000Y-97560000D01*
X173704000Y-95480000D02*
X173704000Y-93338000D01*
X173704000Y-99702000D02*
X173704000Y-97560000D01*
X173744000Y-95480000D02*
X173744000Y-93331000D01*
X173744000Y-99709000D02*
X173744000Y-97560000D01*
X173784000Y-95480000D02*
X173784000Y-93325000D01*
X173784000Y-99715000D02*
X173784000Y-97560000D01*
X173824000Y-95480000D02*
X173824000Y-93319000D01*
X173824000Y-99721000D02*
X173824000Y-97560000D01*
X173864000Y-95480000D02*
X173864000Y-93314000D01*
X173864000Y-99726000D02*
X173864000Y-97560000D01*
X173904000Y-95480000D02*
X173904000Y-93309000D01*
X173904000Y-99731000D02*
X173904000Y-97560000D01*
X173944000Y-95480000D02*
X173944000Y-93305000D01*
X173944000Y-99735000D02*
X173944000Y-97560000D01*
X173984000Y-95480000D02*
X173984000Y-93302000D01*
X173984000Y-99738000D02*
X173984000Y-97560000D01*
X174024000Y-95480000D02*
X174024000Y-93298000D01*
X174024000Y-99742000D02*
X174024000Y-97560000D01*
X174064000Y-99744000D02*
X174064000Y-93296000D01*
X174104000Y-99747000D02*
X174104000Y-93293000D01*
X174144000Y-99748000D02*
X174144000Y-93292000D01*
X174184000Y-99750000D02*
X174184000Y-93290000D01*
X174224000Y-99750000D02*
X174224000Y-93290000D01*
X174264000Y-99750000D02*
X174264000Y-93290000D01*
X177534000Y-96520000D02*
G75*
G03X177534000Y-96520000I-3270000J0D01*
G01*
X149064000Y-113928000D02*
X149064000Y-109262000D01*
X149064000Y-105353000D02*
X149064000Y-102338000D01*
X161404000Y-113928000D02*
X161404000Y-109262000D01*
X161404000Y-105353000D02*
X161404000Y-102338000D01*
X149064000Y-113928000D02*
X151863000Y-113928000D01*
X153605000Y-113928000D02*
X154364000Y-113928000D01*
X156105000Y-113928000D02*
X156864000Y-113928000D01*
X158604000Y-113928000D02*
X161404000Y-113928000D01*
X149064000Y-102338000D02*
X161404000Y-102338000D01*
X134332000Y-102338000D02*
X146672000Y-102338000D01*
X143872000Y-113928000D02*
X146672000Y-113928000D01*
X141373000Y-113928000D02*
X142132000Y-113928000D01*
X138873000Y-113928000D02*
X139632000Y-113928000D01*
X134332000Y-113928000D02*
X137131000Y-113928000D01*
X146672000Y-105353000D02*
X146672000Y-102338000D01*
X146672000Y-113928000D02*
X146672000Y-109262000D01*
X134332000Y-105353000D02*
X134332000Y-102338000D01*
X134332000Y-113928000D02*
X134332000Y-109262000D01*
X143788000Y-93504000D02*
X144118000Y-93504000D01*
X144118000Y-93504000D02*
X144118000Y-100044000D01*
X144118000Y-100044000D02*
X143788000Y-100044000D01*
X141708000Y-93504000D02*
X141378000Y-93504000D01*
X141378000Y-93504000D02*
X141378000Y-100044000D01*
X141378000Y-100044000D02*
X141708000Y-100044000D01*
D10*
X156944571Y-86383714D02*
X156992190Y-86240857D01*
X157039809Y-86193238D01*
X157135047Y-86145619D01*
X157277904Y-86145619D01*
X157373142Y-86193238D01*
X157420761Y-86240857D01*
X157468380Y-86336095D01*
X157468380Y-86717047D01*
X156468380Y-86717047D01*
X156468380Y-86383714D01*
X156516000Y-86288476D01*
X156563619Y-86240857D01*
X156658857Y-86193238D01*
X156754095Y-86193238D01*
X156849333Y-86240857D01*
X156896952Y-86288476D01*
X156944571Y-86383714D01*
X156944571Y-86717047D01*
X156468380Y-85859904D02*
X156468380Y-85288476D01*
X157468380Y-85574190D02*
X156468380Y-85574190D01*
X157468380Y-84431333D02*
X157468380Y-85002761D01*
X157468380Y-84717047D02*
X156468380Y-84717047D01*
X156611238Y-84812285D01*
X156706476Y-84907523D01*
X156754095Y-85002761D01*
X144827333Y-81423142D02*
X144779714Y-81470761D01*
X144636857Y-81518380D01*
X144541619Y-81518380D01*
X144398761Y-81470761D01*
X144303523Y-81375523D01*
X144255904Y-81280285D01*
X144208285Y-81089809D01*
X144208285Y-80946952D01*
X144255904Y-80756476D01*
X144303523Y-80661238D01*
X144398761Y-80566000D01*
X144541619Y-80518380D01*
X144636857Y-80518380D01*
X144779714Y-80566000D01*
X144827333Y-80613619D01*
X145779714Y-81518380D02*
X145208285Y-81518380D01*
X145494000Y-81518380D02*
X145494000Y-80518380D01*
X145398761Y-80661238D01*
X145303523Y-80756476D01*
X145208285Y-80804095D01*
X144653333Y-91503142D02*
X144605714Y-91550761D01*
X144462857Y-91598380D01*
X144367619Y-91598380D01*
X144224761Y-91550761D01*
X144129523Y-91455523D01*
X144081904Y-91360285D01*
X144034285Y-91169809D01*
X144034285Y-91026952D01*
X144081904Y-90836476D01*
X144129523Y-90741238D01*
X144224761Y-90646000D01*
X144367619Y-90598380D01*
X144462857Y-90598380D01*
X144605714Y-90646000D01*
X144653333Y-90693619D01*
X144986666Y-90598380D02*
X145605714Y-90598380D01*
X145272380Y-90979333D01*
X145415238Y-90979333D01*
X145510476Y-91026952D01*
X145558095Y-91074571D01*
X145605714Y-91169809D01*
X145605714Y-91407904D01*
X145558095Y-91503142D01*
X145510476Y-91550761D01*
X145415238Y-91598380D01*
X145129523Y-91598380D01*
X145034285Y-91550761D01*
X144986666Y-91503142D01*
X166163333Y-95901142D02*
X166115714Y-95948761D01*
X165972857Y-95996380D01*
X165877619Y-95996380D01*
X165734761Y-95948761D01*
X165639523Y-95853523D01*
X165591904Y-95758285D01*
X165544285Y-95567809D01*
X165544285Y-95424952D01*
X165591904Y-95234476D01*
X165639523Y-95139238D01*
X165734761Y-95044000D01*
X165877619Y-94996380D01*
X165972857Y-94996380D01*
X166115714Y-95044000D01*
X166163333Y-95091619D01*
X167068095Y-94996380D02*
X166591904Y-94996380D01*
X166544285Y-95472571D01*
X166591904Y-95424952D01*
X166687142Y-95377333D01*
X166925238Y-95377333D01*
X167020476Y-95424952D01*
X167068095Y-95472571D01*
X167115714Y-95567809D01*
X167115714Y-95805904D01*
X167068095Y-95901142D01*
X167020476Y-95948761D01*
X166925238Y-95996380D01*
X166687142Y-95996380D01*
X166591904Y-95948761D01*
X166544285Y-95901142D01*
X134794666Y-92880380D02*
X134794666Y-93594666D01*
X134747047Y-93737523D01*
X134651809Y-93832761D01*
X134508952Y-93880380D01*
X134413714Y-93880380D01*
X135794666Y-93880380D02*
X135223238Y-93880380D01*
X135508952Y-93880380D02*
X135508952Y-92880380D01*
X135413714Y-93023238D01*
X135318476Y-93118476D01*
X135223238Y-93166095D01*
X140450380Y-91574857D02*
X140450380Y-92051047D01*
X139450380Y-92051047D01*
X140402761Y-91289142D02*
X140450380Y-91146285D01*
X140450380Y-90908190D01*
X140402761Y-90812952D01*
X140355142Y-90765333D01*
X140259904Y-90717714D01*
X140164666Y-90717714D01*
X140069428Y-90765333D01*
X140021809Y-90812952D01*
X139974190Y-90908190D01*
X139926571Y-91098666D01*
X139878952Y-91193904D01*
X139831333Y-91241523D01*
X139736095Y-91289142D01*
X139640857Y-91289142D01*
X139545619Y-91241523D01*
X139498000Y-91193904D01*
X139450380Y-91098666D01*
X139450380Y-90860571D01*
X139498000Y-90717714D01*
X140450380Y-89765333D02*
X140450380Y-90336761D01*
X140450380Y-90051047D02*
X139450380Y-90051047D01*
X139593238Y-90146285D01*
X139688476Y-90241523D01*
X139736095Y-90336761D01*
X155194095Y-87546380D02*
X155194095Y-88355904D01*
X155241714Y-88451142D01*
X155289333Y-88498761D01*
X155384571Y-88546380D01*
X155575047Y-88546380D01*
X155670285Y-88498761D01*
X155717904Y-88451142D01*
X155765523Y-88355904D01*
X155765523Y-87546380D01*
X156765523Y-88546380D02*
X156194095Y-88546380D01*
X156479809Y-88546380D02*
X156479809Y-87546380D01*
X156384571Y-87689238D01*
X156289333Y-87784476D01*
X156194095Y-87832095D01*
X169632476Y-101274571D02*
X169775333Y-101322190D01*
X169822952Y-101369809D01*
X169870571Y-101465047D01*
X169870571Y-101607904D01*
X169822952Y-101703142D01*
X169775333Y-101750761D01*
X169680095Y-101798380D01*
X169299142Y-101798380D01*
X169299142Y-100798380D01*
X169632476Y-100798380D01*
X169727714Y-100846000D01*
X169775333Y-100893619D01*
X169822952Y-100988857D01*
X169822952Y-101084095D01*
X169775333Y-101179333D01*
X169727714Y-101226952D01*
X169632476Y-101274571D01*
X169299142Y-101274571D01*
X170251523Y-101512666D02*
X170727714Y-101512666D01*
X170156285Y-101798380D02*
X170489619Y-100798380D01*
X170822952Y-101798380D01*
X171108666Y-101750761D02*
X171251523Y-101798380D01*
X171489619Y-101798380D01*
X171584857Y-101750761D01*
X171632476Y-101703142D01*
X171680095Y-101607904D01*
X171680095Y-101512666D01*
X171632476Y-101417428D01*
X171584857Y-101369809D01*
X171489619Y-101322190D01*
X171299142Y-101274571D01*
X171203904Y-101226952D01*
X171156285Y-101179333D01*
X171108666Y-101084095D01*
X171108666Y-100988857D01*
X171156285Y-100893619D01*
X171203904Y-100846000D01*
X171299142Y-100798380D01*
X171537238Y-100798380D01*
X171680095Y-100846000D01*
X172061047Y-101750761D02*
X172203904Y-101798380D01*
X172442000Y-101798380D01*
X172537238Y-101750761D01*
X172584857Y-101703142D01*
X172632476Y-101607904D01*
X172632476Y-101512666D01*
X172584857Y-101417428D01*
X172537238Y-101369809D01*
X172442000Y-101322190D01*
X172251523Y-101274571D01*
X172156285Y-101226952D01*
X172108666Y-101179333D01*
X172061047Y-101084095D01*
X172061047Y-100988857D01*
X172108666Y-100893619D01*
X172156285Y-100846000D01*
X172251523Y-100798380D01*
X172489619Y-100798380D01*
X172632476Y-100846000D01*
X171045142Y-87288666D02*
X171092761Y-87336285D01*
X171140380Y-87479142D01*
X171140380Y-87574380D01*
X171092761Y-87717238D01*
X170997523Y-87812476D01*
X170902285Y-87860095D01*
X170711809Y-87907714D01*
X170568952Y-87907714D01*
X170378476Y-87860095D01*
X170283238Y-87812476D01*
X170188000Y-87717238D01*
X170140380Y-87574380D01*
X170140380Y-87479142D01*
X170188000Y-87336285D01*
X170235619Y-87288666D01*
X170235619Y-86907714D02*
X170188000Y-86860095D01*
X170140380Y-86764857D01*
X170140380Y-86526761D01*
X170188000Y-86431523D01*
X170235619Y-86383904D01*
X170330857Y-86336285D01*
X170426095Y-86336285D01*
X170568952Y-86383904D01*
X171140380Y-86955333D01*
X171140380Y-86336285D01*
X174097333Y-101277142D02*
X174049714Y-101324761D01*
X173906857Y-101372380D01*
X173811619Y-101372380D01*
X173668761Y-101324761D01*
X173573523Y-101229523D01*
X173525904Y-101134285D01*
X173478285Y-100943809D01*
X173478285Y-100800952D01*
X173525904Y-100610476D01*
X173573523Y-100515238D01*
X173668761Y-100420000D01*
X173811619Y-100372380D01*
X173906857Y-100372380D01*
X174049714Y-100420000D01*
X174097333Y-100467619D01*
X174954476Y-100705714D02*
X174954476Y-101372380D01*
X174716380Y-100324761D02*
X174478285Y-101039047D01*
X175097333Y-101039047D01*
X154519428Y-100592000D02*
X154424190Y-100544380D01*
X154281333Y-100544380D01*
X154138476Y-100592000D01*
X154043238Y-100687238D01*
X153995619Y-100782476D01*
X153948000Y-100972952D01*
X153948000Y-101115809D01*
X153995619Y-101306285D01*
X154043238Y-101401523D01*
X154138476Y-101496761D01*
X154281333Y-101544380D01*
X154376571Y-101544380D01*
X154519428Y-101496761D01*
X154567047Y-101449142D01*
X154567047Y-101115809D01*
X154376571Y-101115809D01*
X154948000Y-101258666D02*
X155424190Y-101258666D01*
X154852761Y-101544380D02*
X155186095Y-100544380D01*
X155519428Y-101544380D01*
X155852761Y-101544380D02*
X155852761Y-100544380D01*
X156328952Y-101544380D02*
X156328952Y-100544380D01*
X156900380Y-101544380D01*
X156900380Y-100544380D01*
X137906476Y-100544380D02*
X138239809Y-101544380D01*
X138573142Y-100544380D01*
X139096952Y-100544380D02*
X139287428Y-100544380D01*
X139382666Y-100592000D01*
X139477904Y-100687238D01*
X139525523Y-100877714D01*
X139525523Y-101211047D01*
X139477904Y-101401523D01*
X139382666Y-101496761D01*
X139287428Y-101544380D01*
X139096952Y-101544380D01*
X139001714Y-101496761D01*
X138906476Y-101401523D01*
X138858857Y-101211047D01*
X138858857Y-100877714D01*
X138906476Y-100687238D01*
X139001714Y-100592000D01*
X139096952Y-100544380D01*
X140430285Y-101544380D02*
X139954095Y-101544380D01*
X139954095Y-100544380D01*
X140763619Y-100544380D02*
X140763619Y-101353904D01*
X140811238Y-101449142D01*
X140858857Y-101496761D01*
X140954095Y-101544380D01*
X141144571Y-101544380D01*
X141239809Y-101496761D01*
X141287428Y-101449142D01*
X141335047Y-101353904D01*
X141335047Y-100544380D01*
X141811238Y-101544380D02*
X141811238Y-100544380D01*
X142144571Y-101258666D01*
X142477904Y-100544380D01*
X142477904Y-101544380D01*
X142954095Y-101020571D02*
X143287428Y-101020571D01*
X143430285Y-101544380D02*
X142954095Y-101544380D01*
X142954095Y-100544380D01*
X143430285Y-100544380D01*
X145570380Y-96940666D02*
X145094190Y-97274000D01*
X145570380Y-97512095D02*
X144570380Y-97512095D01*
X144570380Y-97131142D01*
X144618000Y-97035904D01*
X144665619Y-96988285D01*
X144760857Y-96940666D01*
X144903714Y-96940666D01*
X144998952Y-96988285D01*
X145046571Y-97035904D01*
X145094190Y-97131142D01*
X145094190Y-97512095D01*
X145570380Y-95988285D02*
X145570380Y-96559714D01*
X145570380Y-96274000D02*
X144570380Y-96274000D01*
X144713238Y-96369238D01*
X144808476Y-96464476D01*
X144856095Y-96559714D01*
M02*
